SplineFontDB: 3.2
FontName: AtkinsonHyperPro-Regular
FullName: Atkinson Hyperlegible Pro Regular
FamilyName: Atkinson Hyperlegible Pro
Weight: Regular
Copyright: Copyright 2020 Braille Institute of America, Inc.
UComments: "Update by Jacob Perez+AAoA-https://jacobxperez.github.io/atkinson-hyperlegible-pro/"
Version: 1.3.2
ItalicAngle: 0
UnderlinePosition: -106
UnderlineWidth: 57
Ascent: 800
Descent: 200
InvalidEm: 0
sfntRevision: 0x00010000
LayerCount: 2
Layer: 0 0 "Back" 1
Layer: 1 0 "Fore" 0
XUID: [1021 466 782043844 18134]
StyleMap: 0x0040
FSType: 0
OS2Version: 4
OS2_WeightWidthSlopeOnly: 0
OS2_UseTypoMetrics: 1
CreationTime: 1615339189
ModificationTime: 1697741987
PfmFamily: 81
TTFWeight: 400
TTFWidth: 5
LineGap: 0
VLineGap: 0
Panose: 0 0 0 0 0 0 0 0 0 0
OS2TypoAscent: 950
OS2TypoAOffset: 0
OS2TypoDescent: -290
OS2TypoDOffset: 0
OS2TypoLinegap: 0
OS2WinAscent: 950
OS2WinAOffset: 0
OS2WinDescent: 290
OS2WinDOffset: 0
HheadAscent: 950
HheadAOffset: 0
HheadDescent: -290
HheadDOffset: 0
OS2SubXSize: 650
OS2SubYSize: 699
OS2SubXOff: 0
OS2SubYOff: 140
OS2SupXSize: 650
OS2SupYSize: 699
OS2SupXOff: 0
OS2SupYOff: 479
OS2StrikeYSize: 49
OS2StrikeYPos: 258
OS2CapHeight: 668
OS2XHeight: 496
OS2Vendor: 'NONE'
OS2CodePages: 20000003.00000000
OS2UnicodeRanges: 800000ef.0000204b.00000000.00000000
Lookup: 4 0 1 "'liga' Standard Ligatures lookup 0" { "'liga' Standard Ligatures lookup 0-1"  } ['liga' ('DFLT' <'dflt' > 'grek' <'dflt' > 'latn' <'MOL ' 'dflt' > ) ]
Lookup: 1 0 0 "'zero' Slashed Zero lookup 0" { "'zero' Slashed Zero lookup 0-1"  } ['zero' ('DFLT' <'dflt' > 'grek' <'dflt' > 'latn' <'MOL ' 'dflt' > ) ]
Lookup: 1 0 0 "'aalt' Access All Alternates lookup 0" { "'aalt' Access All Alternates lookup 0 subtable"  } ['aalt' ('DFLT' <'dflt' > 'grek' <'dflt' > 'latn' <'dflt' > ) ]
Lookup: 3 0 0 "'aalt' Access All Alternates lookup 1" { "'aalt' Access All Alternates lookup 1 subtable"  } ['aalt' ('DFLT' <'dflt' > 'grek' <'dflt' > 'latn' <'dflt' > ) ]

StartChar: .notdef
Encoding: 256 -1 0
Width: 523
GlyphClass: 1
Flags: W
HStem: 0 21<77 447> 680 20<76 447>
VStem: 48 21<49 650> 455 20<47 652>
DStem2: 76 680 69 650 0.513698 -0.857971<22.1432 360.147 396.696 737.787> 69 49 77 21 0.513896 0.857853<0 339.381 374.897 715.649>
LayerCount: 2
Fore
SplineSet
48 0 m 1
 48 700 l 1
 475 700 l 1
 475 0 l 1
 48 0 l 1
261 371 m 1
 447 680 l 1
 76 680 l 1
 261 371 l 1
455 47 m 1
 455 652 l 1
 274 350 l 1
 455 47 l 1
69 49 m 1
 249 350 l 1
 69 650 l 1
 69 49 l 1
77 21 m 1
 447 21 l 1
 262 329 l 1
 77 21 l 1
EndSplineSet
EndChar

StartChar: zero
Encoding: 48 48 5
Width: 648
GlyphClass: 1
Flags: W
HStem: -12 74<244.961 402.53> 606 74<243.966 404.47>
VStem: 60 91<181.546 483.164> 497 91<191.906 488.485>
DStem2: 217 566 171 486 0.571572 -0.820552<39.3519 458.851>
LayerCount: 2
Fore
SplineSet
588 338.138194867 m 0
 588 191.45539962 548.490885324 -12 309.58149739 -12 c 0
 270.366051833 -12 60 -6.51827687043 60 344.886131921 c 0
 60 415.738956195 68.5521552679 680 321.50414818 680 c 0
 434.033640279 680 588 627.701449443 588 338.138194867 c 0
497 334.202613131 m 0
 497 456.394137262 470.314803267 606 324.381128818 606 c 0
 280.814838673 606 245 592.666666667 217 566 c 1
 480 190 l 1
 491.333333333 230 497 277.894663844 497 334.202613131 c 0
151 333.356747485 m 0
 151 233.774750893 169.094307472 62 324.021662637 62 c 0
 369.803590078 62 407 77 435 107 c 1
 171 486 l 1
 159.178984205 449.354851036 151 400.308127207 151 333.356747485 c 0
EndSplineSet
Substitution2: "'zero' Slashed Zero lookup 0-1" zero.alt1
Substitution2: "'tnum' Tabular Numbers lookup 14 subtable" zero.tf
Substitution2: "'aalt' Access All Alternates lookup 0 subtable" zero.alt1
EndChar

StartChar: one
Encoding: 49 49 6
Width: 402
GlyphClass: 1
Flags: W
HStem: 0 21G<220 304> 504 67<42 179.998> 648 20G<236.473 304>
VStem: 220 84<0 504> 248 56<629.063 668>
LayerCount: 2
Fore
SplineSet
42 571 m 1xf0
 166.738964374 571 224.945557701 600.48341898 248 668 c 1
 304 668 l 1xe8
 304 0 l 1
 220 0 l 1
 220 504 l 1
 42 504 l 1
 42 571 l 1xf0
EndSplineSet
Substitution2: "'tnum' Tabular Numbers lookup 14 subtable" one.tf
Substitution2: "'sups' Superscript lookup 9 subtable" uni00B9
AlternateSubs2: "'aalt' Access All Alternates lookup 1 subtable" uni00B9 one.tf
EndChar

StartChar: two
Encoding: 50 50 7
Width: 549
GlyphClass: 1
Flags: W
HStem: 0 77<147 515> 498 21G<73 150.951> 610 70<202.029 360.274>
VStem: 59 84<520 550.567> 408 89<412.246 562.628>
LayerCount: 2
Fore
SplineSet
497 505.385637452 m 0
 497 364.760104201 370.25756268 239.65908138 147 77 c 1
 515 77 l 1
 515 0 l 1
 34 0 l 1
 34 75 l 1
 315.161216424 282.296829058 408 393.50410913 408 493.164749242 c 0
 408 566.121558188 358.247631878 610 282.76956739 610 c 0
 219.159575597 610 158.902062714 578.835485463 143 498 c 1
 59 522 l 1
 68.2866334739 559.662457978 111.581238059 680 276.641946799 680 c 0
 318.616287731 680 497 672.218174342 497 505.385637452 c 0
EndSplineSet
Substitution2: "'tnum' Tabular Numbers lookup 14 subtable" two.tf
Substitution2: "'sups' Superscript lookup 9 subtable" uni00B2
AlternateSubs2: "'aalt' Access All Alternates lookup 1 subtable" uni00B2 two.tf
EndChar

StartChar: three
Encoding: 51 51 8
Width: 574
GlyphClass: 1
Flags: W
HStem: -12 70<187.706 363.337> 314 76<218 350.449> 498 21G<65.6667 144.129> 610 70<193.688 358.94>
VStem: 42 83<119.847 153.024> 52 82<519.951 551.296> 407 88<436.388 565.089> 424 90<113.802 253.68>
LayerCount: 2
Fore
SplineSet
514 189.620788185 m 0xf1
 514 50.2088072588 395.707454721 -12 273.898236515 -12 c 0
 206.574216947 -12 80.3990895035 7.00341436176 42 151 c 1
 125 175 l 1
 138.375047681 111.772501869 181.255358474 58 269.230241202 58 c 0
 297.819372806 58 424 63.6786457609 424 183.892982314 c 0xf9
 424 307.584991602 290.413232011 314 218 314 c 1
 218 390 l 1
 359.644607231 390 407 430.339765227 407 497.819115437 c 0
 407 571.62653518 350.3463748 610 278.451204023 610 c 0
 240.464243469 610 154.257451498 599.287257485 134 498 c 1
 52 522 l 1
 75.415329832 614.36046767 152.565522686 680 278.266606415 680 c 0
 333.017613781 680 495 667.547066682 495 504.016200652 c 0xf6
 495 493.18633844 494.289581633 399.950392377 386 355 c 1
 486.726749001 324.11046364 514 256.561428866 514 189.620788185 c 0xf1
EndSplineSet
Substitution2: "'tnum' Tabular Numbers lookup 14 subtable" three.tf
Substitution2: "'sups' Superscript lookup 9 subtable" uni00B3
AlternateSubs2: "'aalt' Access All Alternates lookup 1 subtable" uni00B3 three.tf
EndChar

StartChar: four
Encoding: 52 52 9
Width: 614
GlyphClass: 1
Flags: W
HStem: 0 21G<370 454> 165 79<129 370 454 576> 648 20G<353.387 454>
VStem: 370 84<0 165 244 553>
DStem2: 38 244 129 244 0.615355 0.78825<55.9973 447.867>
LayerCount: 2
Fore
SplineSet
370 0 m 1
 370 165 l 1
 38 165 l 1
 38 244 l 1
 369 668 l 1
 454 668 l 1
 454 244 l 1
 576 244 l 1
 576 165 l 1
 454 165 l 1
 454 0 l 1
 370 0 l 1
129 244 m 1
 370 244 l 1
 370 553 l 1
 129 244 l 1
EndSplineSet
Substitution2: "'tnum' Tabular Numbers lookup 14 subtable" four.tf
Substitution2: "'sups' Superscript lookup 9 subtable" uni2074
AlternateSubs2: "'aalt' Access All Alternates lookup 1 subtable" four.tf uni2074
EndChar

StartChar: five
Encoding: 53 53 10
Width: 583
GlyphClass: 1
Flags: W
HStem: -12 70<197.29 359.992> 378 72<202.539 362.236> 587 81<181 496>
VStem: 54 82<120.392 153.049> 433 88<131.729 304.601>
DStem2: 72 328 158 400 0.119721 0.992808<0 13.5422 81.7781 270.187>
LayerCount: 2
Fore
SplineSet
521 221.652862421 m 0
 521 72.7168837849 416.918401254 -12 281.79002484 -12 c 0
 218.708357943 -12 95.7553678189 6.46218831961 54 151 c 1
 136 175 l 1
 141.00693171 152.051562997 162.109309065 58 277.022940176 58 c 0
 368.573917405 58 433 117.69650287 433 219.341356873 c 0
 433 330.548206501 355.88231076 378 282.660324475 378 c 0
 215.068469956 378 168.768563231 337.564916437 154 304 c 1
 72 328 l 1
 113 668 l 1
 496 668 l 1
 496 587 l 1
 181 587 l 1
 158 400 l 1
 171.940415858 413.940415858 216.102640828 450 296.90449572 450 c 0
 416.690242836 450 521 370.751993793 521 221.652862421 c 0
EndSplineSet
Substitution2: "'tnum' Tabular Numbers lookup 14 subtable" five.tf
Substitution2: "'aalt' Access All Alternates lookup 0 subtable" five.tf
EndChar

StartChar: six
Encoding: 54 54 11
Width: 598
GlyphClass: 1
Flags: W
HStem: -12 71<222.525 382.51> 371 74<222.92 380.532> 610 70<240.469 388.505>
VStem: 60 87<352 478.427> 448 90<128.506 302.356>
LayerCount: 2
Fore
SplineSet
538 221.583163289 m 0
 538 100.459117256 455.911371655 -12 294.704731621 -12 c 0
 231.339245279 -12 60 5.37538205337 60 306.447695432 c 0
 60 428.839094578 88.3150289147 680 318.012090423 680 c 0
 369.979858074 680 462.974093946 667.143898745 509 573 c 1
 424 548 l 1
 413.659097848 567.992410827 383.461313046 610 314.462438829 610 c 0
 207.511267325 610 151.062187826 509.071262603 147 352 c 1
 167.874157909 387.395311237 217.762093937 445 319.520646449 445 c 0
 454.369697472 445 538 343.839310153 538 221.583163289 c 0
157 214.865357885 m 0
 157 122.141885334 213.524069526 59 302.479848892 59 c 0
 391.766297966 59 448 122.612184516 448 215.036945609 c 0
 448 306.992238105 392.336121637 371 302.678057403 371 c 0
 213.322364311 371 157 307.423241484 157 214.865357885 c 0
EndSplineSet
Substitution2: "'tnum' Tabular Numbers lookup 14 subtable" six.tf
Substitution2: "'aalt' Access All Alternates lookup 0 subtable" six.tf
EndChar

StartChar: seven
Encoding: 55 55 12
Width: 510
GlyphClass: 1
Flags: W
HStem: 0 21G<93 207.472> 587 81<15 383>
LayerCount: 2
Fore
SplineSet
93 0 m 1
 383 587 l 1
 15 587 l 1
 15 668 l 1
 476 668 l 1
 476 587 l 1
 198 0 l 1
 93 0 l 1
EndSplineSet
Substitution2: "'tnum' Tabular Numbers lookup 14 subtable" seven.tf
Substitution2: "'aalt' Access All Alternates lookup 0 subtable" seven.tf
EndChar

StartChar: eight
Encoding: 56 56 13
Width: 615
GlyphClass: 1
Flags: W
HStem: -12 74<213.012 402.161> 317 74<242.934 368.621> 606 74<243.52 370.355>
VStem: 60 91<117.563 258.015> 126 74<434.276 564.004> 414 75<434.622 562.797> 464 91<116.672 258.309>
LayerCount: 2
Fore
SplineSet
555 189.937214336 m 0xe2
 555 55.2923039791 439.706823801 -12 307.704735096 -12 c 0
 178.772237373 -12 60 52.1990473681 60 185.105790402 c 0xf2
 60 227.151141568 71.8865788287 321.554631531 183 366 c 1
 169.202378934 379.266943333 126 423.903147639 126 497.645221921 c 0
 126 597.134068953 204.636786611 680 307.002127392 680 c 0
 407.666785509 680 489 599.864640989 489 499.691544641 c 0xec
 489 469.600921703 481.661148529 413.751104356 432 366 c 1
 474.228409345 349.410267757 555 302.635538344 555 189.937214336 c 0xe2
200 499.142639806 m 0xec
 200 438.432374937 247.736437421 391 307.128409025 391 c 0
 366.874131014 391 414 438.999090963 414 499.064213333 c 0
 414 559.575187892 366.171921413 606 307.080274058 606 c 0
 248.45826074 606 200 560.310182903 200 499.142639806 c 0xec
151 188.461413559 m 0
 151 110.484080224 211.259563903 62 302.106081251 62 c 0
 335.391496503 62 464 68.5086445395 464 186.146888853 c 0xe2
 464 267.070053429 403.141908048 317 307.368546655 317 c 0
 210.559837234 317 151 265.984693324 151 188.461413559 c 0
EndSplineSet
Substitution2: "'tnum' Tabular Numbers lookup 14 subtable" eight.tf
Substitution2: "'aalt' Access All Alternates lookup 0 subtable" eight.tf
EndChar

StartChar: nine
Encoding: 57 57 14
Width: 598
GlyphClass: 1
Flags: W
HStem: 0 21G<213 329.667> 201 86<223.38 350.124> 594 85<220.442 378.553>
VStem: 60 86<363.717 518.801> 213 104<0 104> 454 84<395.331 518.971>
DStem2: 213 0 317 0 0.521144 0.853468<54.199 249.107>
LayerCount: 2
Fore
SplineSet
300.101564731 679 m 0
 439.246790069 679 538 568.051342989 538 395.330978904 c 1
 538 395.330978904 538 355.695652176 399.111197644 128.240077302 c 0
 367.315008866 76.1680579987 342.333333333 37.3333333333 317 0 c 1
 213 0 l 1
 265.269040452 73.5638347097 307.467211788 134.899295275 352 207 c 1
 335.333333333 203 317.683341836 201 299.766120556 201 c 0
 169.962961796 201 60 305.968551283 60 440.831153789 c 0
 60 571.399837695 163.072167659 679 300.101564731 679 c 0
146 441.31341083 m 0
 146 355.981208862 214.330991468 287 299.37729203 287 c 0
 384.932323941 287 454 356.808942999 454 440.799574236 c 0
 454 523.13689086 387.624688631 594 299.685040894 594 c 0
 213.698649605 594 146 526.249858695 146 441.31341083 c 0
EndSplineSet
Substitution2: "'tnum' Tabular Numbers lookup 14 subtable" nine.tf
Substitution2: "'aalt' Access All Alternates lookup 0 subtable" nine.tf
EndChar

StartChar: A
Encoding: 65 65 15
Width: 626
GlyphClass: 2
Flags: W
HStem: 0 21G<10 116.986 509.014 616> 146 81<190 436> 574 95<261 366>
DStem2: 10 0 110 0 0.351277 0.936272<35.1277 189.738 275.763 643.857> 366 669 313 574 0.350049 -0.936731<70.4369 438.539 524.565 556.55 632.86 679.181>
AnchorPoint: "Anchor-2" 615 0 basechar 0
AnchorPoint: "Anchor-1" 313 0 basechar 0
AnchorPoint: "Anchor-0" 313 668 basechar 0
LayerCount: 2
Fore
SplineSet
10 0 m 1
 261 669 l 1
 366 669 l 1
 616 0 l 1
 516 0 l 1
 465 146 l 1
 161 146 l 1
 110 0 l 1
 10 0 l 1
190 227 m 1
 436 227 l 1
 313 574 l 1
 190 227 l 1
EndSplineSet
Substitution2: "Single Substitution lookup 12 subtable" ordfeminine
Substitution2: "'aalt' Access All Alternates lookup 0 subtable" ordfeminine
EndChar

StartChar: B
Encoding: 66 66 16
Width: 619
GlyphClass: 1
Flags: W
HStem: 0 79<170 438.443> 308 74<170 419.373> 589 79<170 416.821>
VStem: 76 94<79 308 382 589> 457 95<419.394 549.695> 484 97<125.972 264.626>
AnchorPoint: "Anchor-0" 290 668 basechar 0
LayerCount: 2
Fore
SplineSet
581 195.683451917 m 0xf4
 581 102.560552001 514.877858823 0 361 0 c 2
 76 0 l 1
 76 668 l 1
 345 668 l 2
 502.172984545 668 552 575.669110755 552 503.17302622 c 0xf8
 552 477.586974436 545.793563433 409.412157044 482 355 c 1
 504.105535804 343.505121382 581 296.105846986 581 195.683451917 c 0xf4
457 483.872625552 m 0
 457 531.769610662 426.356988516 589 355 589 c 2
 170 589 l 1
 170 382 l 1
 355 382 l 2
 423.572143005 382 457 433.846516752 457 483.872625552 c 0
484 196.072657389 m 0xf4
 484 251.094285575 447.51279703 308 370 308 c 2
 170 308 l 1
 170 79 l 1
 371 79 l 2
 449.147880203 79 484 142.297987804 484 196.072657389 c 0xf4
EndSplineSet
EndChar

StartChar: C
Encoding: 67 67 17
Width: 656
GlyphClass: 2
Flags: W
HStem: -12 79<269.281 455.415> 499 21G<516.244 586.667> 601 79<269.367 451.398>
VStem: 50 96<205.112 457.004>
AnchorPoint: "Anchor-1" 348 0 basechar 0
AnchorPoint: "Anchor-0" 353 668 basechar 0
LayerCount: 2
Fore
SplineSet
618 139 m 1
 594.319336178 90.3230799221 524.214734632 -12 358.136519058 -12 c 0
 159.324200603 -12 50 134.634054718 50 334.061558278 c 0
 50 553.763597974 182.682725084 680 355.649687526 680 c 0
 415.254321169 680 550.653145242 665.00942345 614 529 c 1
 532 499 l 1
 500.488596013 563.455144517 436.858190757 601 358.39463308 601 c 0
 234.68145351 601 146 507.664602166 146 325.197008192 c 0
 146 300.694053713 147.599183198 165.573734799 247.939568168 99.3697694565 c 0
 280.855375992 77.652123057 318.865795961 67 361.488717397 67 c 0
 444.444543307 67 505.174999619 107.349999236 536 169 c 1
 618 139 l 1
EndSplineSet
EndChar

StartChar: D
Encoding: 68 68 18
Width: 673
GlyphClass: 2
Flags: W
HStem: 0 79<170 399.12> 589 79<170 401.621>
VStem: 76 94<79 589> 527 96<202.999 462.099>
AnchorPoint: "Anchor-1" 337 0 basechar 0
AnchorPoint: "Anchor-0" 327 668 basechar 0
LayerCount: 2
Fore
SplineSet
623 336.666911427 m 0
 623 113.480527693 509.346548612 0 258 0 c 2
 76 0 l 1
 76 668 l 1
 258 668 l 2
 555.710148351 668 623 508.398887183 623 336.666911427 c 0
527 332.741275017 m 0
 527 532.698024535 429.813599583 589 256 589 c 2
 170 589 l 1
 170 79 l 1
 256 79 l 2
 437.140001378 79 527 140.469062632 527 332.741275017 c 0
EndSplineSet
EndChar

StartChar: E
Encoding: 69 69 19
Width: 567
GlyphClass: 2
Flags: W
HStem: 0 81<170 529> 303 81<170 435> 587 81<170 529>
VStem: 76 94<81 303 384 587>
AnchorPoint: "Anchor-2" 506 0 basechar 0
AnchorPoint: "Anchor-1" 284 0 basechar 0
AnchorPoint: "Anchor-0" 304 668 basechar 0
LayerCount: 2
Fore
SplineSet
76 0 m 1
 76 668 l 1
 529 668 l 1
 529 587 l 1
 170 587 l 1
 170 384 l 1
 435 384 l 1
 435 303 l 1
 170 303 l 1
 170 81 l 1
 529 81 l 1
 529 0 l 1
 76 0 l 1
EndSplineSet
EndChar

StartChar: F
Encoding: 70 70 20
Width: 548
GlyphClass: 1
Flags: W
HStem: 0 21G<76 170> 303 81<170 510> 587 81<170 510>
VStem: 76 94<0 303 384 587>
AnchorPoint: "Anchor-0" 305 668 basechar 0
LayerCount: 2
Fore
SplineSet
76 0 m 1
 76 668 l 1
 510 668 l 1
 510 587 l 1
 170 587 l 1
 170 384 l 1
 510 384 l 1
 510 303 l 1
 170 303 l 1
 170 0 l 1
 76 0 l 1
EndSplineSet
EndChar

StartChar: G
Encoding: 71 71 21
Width: 710
GlyphClass: 2
Flags: W
HStem: -12 79<268.385 462.617> 0 21G<582.048 642> 264 81<358 553> 499 21G<516.244 587.333> 601 79<263.864 451.811>
VStem: 50 96<204.66 463.567> 553 89<151.654 264> 588 54<0 23.52>
AnchorPoint: "Anchor-1" 355 0 basechar 0
AnchorPoint: "Anchor-0" 359 668 basechar 0
LayerCount: 2
Fore
SplineSet
563 84 m 1x7d
 545.040470027 55.3769991055 493.480422606 -12 357.444370799 -12 c 0
 154.225207888 -12 50 138.360216582 50 333.729215072 c 0
 50 554.933188809 183.612570269 680 355.960381569 680 c 0
 417.154149192 680 550.162188041 664.23315066 615 529 c 1
 532 499 l 1
 500.488596013 563.455144517 436.858190757 601 358.438396742 601 c 0
 235.757007989 601 146 509.112505516 146 335.44231185 c 0
 146 166.635893222 230.799970673 67 360.293078095 67 c 0
 410.263320936 67 553 81.8369773324 553 242 c 2
 553 264 l 1xbe
 358 264 l 1
 358 345 l 1
 642 345 l 1
 642 0 l 1
 588 0 l 1
 563 84 l 1x7d
EndSplineSet
EndChar

StartChar: H
Encoding: 72 72 22
Width: 690
GlyphClass: 2
Flags: W
HStem: 0 21G<76 170 520 614> 303 81<170 520> 648 20G<76 170 520 614>
VStem: 76 94<0 303 384 668> 520 94<0 303 384 668>
AnchorPoint: "Anchor-1" 345 0 basechar 0
AnchorPoint: "Anchor-0" 345 668 basechar 0
LayerCount: 2
Fore
SplineSet
76 0 m 1
 76 668 l 1
 170 668 l 1
 170 384 l 1
 520 384 l 1
 520 668 l 1
 614 668 l 1
 614 0 l 1
 520 0 l 1
 520 303 l 1
 170 303 l 1
 170 0 l 1
 76 0 l 1
EndSplineSet
EndChar

StartChar: I
Encoding: 73 73 23
Width: 414
GlyphClass: 2
Flags: W
HStem: 0 74<66 160 254 348> 594 74<66 160 254 348>
VStem: 160 94<74 594>
AnchorPoint: "Anchor-2" 273 0 basechar 0
AnchorPoint: "Anchor-1" 207 0 basechar 0
AnchorPoint: "Anchor-0" 207 668 basechar 0
LayerCount: 2
Fore
SplineSet
66 0 m 1
 66 74 l 1
 160 74 l 1
 160 594 l 1
 66 594 l 1
 66 668 l 1
 348 668 l 1
 348 594 l 1
 254 594 l 1
 254 74 l 1
 348 74 l 1
 348 0 l 1
 66 0 l 1
EndSplineSet
EndChar

StartChar: J
Encoding: 74 74 24
Width: 510
GlyphClass: 1
Flags: W
HStem: -12 77<155.388 293.141> 648 20G<340 434>
VStem: 15 87<124.063 189> 340 94<115.528 668>
AnchorPoint: "Anchor-0" 388 668 basechar 0
LayerCount: 2
Fore
SplineSet
434 212 m 2
 434 66.2876420982 355.383725011 -12 224.080422313 -12 c 0
 146.597651091 -12 23.6869172951 15.2616540962 15 189 c 1
 102 214 l 1
 99.2514791518 109.556207743 160.60503208 65 227.186020053 65 c 0
 282.95725942 65 340 96.2628337413 340 213 c 2
 340 668 l 1
 434 668 l 1
 434 212 l 2
EndSplineSet
EndChar

StartChar: K
Encoding: 75 75 25
Width: 627
GlyphClass: 2
Flags: W
HStem: 0 21G<76 170 487.5 617> 648 20G<76 170 453.083 588>
VStem: 76 94<0 210 332 668> 471 117<551 668> 502 115<0 115>
DStem2: 170 332 270 320 0.674116 0.738625<0 58.5481 151.983 451.087> 333 389 270 320 0.589652 -0.807657<18.5803 413.83>
AnchorPoint: "Anchor-1" 314 0 basechar 0
AnchorPoint: "Anchor-0" 314 668 basechar 0
LayerCount: 2
Fore
SplineSet
76 0 m 1xe8
 76 668 l 1
 170 668 l 1
 170 332 l 1
 471 668 l 1
 588 668 l 1xf0
 333 389 l 1
 617 0 l 1
 502 0 l 1
 270 320 l 1
 170 210 l 1
 170 0 l 1
 76 0 l 1xe8
EndSplineSet
EndChar

StartChar: L
Encoding: 76 76 26
Width: 539
GlyphClass: 2
Flags: W
HStem: 0 81<170 529> 648 20G<76 170>
VStem: 76 94<81 668>
AnchorPoint: "Anchor-1" 305 0 basechar 0
AnchorPoint: "Anchor-0" 135 668 basechar 0
LayerCount: 2
Fore
SplineSet
76 0 m 1
 76 668 l 1
 170 668 l 1
 170 81 l 1
 529 81 l 1
 529 0 l 1
 76 0 l 1
EndSplineSet
EndChar

StartChar: M
Encoding: 77 77 27
Width: 820
GlyphClass: 1
Flags: W
HStem: 0 122<303 518> 648 20G<76 238.52 581.48 744>
VStem: 76 94<0 570> 650 94<0 570>
DStem2: 410 122 457 0 0.320711 0.947177<0 501.306>
AnchorPoint: "Anchor-0" 410 668 basechar 0
LayerCount: 2
Fore
SplineSet
76 0 m 1
 76 668 l 1
 232 668 l 1
 410 122 l 1
 588 668 l 1
 744 668 l 1
 744 0 l 1
 650 0 l 1
 650 570 l 1
 457 0 l 1
 364 0 l 1
 170 570 l 1
 170 0 l 1
 76 0 l 1
EndSplineSet
EndChar

StartChar: N
Encoding: 78 78 28
Width: 689
GlyphClass: 2
Flags: W
HStem: 0 21G<76 170 464.317 613> 648 20G<76 225.704 519 613>
VStem: 76 94<0 571> 519 94<100 668>
DStem2: 215 668 170 571 0.471149 -0.882053<64.3575 644.236>
AnchorPoint: "Anchor-1" 311 0 basechar 0
AnchorPoint: "Anchor-0" 362 668 basechar 0
LayerCount: 2
Fore
SplineSet
76 0 m 1
 76 668 l 1
 215 668 l 1
 519 100 l 1
 519 668 l 1
 613 668 l 1
 613 0 l 1
 475 0 l 1
 170 571 l 1
 170 0 l 1
 76 0 l 1
EndSplineSet
EndChar

StartChar: O
Encoding: 79 79 29
Width: 727
GlyphClass: 2
Flags: W
HStem: -12 79<273.626 454.075> 601 79<268.554 455.52>
VStem: 50 96<208.743 462.418> 581 96<206.992 458.32>
AnchorPoint: "Anchor-2" 654 10 basechar 0
AnchorPoint: "Anchor-1" 364 0 basechar 0
AnchorPoint: "Anchor-0" 364 668 basechar 0
LayerCount: 2
Fore
SplineSet
677 335.380461396 m 0
 677 141.845584125 564.336122968 -12 363.448051505 -12 c 0
 163.222440415 -12 50 140.832596553 50 334.548846669 c 0
 50 529.947744164 165.197915947 680 362.671188455 680 c 0
 556.352492663 680 677 535.655153171 677 335.380461396 c 0
363.634652812 601 m 0
 253.076442839 601 146 521.320025322 146 335.785451522 c 0
 146 154.285893176 248.469679641 67 362.864987114 67 c 0
 471.800934658 67 581 146.153490497 581 333.771284725 c 0
 581 516.348285087 477.589888882 601 363.634652812 601 c 0
EndSplineSet
Substitution2: "Single Substitution lookup 12 subtable" ordmasculine
Substitution2: "'aalt' Access All Alternates lookup 0 subtable" ordmasculine
EndChar

StartChar: P
Encoding: 80 80 30
Width: 601
GlyphClass: 1
Flags: W
HStem: 1 21G<76 170> 266 81<170 421.526> 589 79<170 416.656>
VStem: 76 94<1 266 347 589> 467 96<388.52 541.372>
AnchorPoint: "Anchor-0" 294 668 basechar 0
LayerCount: 2
Fore
SplineSet
563 467.897801239 m 0
 563 318.970992511 475.244935214 266 285 266 c 2
 170 266 l 1
 170 1 l 1
 76 1 l 1
 76 668 l 1
 285 668 l 2
 494.110825313 668 563 599.848677507 563 467.897801239 c 0
467 465.24115268 m 0
 467 562.768672245 409.132785093 589 293 589 c 2
 170 589 l 1
 170 347 l 1
 293 347 l 2
 412.112621821 347 467 370.257879483 467 465.24115268 c 0
EndSplineSet
EndChar

StartChar: Q
Encoding: 81 81 31
Width: 753
GlyphClass: 1
Flags: W
HStem: -12 79<274.525 458.362> 601 79<272.688 456.696>
VStem: 50 96<212.401 462.364> 581 96<207.469 459.117>
DStem2: 393 362 329 294 0.729032 -0.68448<0 227.798 331.726 493.692>
LayerCount: 2
Fore
SplineSet
677 334.186878629 m 0
 677 258.939234965 660.100891857 192.658111572 630 139 c 1
 753 24 l 1
 689 -44 l 1
 572 65 l 1
 533.185965954 28.1764292387 466.896889717 -12 364.325807252 -12 c 0
 166.150054105 -12 50 137.976250746 50 334.374835033 c 0
 50 529.998790925 165.235631062 680 362.718317969 680 c 0
 557.17902961 680 677 534.554447358 677 334.186878629 c 0
146 335.632466955 m 0
 146 155.824301928 246.399336159 67 366.082546763 67 c 0
 422.398664464 67 470 86.6666666667 508 126 c 1
 329 294 l 1
 393 362 l 1
 559 206 l 1
 571.952525334 237.792562185 581 279.994945603 581 333.382978781 c 0
 581 404.044267216 565.150971861 514.028189056 472.755747291 570.958579952 c 0
 440.276937932 590.970775617 403.901955827 601 364.406688695 601 c 0
 253.100297636 601 146 521.344193347 146 335.632466955 c 0
EndSplineSet
EndChar

StartChar: R
Encoding: 82 82 32
Width: 618
GlyphClass: 2
Flags: W
HStem: 0 21G<76 170 458.552 588> 281 79<170 270> 589 79<170 417.656>
VStem: 76 94<0 281 360 589> 470 96<401.29 546.116> 473 115<0 115>
DStem2: 381 288 270 281 0.583636 -0.812015<0 287.555>
AnchorPoint: "Anchor-1" 309 0 basechar 0
AnchorPoint: "Anchor-0" 303 668 basechar 0
LayerCount: 2
Fore
SplineSet
566 474.547671716 m 0xf8
 566 355.109048026 505.390665983 305.542273407 381 288 c 1
 588 0 l 1
 473 0 l 1xf4
 270 281 l 1
 170 281 l 1
 170 0 l 1
 76 0 l 1
 76 668 l 1
 288 668 l 2
 477.018500192 668 566 619.266452529 566 474.547671716 c 0xf8
470 473.560369945 m 0xf8
 470 560.617425259 418.939323264 589 295 589 c 2
 170 589 l 1
 170 360 l 1
 295 360 l 2
 417.33986525 360 470 385.150312457 470 473.560369945 c 0xf8
EndSplineSet
EndChar

StartChar: S
Encoding: 83 83 33
Width: 596
GlyphClass: 2
Flags: W
HStem: -12 79<203.459 393.279> 601 79<196.92 381.301>
VStem: 46 97<443.712 553.21> 457 99<121.839 241.489>
DStem2: 286 392 238 313 0.975916 -0.218146<-124.373 172.149>
AnchorPoint: "Anchor-1" 298 0 basechar 0
AnchorPoint: "Anchor-0" 298 668 basechar 0
LayerCount: 2
Fore
SplineSet
556 190.758711432 m 0
 556 38.4981096302 399.545175521 -12 299.755589826 -12 c 0
 258.976784491 -12 89.8557211759 -3.56716352767 40 146 c 1
 127 172 l 1
 153.879313847 91.3620584595 238.795235135 67 301.030315761 67 c 0
 379.075305971 67 457 105.31188575 457 186.078856286 c 0
 457 240.11448277 422.120688711 268.550093438 323 294 c 2
 238 313 l 1
 106.443560279 347.319071231 46 401.413356938 46 492.150631789 c 0
 46 635.548391728 196.960493939 680 291.683657987 680 c 0
 364.750707566 680 474.870708688 653.55045364 523 555 c 1
 437 530 l 1
 411.236056164 577.459896538 347.138568445 601 287.896405761 601 c 0
 221.71762999 601 143 571.624584622 143 496.701254539 c 0
 143 436.191329481 194.344165078 413.15134652 286 392 c 2
 359 376 l 2
 505.995332996 341.412862824 556 276.837933193 556 190.758711432 c 0
EndSplineSet
EndChar

StartChar: T
Encoding: 84 84 34
Width: 558
GlyphClass: 2
Flags: W
HStem: 0 21G<232 326> 587 81<10 232 326 548>
VStem: 232 94<0 587>
AnchorPoint: "Anchor-1" 279 0 basechar 0
AnchorPoint: "Anchor-0" 279 668 basechar 0
LayerCount: 2
Fore
SplineSet
232 0 m 1
 232 587 l 1
 10 587 l 1
 10 668 l 1
 548 668 l 1
 548 587 l 1
 326 587 l 1
 326 0 l 1
 232 0 l 1
EndSplineSet
EndChar

StartChar: U
Encoding: 85 85 35
Width: 690
GlyphClass: 2
Flags: W
HStem: -12 81<247.352 441.572> 648 20G<76 170 520 614>
VStem: 76 94<151.786 668> 520 94<153.479 668>
AnchorPoint: "Anchor-2" 427 0 basechar 0
AnchorPoint: "Anchor-1" 345 0 basechar 0
AnchorPoint: "Anchor-0" 345 668 basechar 0
LayerCount: 2
Fore
SplineSet
614 279 m 2
 614 84.0298629143 538.064778494 -12 345.471839158 -12 c 0
 152.868234018 -12 76 84.040499484 76 279 c 2
 76 668 l 1
 170 668 l 1
 170 272 l 2
 170 135.480053072 221.107531725 69 344.451930597 69 c 0
 471.295871991 69 520 139.305928568 520 272 c 2
 520 668 l 1
 614 668 l 1
 614 279 l 2
EndSplineSet
EndChar

StartChar: V
Encoding: 86 86 36
Width: 589
GlyphClass: 1
Flags: W
HStem: 0 21G<232.144 355.886> 648 20G<10 119.487 469.477 579>
VStem: 10 103<565 668> 476 103<565 668>
DStem2: 113 668 10 668 0.324288 -0.945958<0 586.541> 294 110 349 0 0.325554 0.945523<0 586.853>
LayerCount: 2
Fore
SplineSet
239 0 m 1
 10 668 l 1
 113 668 l 1
 294 110 l 1
 476 668 l 1
 579 668 l 1
 349 0 l 1
 239 0 l 1
EndSplineSet
EndChar

StartChar: W
Encoding: 87 87 37
Width: 840
GlyphClass: 1
Flags: W
HStem: 0 21G<172.97 295.674 544.326 668> 552 116<307 533>
VStem: 10 103<565 668> 727 103<565 668>
DStem2: 113 668 10 668 0.243902 -0.9698<0 567.037> 243 116 291 0 0.227564 0.973763<0 464.84> 597 116 663 0 0.242536 0.970143<0 567.048>
AnchorPoint: "Anchor-0" 420 668 basechar 0
LayerCount: 2
Fore
SplineSet
178 0 m 1
 10 668 l 1
 113 668 l 1
 243 116 l 1
 365 668 l 1
 475 668 l 1
 597 116 l 1
 727 668 l 1
 830 668 l 1
 663 0 l 1
 549 0 l 1
 420 552 l 1
 291 0 l 1
 178 0 l 1
EndSplineSet
EndChar

StartChar: X
Encoding: 88 88 38
Width: 623
GlyphClass: 1
Flags: W
HStem: 0 21G<10 137.189 485.736 613> 648 20G<24 150.286 471.714 599>
VStem: 10 113<0 113> 24 112<556 668> 486 113<555 668> 500 113<0 113>
DStem2: 10 0 123 0 0.580315 0.814392<65.5756 390.489 519.163 820.244> 136 668 24 668 0.581123 -0.813816<0 301.081 429.664 755.158>
LayerCount: 2
Fore
SplineSet
10 0 m 1xe4
 255 344 l 1
 24 668 l 1
 136 668 l 1
 311 423 l 1
 486 668 l 1
 599 668 l 1xd8
 368 344 l 1
 613 0 l 1
 500 0 l 1
 311 265 l 1
 123 0 l 1
 10 0 l 1xe4
EndSplineSet
EndChar

StartChar: Y
Encoding: 89 89 39
Width: 595
GlyphClass: 2
Flags: W
HStem: 0 21G<251 345> 648 20G<10 124.455 470.607 585>
VStem: 251 94<0 259>
DStem2: 113 668 10 668 0.507664 -0.861555<0 372.2> 298 345 345 259 0.506098 0.862476<0 371.702>
AnchorPoint: "Anchor-1" 298 0 basechar 0
AnchorPoint: "Anchor-0" 298 668 basechar 0
LayerCount: 2
Fore
SplineSet
251 0 m 1
 251 259 l 1
 10 668 l 1
 113 668 l 1
 298 345 l 1
 482 668 l 1
 585 668 l 1
 345 259 l 1
 345 0 l 1
 251 0 l 1
EndSplineSet
EndChar

StartChar: Z
Encoding: 90 90 40
Width: 607
GlyphClass: 2
Flags: W
HStem: 0 81<156 563> 587 81<59 438>
DStem2: 44 81 156 81 0.614372 0.789016<68.8097 641.305>
AnchorPoint: "Anchor-1" 304 0 basechar 0
AnchorPoint: "Anchor-0" 304 668 basechar 0
LayerCount: 2
Fore
SplineSet
44 0 m 1
 44 81 l 1
 438 587 l 1
 59 587 l 1
 59 668 l 1
 548 668 l 1
 548 587 l 1
 156 81 l 1
 563 81 l 1
 563 0 l 1
 44 0 l 1
EndSplineSet
EndChar

StartChar: a
Encoding: 97 97 41
Width: 526
GlyphClass: 2
Flags: W
HStem: -12 67<156.949 314.022> 0 21G<392.118 475> 239 67<241.812 373> 437 67<186.473 334.55>
VStem: 38 93<80.4681 179.158> 373 85<304.727 397.542> 380 78<119.962 239>
AnchorPoint: "Anchor-2" 475 0 basechar 0
AnchorPoint: "Anchor-1" 263 0 basechar 0
AnchorPoint: "Anchor-0" 263 496 basechar 0
LayerCount: 2
Fore
SplineSet
378 68 m 1x7a
 365.510056104 46.9941852666 324.926560285 -12 214.500389142 -12 c 0
 104.192452579 -12 38 46.8679213846 38 132.247743493 c 0
 38 231.041979729 126.626010096 279.167189219 373 306 c 1xbc
 374.98289892 368.46131599 357.257735308 437 263.632328669 437 c 0
 231.088210574 437 166.270844153 428.718798695 151 360 c 1
 70 384 l 1
 84.2865335179 424.716620526 129.888326258 504 270.002904159 504 c 0
 394.386305597 504 458 441.520094182 458 303 c 2
 458 187 l 2
 458 115.203914438 463.891797102 55.5410144839 475 0 c 1
 398 0 l 1
 378 68 l 1x7a
131 131.91092229 m 0
 131 86.9646598935 166.100142031 55 230.887220955 55 c 0
 276.715225442 55 380 70.9939297196 380 208 c 2
 380 239 l 1xba
 193.923067041 219.412954427 131 192.089800461 131 131.91092229 c 0
EndSplineSet
Substitution2: "Single Substitution lookup 12 subtable" ordfeminine
Substitution2: "'aalt' Access All Alternates lookup 0 subtable" ordfeminine
EndChar

StartChar: b
Encoding: 98 98 42
Width: 566
GlyphClass: 1
Flags: W
HStem: -12 72<221.054 366.047> 0 21G<70 137.867> 432 72<220.042 368.204> 648 20G<70 154>
VStem: 70 84<135.3 358.9 418 668> 70 62<0 23.8636> 434 94<137.526 352.652>
AnchorPoint: "Anchor-0" 315 496 basechar 0
LayerCount: 2
Fore
SplineSet
528 247.132920792 m 0x7a
 528 85.1320874585 433.373476665 -12 312.324909517 -12 c 0
 271.501247707 -12 197.672638923 -0.952415520671 154 75 c 1xba
 132 0 l 1
 70 0 l 1x76
 70 668 l 1
 154 668 l 1
 154 418 l 1
 172.989209404 450.199094208 218.648584048 504 309.678648819 504 c 0
 427.191297512 504 528 414.34198604 528 247.132920792 c 0x7a
152 252.153680006 m 0
 152 207.309631624 160.68587501 60 290.407275818 60 c 0
 377.232440855 60 434 125.993189535 434 240.868455659 c 0
 434 286.480318841 425.050417291 432 295.255284857 432 c 0
 207.559779818 432 152 365.570713199 152 252.153680006 c 0
EndSplineSet
EndChar

StartChar: c
Encoding: 99 99 43
Width: 500
GlyphClass: 2
Flags: W
HStem: -12 74<200.634 346.803> 430 74<199.202 346.763>
VStem: 38 91<142.585 353.094>
AnchorPoint: "Anchor-1" 270 0 basechar 0
AnchorPoint: "Anchor-0" 275 496 basechar 0
LayerCount: 2
Fore
SplineSet
467 99 m 1
 451.902263492 73.118165987 392.732576342 -12 268.097262385 -12 c 0
 128.168639688 -12 38 95.2884947697 38 244.421995188 c 0
 38 400.590554633 136.876321976 504 270.369522167 504 c 0
 309.964135835 504 411.311652522 494.902666001 465 392 c 1
 388 364 l 1
 382.009862659 375.231507513 348.912854406 430 277.613050768 430 c 0
 249.356502787 430 129 421.398140829 129 250.782514445 c 0
 129 125.88958481 193.492268909 62 270.934471051 62 c 0
 289.427981355 62 354.939117023 65.6434547904 390 127 c 1
 467 99 l 1
EndSplineSet
EndChar

StartChar: d
Encoding: 100 100 44
Width: 564
GlyphClass: 2
Flags: W
HStem: -12 72<197.705 345.101> 0 21G<428.133 513> 432 72<200.031 344.484> 648 20G<412 496>
VStem: 38 94<139.605 354.91> 412 84<133.158 357.466 418 668>
AnchorPoint: "Anchor-1" 282 0 basechar 0
AnchorPoint: "Anchor-0" 251 496 basechar 0
LayerCount: 2
Fore
SplineSet
412 75 m 1x7c
 382.550968515 21.4563063914 327.965002793 -12 256.21547869 -12 c 0xbc
 139.197024762 -12 38 76.9915261468 38 244.846913523 c 0
 38 408.775792676 134.517955501 504 253.948740641 504 c 0
 291.615388371 504 368.830199563 494.528282592 412 418 c 1
 412 668 l 1
 496 668 l 1
 496 187 l 2
 496 117.098474185 501.777739985 56.1113000733 513 0 c 1
 434 0 l 1
 412 75 l 1x7c
132 252.153680006 m 0
 132 207.309631624 140.68587501 60 270.407275818 60 c 0
 357.232440855 60 414 125.993189535 414 240.868455659 c 0
 414 286.480318841 405.050417291 432 275.255284857 432 c 0
 187.559779818 432 132 365.570713199 132 252.153680006 c 0
EndSplineSet
EndChar

StartChar: e
Encoding: 101 101 45
Width: 539
GlyphClass: 2
Flags: W
HStem: -12 74<203.555 365.313> 225 67<129 421> 432 72<194.231 356.051>
VStem: 38 90<137.164 225 292 360.506>
AnchorPoint: "Anchor-2" 364 0 basechar 0
AnchorPoint: "Anchor-1" 270 0 basechar 0
AnchorPoint: "Anchor-0" 281 496 basechar 0
LayerCount: 2
Fore
SplineSet
478 87 m 1
 457.904496616 54.9960501655 401.434379619 -12 280.847358575 -12 c 0
 120.048561164 -12 38 107.12794737 38 247.062692729 c 0
 38 406.892409001 145.037240176 504 276.917578312 504 c 0
 428.503410562 504 521.373949549 375.7048315 510 225 c 1
 128 225 l 1
 130.001406939 162.956384884 152.338623988 102.873998633 220.045752926 74.8239023592 c 0
 241.000543226 66.1426320921 262.751797284 62 284.876350905 62 c 0
 309.528010318 62 363.11052859 67.1430369971 397 111 c 1
 478 87 l 1
421 292 m 1
 421 354.961879421 373.111693228 432 278.203368726 432 c 0
 241.426556267 432 139.274587795 420.432347425 129 292 c 1
 421 292 l 1
EndSplineSet
EndChar

StartChar: f
Encoding: 102 102 46
Width: 311
GlyphClass: 1
Flags: W
HStem: 0 21G<99 183> 429 67<15 99 183 286> 635 71<191.215 286>
VStem: 99 84<0 429 496 628.681>
AnchorPoint: "Anchor-0" 90 668 basechar 0
LayerCount: 2
Fore
SplineSet
234 635 m 2
 192.344518474 635 183 621.310000778 183 571 c 2
 183 496 l 1
 286 496 l 1
 286 429 l 1
 183 429 l 1
 183 0 l 1
 99 0 l 1
 99 429 l 1
 15 429 l 1
 15 496 l 1
 99 496 l 1
 99 570 l 2
 99 674.869839992 124.04680021 706 232 706 c 2
 286 706 l 1
 286 635 l 1
 234 635 l 2
EndSplineSet
EndChar

StartChar: g
Encoding: 103 103 47
Width: 560
GlyphClass: 2
Flags: W
HStem: -192 74<197.46 359.49> 9 70<194.873 341.906> 432 72<197.212 340.957> 476 20G<423.103 490>
VStem: 38 91<153.825 356.617> 406 84<-67.944 94 145.018 367.343> 429 61<472.261 496>
AnchorPoint: "Anchor-1" 280 -251 basechar 0
AnchorPoint: "Anchor-0" 268 496 basechar 0
LayerCount: 2
Fore
SplineSet
490 47 m 2xdc
 490 -110.983832619 431.055072514 -192 284.54042302 -192 c 0
 221.844810821 -192 113.076746985 -177.165125104 81 -76 c 1
 165 -53 l 1
 181.012419066 -97.6060245424 220.674708056 -118 280.408186578 -118 c 0
 373.53563488 -118 406 -68.4296840796 406 28 c 2
 406 94 l 1
 380.253121466 50.3422494407 334.144213629 9 253.223023142 9 c 0
 136.633315943 9 38 94.8202943053 38 254.99369411 c 0
 38 412.428286744 133.289089128 504 251.986057839 504 c 0
 301.004937378 504 364.49231515 488.382596051 406 418 c 1xec
 429 496 l 1
 490 496 l 1xda
 490 47 l 2xdc
273.199564859 432 m 0
 188.296684818 432 129 371.539380987 129 255.063734593 c 0
 129 199.024276832 142.726126706 155.015143583 170.178380117 123.04543075 c 0
 195.392793372 93.68181025 228.300905657 79 267.740066604 79 c 0
 325.466926429 79 409 110.454308401 409 250.584891766 c 0
 409 300.721851806 398.30677766 432 273.199564859 432 c 0
EndSplineSet
EndChar

StartChar: h
Encoding: 104 104 48
Width: 546
GlyphClass: 2
Flags: W
HStem: 0 21G<70 154 394 478> 432 72<218.583 352.826> 648 20G<70 154>
VStem: 70 84<0 371.354 421 668> 394 84<0 386.944>
AnchorPoint: "Anchor-1" 273 0 basechar 0
AnchorPoint: "Anchor-0" 114 668 basechar 0
LayerCount: 2
Fore
SplineSet
272.213338743 432 m 0
 264.955684192 432 154 431.719043479 154 269 c 2
 154 0 l 1
 70 0 l 1
 70 668 l 1
 154 668 l 1
 154 421 l 1
 184.764302222 472.273837036 235.889141086 504 313.893761214 504 c 0
 384.346137299 504 478 478.119766656 478 314 c 2
 478 0 l 1
 394 0 l 1
 394 289 l 2
 394 380.406363364 370.563438459 432 272.213338743 432 c 0
EndSplineSet
EndChar

StartChar: i
Encoding: 105 105 49
Width: 278
GlyphClass: 1
Flags: W
HStem: 0 21G<114 198> 429 67<45 114> 590 125<109.301 203.702>
VStem: 94 125<605.298 700.021> 114 84<0 429>
AnchorPoint: "Anchor-2" 198 0 basechar 0
LayerCount: 2
Fore
SplineSet
219 653.025728983 m 0xf0
 219 618.006957498 190.859203494 590 156.494763221 590 c 0
 122.163614795 590 94 617.952718192 94 652.907298589 c 0
 94 687.681208098 121.873226806 715 156.480104525 715 c 0
 190.854069739 715 219 688.047694577 219 653.025728983 c 0xf0
114 0 m 1xe8
 114 429 l 1
 45 429 l 1
 45 496 l 1
 198 496 l 1
 198 0 l 1
 114 0 l 1xe8
EndSplineSet
Substitution2: "Single Substitution lookup 4 subtable" dotlessi
Substitution2: "Single Substitution lookup 3 subtable" dotlessi
EndChar

StartChar: j
Encoding: 106 106 50
Width: 254
GlyphClass: 1
Flags: W
HStem: -161 74<-58 73.0836> 476 20G<90 174> 590 125<84.2989 179.127>
VStem: 69 125<605.287 700.131> 90 84<-68.7262 496>
LayerCount: 2
Fore
SplineSet
194 652.98799905 m 0xf0
 194 617.968682201 166.975237322 590 131.984743567 590 c 0
 96.9833289879 590 69 617.986143443 69 652.986239483 c 0
 69 688.006306166 97.0152720138 715 132.005258985 715 c 0
 167.008605155 715 194 687.985689813 194 652.98799905 c 0xf0
174 7 m 2xe8
 174 -120.054288461 134.061720171 -161 -3 -161 c 1
 -58 -159 l 1
 -58 -86 l 1
 -11 -87 l 2
 75.0150571826 -87 90 -68.4558388959 90 12 c 2
 90 496 l 1
 174 496 l 1
 174 7 l 2xe8
EndSplineSet
EndChar

StartChar: k
Encoding: 107 107 51
Width: 490
GlyphClass: 2
Flags: W
HStem: 0 21G<70 154 362.59 480> 476 20G<336.063 455> 648 20G<70 154>
VStem: 70 84<0 166 273 668> 354 101<395 496> 377 103<0 103>
DStem2: 154 273 212 229 0.673898 0.738825<0 6.57778 90.1232 299.537> 268 291 212 229 0.588832 -0.808255<17.1372 299.385>
AnchorPoint: "Anchor-1" 251 0 basechar 0
AnchorPoint: "Anchor-0" 304 668 basechar 0
LayerCount: 2
Fore
SplineSet
70 0 m 1xf4
 70 668 l 1
 154 668 l 1
 154 273 l 1
 354 496 l 1
 455 496 l 1xf8
 268 291 l 1
 480 0 l 1
 377 0 l 1
 212 229 l 1
 154 166 l 1
 154 0 l 1
 70 0 l 1xf4
EndSplineSet
EndChar

StartChar: l
Encoding: 108 108 52
Width: 239
GlyphClass: 2
Flags: W
HStem: 0 74<158.555 224> 647 20G<70 154>
VStem: 70 84<78.3556 667>
AnchorPoint: "Anchor-1" 145 0 basechar 0
AnchorPoint: "Anchor-0" 117 668 basechar 0
LayerCount: 2
Fore
SplineSet
154 138 m 2
 154 87.7733509974 159.868551901 74 205 74 c 2
 224 74 l 1
 224 0 l 1
 187 0 l 2
 92.6685683986 0 70 22.4354365566 70 124 c 2
 70 667 l 1
 154 667 l 1
 154 138 l 2
EndSplineSet
EndChar

StartChar: m
Encoding: 109 109 53
Width: 841
GlyphClass: 2
Flags: W
HStem: 0 21G<70 154 380 464 689 773> 432 72<217.787 343.114 517.428 652.505> 476 20G<70 137.867>
VStem: 70 84<0 370.546> 70 62<472.136 496> 380 84<0 373.935> 689 84<0 392.2>
AnchorPoint: "Anchor-1" 421 0 basechar 0
AnchorPoint: "Anchor-0" 433 496 basechar 0
LayerCount: 2
Fore
SplineSet
280.096531391 432 m 0xd6
 235.012108249 432 154 412.846052955 154 269 c 2
 154 0 l 1
 70 0 l 1xd6
 70 496 l 1
 132 496 l 1xae
 154 421 l 1
 180.654135935 465.423559891 226.72448537 504 308.09800701 504 c 0
 334.850438048 504 413.675896641 499.830514853 446 417 c 1
 488.003596669 481.405514893 548.003963878 504 610.962666451 504 c 0
 690.681344419 504 773 467.774775529 773 314 c 2
 773 0 l 1
 689 0 l 1
 689 289 l 2
 689 385.740651457 659.160887023 432 587.926779819 432 c 0
 509.835157242 432 464 376.405422433 464 269 c 2
 464 0 l 1
 380 0 l 1
 380 289 l 2
 380 385.740651457 350.160887023 432 280.096531391 432 c 0xd6
EndSplineSet
EndChar

StartChar: n
Encoding: 110 110 54
Width: 546
GlyphClass: 2
Flags: W
HStem: 0 21G<70 154 394 478> 432 72<218.583 352.826> 476 20G<70 137.867>
VStem: 70 84<0 371.354> 70 62<472.136 496> 394 84<0 386.944>
AnchorPoint: "Anchor-1" 257 0 basechar 0
AnchorPoint: "Anchor-0" 288 496 basechar 0
LayerCount: 2
Fore
SplineSet
272.213338743 432 m 0xd4
 264.955684192 432 154 431.719043479 154 269 c 2
 154 0 l 1
 70 0 l 1xd4
 70 496 l 1
 132 496 l 1xac
 154 421 l 1
 184.764302222 472.273837036 235.889141086 504 313.893761214 504 c 0
 384.346137299 504 478 478.119766656 478 314 c 2
 478 0 l 1
 394 0 l 1
 394 289 l 2
 394 380.406363364 370.563438459 432 272.213338743 432 c 0xd4
EndSplineSet
EndChar

StartChar: o
Encoding: 111 111 55
Width: 552
GlyphClass: 2
Flags: W
HStem: -12 74<204.123 348.857> 430 74<204.448 348.337>
VStem: 38 90<145.592 350.428> 424 90<144.206 347.337>
AnchorPoint: "Anchor-2" 497 10 basechar 0
AnchorPoint: "Anchor-1" 276 0 basechar 0
AnchorPoint: "Anchor-0" 276 496 basechar 0
LayerCount: 2
Fore
SplineSet
514 247.074984369 m 0
 514 59.779034502 384.889067278 -12 276.727514557 -12 c 0
 168.545498867 -12 38 59.8061966692 38 244.782849525 c 0
 38 425.487106333 162.584735764 504 275.654325121 504 c 0
 378.670006505 504 514 438.828752678 514 247.074984369 c 0
128 248.435951172 m 0
 128 104.363010073 218.502574357 62 275.593876502 62 c 0
 328.492678018 62 424 98.3696045791 424 244.742911291 c 0
 424 385.260060281 335.981987282 430 281.506808932 430 c 0
 266.180406116 430 128 426.458570958 128 248.435951172 c 0
EndSplineSet
Substitution2: "Single Substitution lookup 12 subtable" ordmasculine
Substitution2: "'aalt' Access All Alternates lookup 0 subtable" ordmasculine
EndChar

StartChar: p
Encoding: 112 112 56
Width: 566
GlyphClass: 1
Flags: W
HStem: -161 21G<70 154> -12 72<221.778 363.673> 432 72<220.049 368.418> 476 20G<70 136.897>
VStem: 70 84<-161 75 135.3 358.9> 70 61<472.261 496> 434 94<135.714 352.477>
AnchorPoint: "Anchor-0" 306 496 basechar 0
LayerCount: 2
Fore
SplineSet
311.210035646 -12 m 0xea
 239.002165319 -12 184.763693969 21.4979235304 154 75 c 1
 154 -161 l 1
 70 -161 l 1xea
 70 496 l 1
 131 496 l 1xd6
 154 418 l 1
 172.989209404 450.199094208 218.648584048 504 309.749896889 504 c 0
 428.29262159 504 528 412.905925687 528 247.670224112 c 0
 528 89.9953680526 437.208664074 -12 311.210035646 -12 c 0xea
152 252.153680006 m 0
 152 207.309631624 160.68587501 60 290.407275818 60 c 0
 377.232440855 60 434 125.993189535 434 240.868455659 c 0
 434 286.480318841 425.050417291 432 295.255284857 432 c 0
 207.559779818 432 152 365.570713199 152 252.153680006 c 0
EndSplineSet
EndChar

StartChar: q
Encoding: 113 113 57
Width: 576
GlyphClass: 1
Flags: W
HStem: -173 79<513.612 627.15> -12 72<196.638 345.664> 432 72<199.577 344.321> 476 20G<429.103 496>
VStem: 38 93<141.242 354.214> 412 84<-75.494 75 133.158 357.466> 435 61<472.261 496>
LayerCount: 2
Fore
SplineSet
628 -159 m 1xdc
 615.372554556 -162.987614351 580.17435366 -173 541.806531883 -173 c 0
 440.629842706 -173 412 -103.375160259 412 -27 c 2
 412 75 l 1
 395.914930401 45.7544189107 351.823674769 -12 256.62052057 -12 c 0
 135.046834904 -12 38 82.1806557855 38 245.20016766 c 0
 38 404.752447551 130.962592728 504 254.795430139 504 c 0
 327.032549823 504 382.53858727 470.227049838 412 418 c 1xec
 435 496 l 1
 496 496 l 1xda
 496 -24 l 2
 496 -35.1342494279 499.165095843 -94 565.921744165 -94 c 0
 584.0340703 -94 604.666666667 -89.6666666667 628 -81 c 1
 628 -159 l 1xdc
131 252.529905593 m 0
 131 209.78868016 139.076534705 60 270.198877768 60 c 0
 357.232440855 60 414 125.993189535 414 240.868455659 c 0
 414 286.480318841 405.050417291 432 275.241743682 432 c 0
 187.621056255 432 131 365.697848401 131 252.529905593 c 0
EndSplineSet
EndChar

StartChar: r
Encoding: 114 114 58
Width: 340
GlyphClass: 2
Flags: W
HStem: 0 21G<70 154> 417 87<241.805 335> 476 20G<70 136.87>
VStem: 70 84<0 335.487> 70 61<472.148 496>
AnchorPoint: "Anchor-1" 113 0 basechar 0
AnchorPoint: "Anchor-0" 199 496 basechar 0
LayerCount: 2
Fore
SplineSet
328 417 m 2xc8
 216.047141464 417 154 363.280608458 154 213 c 2
 154 0 l 1
 70 0 l 1xd0
 70 496 l 1
 131 496 l 1xa8
 158 404 l 1
 171.043592951 426.575449339 219.404437863 504 335 504 c 1
 335 417 l 1
 328 417 l 2xc8
EndSplineSet
EndChar

StartChar: s
Encoding: 115 115 59
Width: 471
GlyphClass: 2
Flags: W
HStem: -12 71<157.832 322.794> 434 71<149.398 306.509>
VStem: 41 85<326.137 410.708> 356 85<89.6875 181.382>
DStem2: 218 299 177 231 0.980031 -0.198847<-88.2524 144.006>
AnchorPoint: "Anchor-1" 230 0 basechar 0
AnchorPoint: "Anchor-0" 240 496 basechar 0
LayerCount: 2
Fore
SplineSet
441 144.466222911 m 0
 441 24.9029422802 318.555806273 -12 242.446569089 -12 c 0
 208.659459471 -12 78.2468140098 -4.72742284819 31 112 c 1
 112 142 l 1
 126.565171288 83.7393148447 183.825835615 59 237.809097231 59 c 0
 285.604268632 59 356 78.3926640113 356 136.320680997 c 0
 356 184.061534084 308.186630307 204.562673939 246 217 c 2
 177 231 l 2
 87.4056559774 250.909854226 41 290.117413468 41 360.043740022 c 0
 41 470.91319472 157.657673507 505 230.588865558 505 c 0
 261.982089009 505 377.941319252 498.684154494 418 404 c 1
 339 375 l 1
 321.405919607 415.601723982 271.626791042 434 230.852353109 434 c 0
 221.602803663 434 126 433.053234725 126 368.439695647 c 0
 126 327.449258687 164.475889246 309.979304769 218 299 c 2
 283 286 l 2
 392.889935968 264.022012808 441 219.411918104 441 144.466222911 c 0
EndSplineSet
EndChar

StartChar: t
Encoding: 116 116 60
Width: 324
GlyphClass: 2
Flags: W
HStem: 0 74<192.555 284> 429 67<20 104 188 284>
VStem: 104 84<78.3556 429 496 621>
AnchorPoint: "Anchor-1" 183 0 basechar 0
AnchorPoint: "Anchor-0" 145 621 basechar 0
LayerCount: 2
Fore
SplineSet
188 138 m 2
 188 87.8168960269 192.743042182 74 239 74 c 2
 284 74 l 1
 284 0 l 1
 221 0 l 2
 126.668568397 0 104 22.4354365591 104 124 c 2
 104 429 l 1
 20 429 l 1
 20 496 l 1
 104 496 l 1
 104 621 l 1
 188 621 l 1
 188 496 l 1
 284 496 l 1
 284 429 l 1
 188 429 l 1
 188 138 l 2
EndSplineSet
EndChar

StartChar: u
Encoding: 117 117 61
Width: 536
GlyphClass: 2
Flags: W
HStem: -12 74<186.972 319.531> 0 21G<397.167 466> 477 20G<68 152 382 466>
VStem: 68 84<99.3054 497> 382 84<123.188 497> 403 63<0 24>
AnchorPoint: "Anchor-2" 466 0 basechar 0
AnchorPoint: "Anchor-1" 268 0 basechar 0
AnchorPoint: "Anchor-0" 267 496 basechar 0
LayerCount: 2
Fore
SplineSet
382 72 m 1x78
 352.949873115 22.199782482 306.207176606 -12 216.766788578 -12 c 0
 188.805788425 -12 68 -8.65757709921 68 180 c 2
 68 497 l 1
 152 497 l 1
 152 200 l 2
 152 115.481025425 174.793977489 62 252.764680671 62 c 0
 299.587463792 62 382 81.2864045606 382 224 c 2
 382 497 l 1
 466 497 l 1xb8
 466 0 l 1
 403 0 l 1x74
 382 72 l 1x78
EndSplineSet
EndChar

StartChar: v
Encoding: 118 118 62
Width: 441
GlyphClass: 1
Flags: W
HStem: 0 21G<169.863 271.137> 476 20G<0 97.7358 343.316 441>
DStem2: 91 496 0 496 0.336096 -0.941828<0 407.238> 221 110 264 0 0.336096 0.941828<0 406.902>
LayerCount: 2
Fore
SplineSet
177 0 m 1
 0 496 l 1
 91 496 l 1
 221 110 l 1
 350 496 l 1
 441 496 l 1
 264 0 l 1
 177 0 l 1
EndSplineSet
EndChar

StartChar: w
Encoding: 119 119 63
Width: 654
GlyphClass: 1
Flags: W
HStem: 0 21G<137.234 224.414 429.586 517.726> 399 97<235.5 419.5>
VStem: 0 90<406 496> 564 90<406 496>
DStem2: 90 496 0 496 0.277023 -0.960863<0 378.954> 185 129 219 0 0.261275 0.965265<0 297.722> 371 496 327 399 0.261275 -0.965265<82.1346 379.857> 469 129 512 0 0.275233 0.961378<0 378.973>
AnchorPoint: "Anchor-0" 327 496 basechar 0
LayerCount: 2
Fore
SplineSet
143 0 m 1
 0 496 l 1
 90 496 l 1
 185 129 l 1
 284 496 l 1
 371 496 l 1
 469 129 l 1
 564 496 l 1
 654 496 l 1
 512 0 l 1
 435 0 l 1
 327 399 l 1
 219 0 l 1
 143 0 l 1
EndSplineSet
EndChar

StartChar: x
Encoding: 120 120 64
Width: 461
GlyphClass: 1
Flags: W
HStem: 0 21G<0 113.162 347.73 461> 476 20G<9 122.186 338.698 452>
VStem: 0 99<0 99> 9 99<397 496> 353 99<397 496> 362 99<0 99>
DStem2: 0 0 99 0 0.579839 0.814731<57.4041 284.088 397.336 608.79> 108 496 9 496 0.579839 -0.814731<0 210.874 324.122 551.386>
LayerCount: 2
Fore
SplineSet
0 0 m 1xe4
 181 255 l 1
 9 496 l 1
 108 496 l 1
 230 324 l 1
 353 496 l 1
 452 496 l 1xd8
 280 255 l 1
 461 0 l 1
 362 0 l 1
 230 185 l 1
 99 0 l 1
 0 0 l 1xe4
EndSplineSet
EndChar

StartChar: y
Encoding: 121 121 65
Width: 429
GlyphClass: 2
Flags: W
HStem: -161 74<37 149.548> 475 20G<0 99.3874 330.613 429>
VStem: 0 93<402 495> 337 92<403 495>
DStem2: 179 -1 253 -22 0.322264 0.94665<-90.604 0 119.52 520.456>
AnchorPoint: "Anchor-1" 215 0 basechar 0
AnchorPoint: "Anchor-0" 220 496 basechar 0
LayerCount: 2
Fore
SplineSet
37 -161 m 1
 37 -87 l 1
 71 -87 l 2
 140.175723487 -87 156.877034948 -77.4247883659 179 -1 c 1
 0 495 l 1
 93 495 l 1
 215 113 l 1
 337 495 l 1
 429 495 l 1
 253 -22 l 2
 215.402441199 -132.703923137 186.723206404 -161 80 -161 c 2
 37 -161 l 1
EndSplineSet
EndChar

StartChar: z
Encoding: 122 122 66
Width: 460
GlyphClass: 2
Flags: W
HStem: 0 74<135 430> 422 74<49 325>
DStem2: 40 74 135 74 0.633601 0.77366<60.1921 449.81>
AnchorPoint: "Anchor-1" 230 0 basechar 0
AnchorPoint: "Anchor-0" 237 496 basechar 0
LayerCount: 2
Fore
SplineSet
40 0 m 1
 40 74 l 1
 325 422 l 1
 49 422 l 1
 49 496 l 1
 420 496 l 1
 420 422 l 1
 135 74 l 1
 430 74 l 1
 430 0 l 1
 40 0 l 1
EndSplineSet
EndChar

StartChar: circumflex
Encoding: 258 710 67
Width: 429
GlyphClass: 1
Flags: W
HStem: 575 120
VStem: 53 323
DStem2: 53 575 147 575 0.742634 0.669697<69.8076 160.416> 376 575 214 636 0.742634 -0.669697<-161.158 -69.8076>
LayerCount: 2
Fore
SplineSet
53 575 m 1
 165 676 l 2
 178.333333333 688.666666667 194.833333333 695 214.5 695 c 0
 234.166666667 695 250.666666667 688.666666667 264 676 c 2
 376 575 l 1
 282 575 l 1
 214 636 l 1
 147 575 l 1
 53 575 l 1
EndSplineSet
EndChar

StartChar: caron
Encoding: 259 711 68
Width: 429
GlyphClass: 1
Flags: W
HStem: 569 120
VStem: 53 323
DStem2: 147 689 53 689 0.742634 -0.669697<0 90.608> 214 628 264 588 0.742634 0.669697<0 91.3507>
LayerCount: 2
Fore
SplineSet
214.5 569 m 0
 194.833333333 569 178.333333333 575.333333333 165 588 c 2
 53 689 l 1
 147 689 l 1
 214 628 l 1
 282 689 l 1
 376 689 l 1
 264 588 l 2
 250.666666667 575.333333333 234.166666667 569 214.5 569 c 0
EndSplineSet
EndChar

StartChar: breve
Encoding: 260 728 69
Width: 399
GlyphClass: 1
Flags: W
HStem: 569 67<144.318 254.994>
VStem: 53 294
LayerCount: 2
Fore
SplineSet
347 689 m 1
 333.548493482 620.397316762 272.670751002 569 199.560521354 569 c 0
 126.476495269 569 67.8046022317 620.360480562 53 689 c 1
 122 689 l 1
 134.201542775 657.818279575 164.255757371 636 199.432698203 636 c 0
 234.808139332 636 264.550091947 658.06521148 278 689 c 1
 347 689 l 1
EndSplineSet
EndChar

StartChar: dotaccent
Encoding: 261 729 70
Width: 214
GlyphClass: 1
Flags: W
HStem: 590 108<63.8703 150.585>
VStem: 53 108<600.762 687.478>
LayerCount: 2
Fore
SplineSet
161 644.438180574 m 0
 161 614.192111466 137.761367938 590 107.548717183 590 c 0
 77.5358790073 590 53 613.8731786 53 644.368374261 c 0
 53 674.462489784 76.8947197117 698 107.514990611 698 c 0
 138.160830537 698 161 674.423164039 161 644.438180574 c 0
EndSplineSet
EndChar

StartChar: ring
Encoding: 262 730 71
Width: 253
GlyphClass: 1
Flags: W
HStem: 559 58<81.5109 166.428> 719 58<81.591 166.424>
VStem: 15 57<626.64 709.565> 176 57<627.332 709.753>
LayerCount: 2
Fore
SplineSet
233 667.832908815 m 0
 233 608.55468387 187.729517474 559 125.716219523 559 c 0
 62.3245690508 559 15 610.782041902 15 668.188247348 c 0
 15 725.870822928 62.781334331 777 125.649916236 777 c 0
 187.766235114 777 233 727.087089417 233 667.832908815 c 0
72 667.968501884 m 0
 72 639.700616942 94.4024282434 617 123.995826045 617 c 0
 153.64273894 617 176 639.782792302 176 668.025537713 c 0
 176 696.258122524 153.658822526 719 124.030740776 719 c 0
 94.3787946353 719 72 696.221472185 72 667.968501884 c 0
EndSplineSet
EndChar

StartChar: ogonek
Encoding: 263 731 72
Width: 263
GlyphClass: 1
Flags: W
HStem: -173 58<127.691 209.161> -20 20G<93.9842 210>
VStem: 53 70<-109.163 -34.8307>
LayerCount: 2
Fore
SplineSet
171.839636364 -115 m 0
 184.29537447 -115 196.843612346 -112.262555062 210 -107 c 1
 210 -161 l 1
 187.333333333 -169 165.904676985 -173 146.802514173 -173 c 0
 87.0742599838 -173 53 -133.892995772 53 -94.1366226129 c 0
 53 -84.581361944 54.9683303747 -18.9806763951 133 0 c 1
 210 0 l 1
 138.598886529 -26.6004148224 123 -51.8357183372 123 -74.8128540886 c 0
 123 -101.744974498 144.431023555 -115 171.839636364 -115 c 0
EndSplineSet
EndChar

StartChar: quoteleft
Encoding: 264 8216 73
Width: 235
GlyphClass: 1
Flags: W
HStem: 418 250<120 127.797>
VStem: 53 129<435.383 529.641>
DStem2: 58 507 128 546 0.359367 0.933196<61.5504 172.525>
LayerCount: 2
Fore
SplineSet
182 482.015277783 m 0
 182 445.779461312 153.100727467 418 118.144239461 418 c 0
 81.2917970629 418 53 448.874560536 53 481.794166197 c 0
 53 489.784202121 54.6666666667 498.333333333 58 507 c 2
 120 668 l 1
 175 668 l 1
 128 546 l 1
 158.682715237 540.66387561 182 514.563973052 182 482.015277783 c 0
EndSplineSet
EndChar

StartChar: quoteright
Encoding: 265 8217 74
Width: 235
GlyphClass: 1
Flags: W
HStem: 429 251<107.527 115>
VStem: 53 129<568.219 663.006>
DStem2: 60 429 115 429 0.357433 0.933939<19.6588 131.674>
LayerCount: 2
Fore
SplineSet
117.417707942 680 m 0
 153.81275976 680 182 650.152310808 182 616.487984515 c 0
 182 608.302054564 180.333333333 599.666666667 177 591 c 2
 115 429 l 1
 60 429 l 1
 107 552 l 1
 76.3742081279 557.326224674 53 582.404141209 53 614.966716088 c 0
 53 650.918171854 81.4926202358 680 117.417707942 680 c 0
EndSplineSet
EndChar

StartChar: quotesinglbase
Encoding: 266 8218 75
Width: 235
GlyphClass: 1
Flags: W
HStem: -134 251<107.527 115>
VStem: 53 129<5.21875 100.006>
DStem2: 60 -134 115 -134 0.357433 0.933939<19.6588 131.674>
LayerCount: 2
Fore
SplineSet
117.417707941 117 m 0
 153.81275976 117 182 87.1523108078 182 53.4879845145 c 0
 182 45.302054564 180.333333333 36.6666666667 177 28 c 2
 115 -134 l 1
 60 -134 l 1
 107 -11 l 1
 76.3742081297 -5.67377532689 53 19.4041412079 53 51.9667160885 c 0
 53 87.9181718544 81.4926202358 117 117.417707941 117 c 0
EndSplineSet
EndChar

StartChar: quotedblleft
Encoding: 267 8220 76
Width: 398
GlyphClass: 1
Flags: W
HStem: 418 250<120 127.947 283 290.947>
VStem: 53 129<434.324 529.344> 216 129<434.324 529.344>
DStem2: 61 515 128 546 0.359796 0.933031<53.0303 163.982> 224 515 291 546 0.359796 0.933031<53.0303 163.982>
LayerCount: 2
Fore
SplineSet
182 482.043222073 m 0
 182 445.77971263 153.006776257 418 118.374290413 418 c 0
 86.0968152506 418 53 442.130122645 53 479.964478722 c 0
 53 490.799490126 55.7143900673 501.785975168 61 515 c 2
 120 668 l 1
 175 668 l 1
 128 546 l 1
 158.682715237 540.66387561 182 514.563973052 182 482.043222073 c 0
345 482.043222073 m 0
 345 445.77971263 316.006776257 418 281.374290413 418 c 0
 249.096815251 418 216 442.130122645 216 479.964478722 c 0
 216 490.799490129 218.714390069 501.785975173 224 515 c 2
 283 668 l 1
 338 668 l 1
 291 546 l 1
 321.682715237 540.66387561 345 514.563973052 345 482.043222073 c 0
EndSplineSet
EndChar

StartChar: quotedblright
Encoding: 268 8221 77
Width: 398
GlyphClass: 1
Flags: W
HStem: 429 251<107.527 115 270.947 279>
VStem: 53 129<568.219 663.006> 216 129<568.219 663.237>
DStem2: 60 429 115 429 0.357433 0.933939<19.6588 131.674> 223 429 279 429 0.352389 0.935854<19.7338 131.672>
LayerCount: 2
Fore
SplineSet
117.417707942 680 m 0
 153.81275976 680 182 650.152310808 182 616.487984515 c 0
 182 608.302054564 180.333333333 599.666666667 177 591 c 2
 115 429 l 1
 60 429 l 1
 107 552 l 1
 76.3742081279 557.326224674 53 582.404141209 53 614.966716088 c 0
 53 650.918171854 81.4926202358 680 117.417707942 680 c 0
280.941050928 680 m 0
 318.045698273 680 345 649.964802214 345 616.641725661 c 0
 345 608.355525443 343.333333333 599.666666667 340 591 c 2
 279 429 l 1
 223 429 l 1
 270 552 l 1
 239.374208127 557.326224674 216 582.404141209 216 615.074361189 c 0
 216 651.228647013 244.62545269 680 280.941050928 680 c 0
EndSplineSet
EndChar

StartChar: quotedblbase
Encoding: 269 8222 78
Width: 398
GlyphClass: 1
Flags: W
HStem: -134 251<107.527 115 270.947 279>
VStem: 53 129<5.21875 100.006> 216 129<5.21875 100.237>
DStem2: 60 -134 115 -134 0.357433 0.933939<19.6588 131.674> 223 -134 279 -134 0.352389 0.935854<19.7338 131.672>
LayerCount: 2
Fore
SplineSet
117.417707941 117 m 0
 153.81275976 117 182 87.1523108078 182 53.4879845145 c 0
 182 45.302054564 180.333333333 36.6666666667 177 28 c 2
 115 -134 l 1
 60 -134 l 1
 107 -11 l 1
 76.3742081297 -5.67377532689 53 19.4041412079 53 51.9667160885 c 0
 53 87.9181718544 81.4926202358 117 117.417707941 117 c 0
280.941050928 117 m 0
 318.045698273 117 345 86.9648022137 345 53.6417256613 c 0
 345 45.355525443 343.333333333 36.6666666667 340 28 c 2
 279 -134 l 1
 223 -134 l 1
 270 -11 l 1
 239.374208129 -5.67377532667 216 19.4041412083 216 52.0743611888 c 0
 216 88.2286470125 244.625452691 117 280.941050928 117 c 0
EndSplineSet
EndChar

StartChar: dagger
Encoding: 270 8224 79
Width: 541
GlyphClass: 1
Flags: W
HStem: 0 21G<230 311> 416 80<40 230 311 501> 648 20G<230 311>
VStem: 230 81<0 416 496 668>
LayerCount: 2
Fore
SplineSet
230 0 m 1
 230 416 l 1
 40 416 l 1
 40 496 l 1
 230 496 l 1
 230 668 l 1
 311 668 l 1
 311 496 l 1
 501 496 l 1
 501 416 l 1
 311 416 l 1
 311 0 l 1
 230 0 l 1
EndSplineSet
EndChar

StartChar: daggerdbl
Encoding: 271 8225 80
Width: 541
GlyphClass: 1
Flags: W
HStem: 0 21G<230 311> 172 79<40 230 311 501> 416 80<40 230 311 501> 648 20G<230 311>
VStem: 230 81<0 172 251 416 496 668>
LayerCount: 2
Fore
SplineSet
230 0 m 1
 230 172 l 1
 40 172 l 1
 40 251 l 1
 230 251 l 1
 230 416 l 1
 40 416 l 1
 40 496 l 1
 230 496 l 1
 230 668 l 1
 311 668 l 1
 311 496 l 1
 501 496 l 1
 501 416 l 1
 311 416 l 1
 311 251 l 1
 501 251 l 1
 501 172 l 1
 311 172 l 1
 311 0 l 1
 230 0 l 1
EndSplineSet
EndChar

StartChar: bullet
Encoding: 272 8226 81
Width: 438
GlyphClass: 1
Flags: W
HStem: 88 332<138.938 299.387>
VStem: 53 332<173.018 333.57>
LayerCount: 2
Fore
SplineSet
385 254.805152921 m 0
 385 165.474002728 313.510253539 88 219.021909242 88 c 0
 125.190410728 88 53 164.400609092 53 254.085677802 c 0
 53 343.923384186 125.436345828 420 218.558952056 420 c 0
 310.344035745 420 385 346.093070868 385 254.805152921 c 0
EndSplineSet
EndChar

StartChar: ellipsis
Encoding: 273 8230 82
Width: 696
GlyphClass: 1
Flags: W
HStem: -12 129<69.8518 165.276 300.397 396.281 530.852 626.276>
VStem: 53 129<4.72814 100.146> 284 129<4.72382 100.14> 514 129<4.7282 100.155>
LayerCount: 2
Fore
SplineSet
643 52.4457898046 m 0
 643 16.8143934279 614.19524446 -12 578.562621115 -12 c 0
 543.132894687 -12 514 16.4871816714 514 52.5119529294 c 0
 514 88.5284950498 543.119586555 117 578.6135829 117 c 0
 614.507257556 117 643 87.8836811097 643 52.4457898046 c 0
182 52.4498288895 m 0
 182 16.8130399839 153.195108473 -12 117.562970556 -12 c 0
 82.132894687 -12 53 16.4871816716 53 52.3818431795 c 0
 53 87.8768561698 81.4877791189 117 117.510018339 117 c 0
 153.53166343 117 182 87.8778168401 182 52.4498288895 c 0
413 52.4288020223 m 0
 413 16.8068777968 384.352537845 -12 348.07839252 -12 c 0
 311.97674144 -12 284 16.533558824 284 52.4787530449 c 0
 284 88.1915545151 311.616160562 117 348.039716035 117 c 0
 384.681193122 117 413 87.8458022458 413 52.4288020223 c 0
EndSplineSet
EndChar

StartChar: perthousand
Encoding: 274 8240 83
Width: 1328
GlyphClass: 1
Flags: W
HStem: -12 74<642.584 771.035 1043.58 1172.04> 0 21G<186 288.012> 277 74<644.161 770.776 1045.16 1171.78> 316 75<156.414 283.565> 605 75<156.104 283.247> 648 20G<639.988 742>
VStem: 38 74<434.422 561.187> 186 88<0 88> 327 74<435.08 561.36> 526 74<105.197 233.199> 654 88<580 668> 815 74<105.907 233.49> 927 74<105.197 233.199> 1216 74<105.907 233.49>
DStem2: 186 0 274 0 0.573791 0.819001<50.4936 815.627>
LayerCount: 2
Fore
SplineSet
401 498.331179109 m 0x1bfc
 401 399.164029626 322.093682244 316 219.900301376 316 c 0
 119.306269632 316 38 396.58132785 38 497.703328344 c 0
 38 598.087025737 118.123351322 680 219.56286301 680 c 0
 320.906742318 680 401 598.241400299 401 498.331179109 c 0x1bfc
186 0 m 1x47fc
 654 668 l 1
 742 668 l 1
 274 0 l 1
 186 0 l 1x47fc
112 498.019861059 m 0
 112 438.765984178 160.692395691 391 219.989032918 391 c 0
 279.266101858 391 327 438.734463192 327 498.000107136 c 0
 327 557.266101858 279.265536808 605 219.987035257 605 c 0x1bfc
 160.725953959 605 112 557.294152985 112 498.019861059 c 0
889 169.926314313 m 0
 889 68.6023735811 807.86829622 -12 707.950371487 -12 c 0
 609.897962064 -12 526 65.6207009819 526 169.12339818 c 0
 526 271.656457841 608.333373705 351 707.512528978 351 c 0xa3fc
 806.358469821 351 889 272.188706783 889 169.926314313 c 0
1290 169.926314318 m 0
 1290 68.6023735857 1208.86829622 -12 1108.95037149 -12 c 0
 1010.89796206 -12 927 65.6207009815 927 169.123398182 c 0
 927 271.656457842 1009.3333737 351 1108.51252898 351 c 0
 1207.35846983 351 1290 272.188706783 1290 169.926314318 c 0
600 169.449392347 m 0
 600 109.586911335 647.578001507 62 707.437261041 62 c 0
 767.085511167 62 815 109.252006165 815 169.382000122 c 0
 815 229.095219398 767.747421729 277 707.489285242 277 c 0
 647.229114891 277 600 229.091985529 600 169.449392347 c 0
1001 169.44939234 m 0
 1001 109.586911322 1048.57800151 62 1108.43726104 62 c 0
 1168.08551116 62 1216 109.252006168 1216 169.382000125 c 0
 1216 229.0952194 1168.74742173 277 1108.48928524 277 c 0
 1048.22911489 277 1001 229.091985528 1001 169.44939234 c 0
EndSplineSet
EndChar

StartChar: guilsinglleft
Encoding: 275 8249 84
Width: 353
GlyphClass: 1
Flags: W
VStem: 201 99<40 139 362 461>
DStem2: 53 250 151 250 0.576835 0.816861<56.5298 257.729> 151 250 53 250 0.578664 -0.815566<0 200.202>
LayerCount: 2
Fore
SplineSet
201 40 m 1
 53 250 l 1
 201 461 l 1
 300 461 l 1
 151 250 l 1
 300 40 l 1
 201 40 l 1
EndSplineSet
EndChar

StartChar: guilsinglright
Encoding: 276 8250 85
Width: 353
GlyphClass: 1
Flags: W
VStem: 53 100<40 140 361 461>
DStem2: 153 461 53 461 0.576835 -0.816861<0 200.623> 53 40 153 40 0.578664 0.815566<57.8664 257.49>
LayerCount: 2
Fore
SplineSet
53 40 m 1
 202 250 l 1
 53 461 l 1
 153 461 l 1
 300 250 l 1
 153 40 l 1
 53 40 l 1
EndSplineSet
EndChar

StartChar: fraction
Encoding: 277 8260 86
Width: 586
GlyphClass: 1
Flags: W
HStem: 0 21G<15 117.012> 648 20G<468.988 571>
VStem: 15 88<0 88> 483 88<580 668>
DStem2: 15 0 103 0 0.573791 0.819001<50.4936 815.627>
LayerCount: 2
Fore
SplineSet
15 0 m 1
 483 668 l 1
 571 668 l 1
 103 0 l 1
 15 0 l 1
EndSplineSet
EndChar

StartChar: ordfeminine
Encoding: 170 170 87
Width: 371
GlyphClass: 1
Flags: W
HStem: 397 51<126.481 223.746> 527 49<134.493 239> 643 49<135.219 231.405>
VStem: 53 70<452.651 510.939> 239 68<463.025 530 578 636.859> 260 58<403 425.75>
LayerCount: 2
Fore
SplineSet
248 442 m 1xf4
 241.281474093 429.079757872 217.757887668 397 154.679048792 397 c 0
 91.5631485492 397 53 429.117465254 53 478.972772674 c 0
 53 531.617181832 95.9985885499 564.799874536 222 576 c 2
 239 578 l 1
 239 622.358888279 229.333658559 643 186.913721286 643 c 0
 155.554359378 643 135.505137559 631.719522726 129 607 c 1
 68 625 l 1
 73.0701481797 638.827676854 98.3582457659 692 188.535650291 692 c 0
 257.547183768 692 307 660.858930173 307 573 c 2
 307 491 l 2xf8
 307 466.249999991 311.018144982 443.145666349 318 403 c 1
 260 403 l 1
 248 442 l 1xf4
123 483.426952291 m 0
 123 460.759985632 142.041166126 448 170.732781462 448 c 0
 189.99588803 448 239 453.751655166 239 519 c 2
 239 530 l 1
 217 527 l 2
 144.111490931 517.373215783 123 507.294405911 123 483.426952291 c 0
EndSplineSet
EndChar

StartChar: guillemotleft
Encoding: 171 171 88
Width: 562
GlyphClass: 1
Flags: W
VStem: 201 99<40 139 362 461> 409 100<40 140 361 461>
DStem2: 53 251 151 251 0.578664 0.815566<56.709 256.911> 151 251 53 251 0.576835 -0.816861<0 201.199> 262 251 359 251 0.581238 0.813733<56.3801 256.326> 359 251 262 251 0.57941 -0.815036<0 200.943>
LayerCount: 2
Fore
SplineSet
409 40 m 1
 262 251 l 1
 409 461 l 1
 509 461 l 1
 359 251 l 1
 509 40 l 1
 409 40 l 1
201 40 m 1
 53 251 l 1
 201 461 l 1
 300 461 l 1
 151 251 l 1
 300 40 l 1
 201 40 l 1
EndSplineSet
EndChar

StartChar: logicalnot
Encoding: 172 172 89
Width: 602
GlyphClass: 1
Flags: W
HStem: 317 79<53 468>
VStem: 468 81<90 317>
LayerCount: 2
Fore
SplineSet
468 90 m 1
 468 317 l 1
 53 317 l 1
 53 396 l 1
 549 396 l 1
 549 90 l 1
 468 90 l 1
EndSplineSet
EndChar

StartChar: registered
Encoding: 174 174 90
Width: 798
GlyphClass: 1
Flags: W
HStem: -12 61<294.386 503.663> 301 58<340 382> 469 61<340 460.223> 619 61<294.948 502.758>
VStem: 53 62<227.891 440.857> 264 76<162 301 359 469> 474 76<371.392 454.636> 484 86<162 248> 683 62<224.001 437.061>
DStem2: 462 311 382 301 0.586879 -0.809675<0 133.553>
LayerCount: 2
Fore
SplineSet
745 334.614572123 m 0xfc80
 745 144.999656047 591.873639884 -12 399.17243491 -12 c 0
 207.824471445 -12 53 142.802342771 53 333.212885791 c 0
 53 521.236677 203.96742014 680 398.115503187 680 c 0
 589.530917889 680 745 525.674467582 745 334.614572123 c 0xfc80
115 334.261567225 m 0
 115 181.241925261 236.811765627 49 398.85944363 49 c 0
 559.752053842 49 683 179.363416431 683 333.106747803 c 0
 683 487.965180071 557.957734725 619 399.67734246 619 c 0
 243.50177834 619 115 491.427035667 115 334.261567225 c 0
550 418.27212258 m 0xfe80
 550 364.009823323 525.004671664 329.238194429 462 311 c 1
 570 162 l 1
 484 162 l 1xfd80
 382 301 l 1
 340 301 l 1
 340 162 l 1
 264 162 l 1
 264 530 l 1
 376 530 l 2
 474.995557607 530 550 512.268748068 550 418.27212258 c 0xfe80
474 413.30509822 m 0xfe80
 474 456.546972483 439.784002831 469 388 469 c 2
 340 469 l 1
 340 359 l 1
 393 359 l 2
 458.656385277 359 474 384.348085866 474 413.30509822 c 0xfe80
EndSplineSet
EndChar

StartChar: macron
Encoding: 175 175 91
Width: 382
GlyphClass: 1
Flags: W
HStem: 601 67<53 329>
VStem: 53 276<601 668>
LayerCount: 2
Fore
SplineSet
53 601 m 1
 53 668 l 1
 329 668 l 1
 329 601 l 1
 53 601 l 1
EndSplineSet
EndChar

StartChar: degree
Encoding: 176 176 92
Width: 352
GlyphClass: 1
Flags: W
HStem: 408 63<125.459 227.418> 617 63<123.865 228.853>
VStem: 40 63<493.23 595.096> 249 63<492.353 595.433>
LayerCount: 2
Fore
SplineSet
312 544.79494352 m 0
 312 471.426891748 252.98487238 408 176.420543974 408 c 0
 101.511186383 408 40 468.714527521 40 544.102152063 c 0
 40 619.736658172 101.914723275 680 176.049286661 680 c 0
 250.039059696 680 312 619.971825929 312 544.79494352 c 0
103 544.45047693 m 0
 103 503.459814557 135.432652179 471 176.428088055 471 c 0
 217.211567359 471 249 503.125031671 249 544.517420252 c 0
 249 585.926157352 217.186451802 617 176.373847715 617 c 0
 135.111669688 617 103 585.23779483 103 544.45047693 c 0
EndSplineSet
EndChar

StartChar: plusminus
Encoding: 177 177 93
Width: 579
GlyphClass: 1
Flags: W
HStem: 0 79<53 526> 270 79<53 250 329 526> 476 20G<250 329>
VStem: 250 79<124 270 349 496>
LayerCount: 2
Fore
SplineSet
250 124 m 1
 250 270 l 1
 53 270 l 1
 53 349 l 1
 250 349 l 1
 250 496 l 1
 329 496 l 1
 329 349 l 1
 526 349 l 1
 526 270 l 1
 329 270 l 1
 329 124 l 1
 250 124 l 1
53 0 m 1
 53 79 l 1
 526 79 l 1
 526 0 l 1
 53 0 l 1
EndSplineSet
EndChar

StartChar: uni00B2
Encoding: 178 178 94
Width: 382
GlyphClass: 1
Flags: W
HStem: 403 58<134 329> 677 21G<65 132.325> 736 50<144.55 240.802>
VStem: 65 64<693.031 720.41> 250 70<622.191 726.222>
LayerCount: 2
Fore
SplineSet
320 688.216574422 m 0
 320 614.279345989 253.561830884 542.519430148 134 461 c 1
 329 461 l 1
 329 403 l 1
 53 403 l 1
 53 458 l 1
 181.05725811 559.610650458 250 623.603972868 250 682.5754899 c 0
 250 717.87062313 225.303602735 736 194.484515908 736 c 0
 177.043081959 736 135.649198716 730.193589723 129 677 c 1
 65 695 l 1
 71.9476773886 721.527495484 98.8316787594 786 190.507899723 786 c 0
 212.270587253 786 320 782.366826073 320 688.216574422 c 0
EndSplineSet
EndChar

StartChar: uni00B3
Encoding: 179 179 95
Width: 383
GlyphClass: 1
Flags: W
HStem: 397 51<135.546 244.561> 484 20G<53 121.284> 572 54<151 239.655> 736 50<135.793 241.964>
VStem: 58 61<698.934 718.38> 252 69<639.851 724.805> 261 69<465.201 556.437>
LayerCount: 2
Fore
SplineSet
330 509.724425928 m 0xfa
 330 435.556639432 263.399186593 397 191.356729179 397 c 0
 159.737114886 397 80.9064248015 404.427373659 53 486 c 1
 115 504 l 1
 127.568403452 467.865840075 151.584933155 448 188.697296744 448 c 0
 225.475534665 448 261 467.50974272 261 511.243440005 c 0xfa
 261 539.634477899 246.028762501 572 176 572 c 2
 151 572 l 1
 151 626 l 1
 172 626 l 2
 209.176157477 626 252 636.270449605 252 681.923136626 c 0
 252 719.138649469 223.542223711 736 188.754860949 736 c 0
 153.146446592 736 129.666666667 718.333333333 119 683 c 1
 58 701 l 1
 64.9572416912 722.406897512 93.8354211636 786 190.162014718 786 c 0
 257.583092211 786 321 754.846346422 321 687.935204749 c 0xfc
 321 648.461190644 298.928555065 618.136637426 268 602 c 1
 305.646653129 587.427102015 330 554.57364429 330 509.724425928 c 0xfa
EndSplineSet
EndChar

StartChar: acute
Encoding: 180 180 96
Width: 268
GlyphClass: 1
Flags: W
HStem: 571 136<140.732 147.929>
VStem: 53 162
LayerCount: 2
Fore
SplineSet
177.867488475 707 m 0
 198.649176413 707 215 691.144470368 215 655.207880362 c 1
 215 655.207880362 215 646.818181818 141.226276025 586.457862201 c 0
 130.365841972 577.572052522 125 573 123 571 c 2
 53 571 l 1
 53.8991238848 572.198831847 129.493713331 672.286721561 143.030375606 688.212206593 c 0
 154.121237551 701.260279472 165.36386706 707 177.867488475 707 c 0
EndSplineSet
EndChar

StartChar: uni03BC
Encoding: 278 956 97
Width: 538
GlyphClass: 1
Flags: W
HStem: -162 21G<70 154> -12 74<188.049 328.477> 0 21G<399.167 468> 477 20G<70 154 384 468>
VStem: 70 84<-162 41 97.4135 497> 384 84<120.543 497> 405 63<0 24>
LayerCount: 2
Fore
SplineSet
259.572652349 -12 m 0xdc
 211.760935739 -12 179.495007089 7.453938042 154 41 c 1
 154 -162 l 1
 70 -162 l 1
 70 497 l 1
 154 497 l 1
 154 191 l 2
 154 91.9897121325 194.470463054 62 253.96099336 62 c 0
 303.950686768 62 384 83.1756896249 384 224 c 2
 384 497 l 1
 468 497 l 1xdc
 468 0 l 1
 405 0 l 1xba
 384 72 l 1
 357.246734176 26.1372585879 326.515673501 -12 259.572652349 -12 c 0xdc
EndSplineSet
EndChar

StartChar: paragraph
Encoding: 182 182 98
Width: 508
GlyphClass: 1
Flags: W
HStem: -161 21G<187 268 362 443> 601 67<268 362 443 483>
VStem: 38 230<391.16 564.722> 187 81<-161 299.213> 362 81<-161 601>
LayerCount: 2
Fore
SplineSet
38 478.416455528 m 0xe8
 38 583.114270215 121.884533571 668 227 668 c 2
 483 668 l 1
 483 601 l 1
 443 601 l 1
 443 -161 l 1
 362 -161 l 1
 362 601 l 1
 268 601 l 1
 268 -161 l 1
 187 -161 l 1
 187 294 l 1xd8
 103.328481718 311.92961106 38 386.021565602 38 478.416455528 c 0xe8
EndSplineSet
EndChar

StartChar: periodcentered
Encoding: 183 183 99
Width: 235
GlyphClass: 1
Flags: W
HStem: 183 129<69.6108 165.146>
VStem: 53 129<199.839 295.149>
LayerCount: 2
Fore
SplineSet
182 247.554290333 m 0
 182 211.793943632 153.195499089 183 117.439079454 183 c 0
 81.4812567792 183 53 212.119229004 53 247.486255376 c 0
 53 282.855022365 81.484060307 312 117.383702351 312 c 0
 152.876258142 312 182 283.512257359 182 247.554290333 c 0
EndSplineSet
EndChar

StartChar: cedilla
Encoding: 184 184 100
Width: 291
GlyphClass: 1
Flags: W
HStem: -181 41<81.4811 191.621> -81 40<130.734 194.548>
VStem: 196 62<-134.082 -82.9486>
DStem2: 104 -57 159 -45 0.528136 0.84916<39.2374 96.566>
LayerCount: 2
Fore
SplineSet
258 -102.114965436 m 0
 258 -140.00807441 225.685602874 -181 161.223115194 -181 c 0
 135.484270876 -181 108.008346977 -174.464748838 73 -161 c 1
 87 -126 l 1
 115.468851022 -137.722468069 133.376862315 -140 145.414283416 -140 c 0
 179.612702707 -140 196 -121.617285901 196 -105.496192783 c 0
 196 -91.8205306915 184.207250258 -81 161.684825075 -81 c 0
 136.985788775 -81 120.299669903 -94.0130252425 107.187889562 -81.7753635904 c 0
 102.992557998 -77.8597207978 101 -73.0733295485 101 -67.2199886452 c 0
 101 -63.0733295485 102 -59.6666666667 104 -57 c 2
 155 25 l 1
 189 4 l 1
 159 -45 l 1
 170.605911711 -42.0985220721 180.287311915 -41 189.292940511 -41 c 0
 236.53744246 -41 258 -71.233141254 258 -102.114965436 c 0
EndSplineSet
EndChar

StartChar: uni00B9
Encoding: 185 185 101
Width: 256
GlyphClass: 1
Flags: W
HStem: 683 47<53 128.855>
VStem: 136 67<403 683> 147 56<748.748 779>
LayerCount: 2
Fore
SplineSet
53 730 m 1xc0
 99.2391598651 730 134.234331889 743.256129291 147 779 c 1
 203 779 l 1xa0
 203 403 l 1
 136 403 l 1
 136 683 l 1
 53 683 l 1
 53 730 l 1xc0
EndSplineSet
EndChar

StartChar: ordmasculine
Encoding: 186 186 102
Width: 381
GlyphClass: 1
Flags: W
HStem: 398 54<148.09 241.769> 638 54<148.353 240.973>
VStem: 57 69<472.751 616.253> 263 69<473.609 616.487>
LayerCount: 2
Fore
SplineSet
332 545.788039038 m 0
 332 437.693909719 257.534152822 398 199.036437285 398 c 0
 179.788576297 398 57 402.297451776 57 542.853450428 c 0
 57 652.969657598 132.363607994 692 194.281447978 692 c 0
 252.537026017 692 332 657.450179291 332 545.788039038 c 0
126 548.689847352 m 0
 126 530.903729424 128.817742989 452 192.784402928 452 c 0
 233.308740085 452 263 483.668101053 263 541.179222405 c 0
 263 558.065716483 260.440212348 638 196.089975445 638 c 0
 155.571940264 638 126 606.309467205 126 548.689847352 c 0
EndSplineSet
EndChar

StartChar: guillemotright
Encoding: 187 187 103
Width: 562
GlyphClass: 1
Flags: W
VStem: 53 100<40 140 361 461> 262 99<40 139 362 461>
DStem2: 153 461 53 461 0.578664 -0.815566<0 199.623> 53 40 153 40 0.576835 0.816861<57.6835 258.306> 361 461 262 461 0.578664 -0.815566<0 200.202> 262 40 361 40 0.576835 0.816861<57.1067 258.306>
LayerCount: 2
Fore
SplineSet
262 40 m 1
 411 251 l 1
 262 461 l 1
 361 461 l 1
 509 251 l 1
 361 40 l 1
 262 40 l 1
53 40 m 1
 202 251 l 1
 53 461 l 1
 153 461 l 1
 300 251 l 1
 153 40 l 1
 53 40 l 1
EndSplineSet
EndChar

StartChar: onequarter
Encoding: 188 188 104
Width: 826
GlyphClass: 1
Flags: W
HStem: 0 21G<115 217.982 640 708> 86 57<528 640 708 773> 571 48<53 128.855> 648 20G<140.617 204 568.988 671>
VStem: 115 89<0 89> 136 68<292 571> 147 57<637.748 668> 583 88<580 668> 640 68<0 86 143 289>
DStem2: 115 0 204 0 0.573791 0.819001<51.0674 815.627> 455 140 528 143 0.618997 0.785394<47.5429 231.538>
LayerCount: 2
Fore
SplineSet
115 0 m 1xf9
 583 668 l 1
 671 668 l 1
 204 0 l 1
 115 0 l 1xf9
53 619 m 1
 99.2391598651 619 134.234331889 632.256129291 147 668 c 1
 204 668 l 1xf2
 204 292 l 1
 136 292 l 1
 136 571 l 1xf4
 53 571 l 1
 53 619 l 1
640 0 m 1xf080
 640 86 l 1
 455 86 l 1
 455 140 l 1
 641 376 l 1
 708 376 l 1
 708 143 l 1
 773 143 l 1
 773 86 l 1
 708 86 l 1
 708 0 l 1
 640 0 l 1xf080
528 143 m 1
 640 143 l 1
 640 289 l 1
 528 143 l 1
EndSplineSet
Ligature2: "'frac' Diagonal Fractions lookup 10 subtable" one slash four
EndChar

StartChar: onehalf
Encoding: 189 189 105
Width: 812
GlyphClass: 1
Flags: W
HStem: 0 58<565 759> 332 50<575.892 671.007> 571 48<53 128.855> 648 20G<140.617 203 568.988 671>
VStem: 115 88<0 88> 136 67<292 571> 147 56<637.748 668> 495 64<289.922 315.828> 583 88<580 668> 681 70<219.53 322.558>
DStem2: 115 0 203 0 0.573791 0.819001<50.4936 815.627>
LayerCount: 2
Fore
SplineSet
115 0 m 1xf9c0
 583 668 l 1
 671 668 l 1
 203 0 l 1
 115 0 l 1xf9c0
53 619 m 1
 99.2391598651 619 134.234331889 632.256129291 147 668 c 1
 203 668 l 1xf3c0
 203 292 l 1
 136 292 l 1
 136 571 l 1xf5c0
 53 571 l 1
 53 619 l 1
751 282.173449395 m 0
 751 209.787611213 683.737886137 137.608355478 565 58 c 1
 759 58 l 1
 759 0 l 1
 484 0 l 1
 484 54 l 1
 611.772094701 156.773206607 681 219.739191452 681 278.636304015 c 0
 681 313.778320779 656.353994212 332 625.289402837 332 c 0
 606.760949954 332 567.205875943 325.517606039 559 273 c 1
 495 292 l 1
 509.684158151 346.7318622 557.244674439 382 627.302742005 382 c 0
 697.155552987 382 751 346.938217109 751 282.173449395 c 0
EndSplineSet
Ligature2: "'frac' Diagonal Fractions lookup 10 subtable" one slash two
EndChar

StartChar: threequarters
Encoding: 190 190 106
Width: 868
GlyphClass: 1
Flags: W
HStem: 0 21G<157 259.042 682 751> 86 57<570 682 751 815> 291 51<135.111 244.511> 466 53<151 239.159> 629 51<136.315 240.55> 648 20G<611.958 714>
VStem: 58 61<591.934 611.22> 157 88<0 88> 252 69<532.752 617.746> 261 69<358.113 450.632> 626 88<580 668> 682 69<0 86 143 289>
DStem2: 157 0 245 0 0.574613 0.818425<50.5659 816.202> 497 140 570 143 0.618997 0.785394<47.5429 231.538>
LayerCount: 2
Fore
SplineSet
330 404.871472042 m 0xfb40
 330 329.415627832 263.23801728 291 191.347777578 291 c 0
 159.737114886 291 80.9064248015 298.427373659 53 380 c 1
 115 398 l 1
 129.281843977 355.154468066 157.484865171 342 188.181299834 342 c 0
 225.497619068 342 261 361.439944409 261 406.023742955 c 0xfb40
 261 448.142414921 229.315075077 466 170 466 c 2
 151 466 l 1
 151 519 l 1
 169 519 l 2
 224.333333333 519 252 537.938736555 252 574.280641974 c 0
 252 611.091500601 223.614709359 629 189.281740353 629 c 0
 163.647895213 629 132.765418555 619.016932988 119 576 c 1
 58 594 l 1
 64.7332222659 614.717606972 93.7220233674 680 190.811226249 680 c 0
 258.932582289 680 321 647.861858103 321 581.291441986 c 0xfb80
 321 561.496665432 315.512148622 519.788947108 268 495 c 1
 284.336973797 489.203009298 330 467.275211412 330 404.871472042 c 0xfb40
157 0 m 1
 626 668 l 1
 714 668 l 1xf720
 245 0 l 1
 157 0 l 1
682 0 m 1xf310
 682 86 l 1
 497 86 l 1
 497 140 l 1
 683 376 l 1
 751 376 l 1
 751 143 l 1
 815 143 l 1
 815 86 l 1
 751 86 l 1
 751 0 l 1
 682 0 l 1xf310
570 143 m 1
 682 143 l 1
 682 289 l 1
 570 143 l 1
EndSplineSet
Ligature2: "'frac' Diagonal Fractions lookup 10 subtable" three slash four
EndChar

StartChar: less
Encoding: 60 60 107
Width: 553
GlyphClass: 1
Flags: W
HStem: 0 21G<468.587 513> 476 20G<468.587 513>
VStem: 40 105<160.5 335.5>
DStem2: 145 248 40 213 0.911813 -0.410605<0 400.423>
LayerCount: 2
Fore
SplineSet
513 0 m 1
 40 213 l 1
 40 283 l 1
 513 496 l 1
 513 406 l 1
 145 248 l 1
 513 90 l 1
 513 0 l 1
EndSplineSet
EndChar

StartChar: equal
Encoding: 61 61 108
Width: 602
GlyphClass: 1
Flags: W
HStem: 121 79<53 549> 307 79<53 549>
LayerCount: 2
Fore
SplineSet
53 307 m 1
 53 386 l 1
 549 386 l 1
 549 307 l 1
 53 307 l 1
53 121 m 1
 53 200 l 1
 549 200 l 1
 549 121 l 1
 53 121 l 1
EndSplineSet
EndChar

StartChar: greater
Encoding: 62 62 109
Width: 553
GlyphClass: 1
Flags: W
HStem: 0 21G<40 84.4131> 476 20G<40 84.4131>
VStem: 408 105<160.5 335.5>
DStem2: 40 90 40 0 0.911813 0.410605<0 400.423>
LayerCount: 2
Fore
SplineSet
40 0 m 1
 40 90 l 1
 408 248 l 1
 40 406 l 1
 40 496 l 1
 513 283 l 1
 513 213 l 1
 40 0 l 1
EndSplineSet
EndChar

StartChar: question
Encoding: 63 63 110
Width: 520
GlyphClass: 1
Flags: W
HStem: -12 129<178.753 274.231> 501 21G<50.6957 131.307> 610 70<177.053 338.648>
VStem: 40 82<522.037 554.738> 162 129<4.81476 100.301> 182 86<190 285.69> 382 88<442.012 569.324>
LayerCount: 2
Fore
SplineSet
258.651670694 680 m 0xf6
 346.560334718 680 470 642.354114577 470 516.940604439 c 0
 470 424.828341942 403.41123069 366.167299947 336.239652173 322.505773911 c 0
 280.883950366 286.524567737 268 267.706089843 268 224 c 2
 268 190 l 1
 182 190 l 1
 182 227 l 2
 182 391.146392853 382 373.735461442 382 505.224159137 c 0
 382 570.6254005 332.520519534 610 259.085916355 610 c 0
 218.192623967 610 140.613444581 597.789911829 122 501 c 1
 40 524 l 1
 60.4492764315 622.156526871 149.683388962 680 258.651670694 680 c 0xf6
291 52.2910455466 m 0xfa
 291 16.8555248005 261.988200956 -12 226.831432923 -12 c 0
 193.292760173 -12 162 14.2604905341 162 52.096225022 c 0
 162 88.4039529648 190.816264284 117 226.683101757 117 c 0
 263.577172982 117 291 86.7425031503 291 52.2910455466 c 0xfa
EndSplineSet
EndChar

StartChar: at
Encoding: 64 64 111
Width: 780
GlyphClass: 1
Flags: W
HStem: -12 61<288.342 503.197> 155 74<320.882 417.874 537.155 628.221> 445 74<339.214 450.684> 618 62<291.783 503.601>
VStem: 50 62<227.557 444.631> 218 84<248.508 407.259> 451 81<263.74 444.01> 668 62<275.662 463.084>
LayerCount: 2
Fore
SplineSet
532 16 m 1
 504.755293961 4.08044110762 458.133224183 -12 398.756924923 -12 c 0
 228.383073507 -12 50 120.396830401 50 330.731321116 c 0
 50 530.9770878 211.681131975 680 390.005891922 680 c 0
 534.05345908 680 730 582.760748858 730 359.166764078 c 0
 730 217.409884236 651.240008478 155 575.376001973 155 c 0
 529.068524688 155 486.364126145 178.253272025 473 213 c 1
 457.731180034 194.550175875 417.938138297 155 362.455615111 155 c 0
 343.837049095 155 218 159.453777023 218 319.018334642 c 0
 218 375.926099982 234.005849334 519 411.198958154 519 c 0
 437.161475129 519 479.333771788 515.928430496 532 499 c 1
 532 273 l 2
 532 250.046776614 543.819980606 229 576.995204484 229 c 0
 636.517099411 229 668 296.750322167 668 366.117192735 c 0
 668 501.907306951 547.355690784 618 398.249746334 618 c 0
 250.414877682 618 112 503.878169391 112 334.35891275 c 0
 112 166.878914155 247.104741813 49 396.292962169 49 c 0
 443.892977548 49 489.333333333 61 532 85 c 1
 532 16 l 1
302 326.969955801 m 0
 302 297.334837383 307.389511864 229 365.434335937 229 c 0
 408.111079787 229 451 265.94007044 451 338 c 2
 451 441 l 2
 448.786604521 441.442679096 430.432994635 445 409.796205274 445 c 0
 354.595124337 445 302 419.547294889 302 326.969955801 c 0
EndSplineSet
EndChar

StartChar: colon
Encoding: 58 58 112
Width: 205
GlyphClass: 1
Flags: W
HStem: -12 129<54.8518 150.276> 375 129<54.6108 150.146>
VStem: 38 129<4.72814 100.146 391.839 487.149>
LayerCount: 2
Fore
SplineSet
167 439.554290333 m 0
 167 403.793943632 138.195499089 375 102.439079454 375 c 0
 66.4812567792 375 38 404.119229004 38 439.486255376 c 0
 38 474.855022365 66.484060307 504 102.383702351 504 c 0
 137.876258142 504 167 475.512257359 167 439.554290333 c 0
167 52.4498288895 m 0
 167 16.8130399839 138.195108473 -12 102.562970556 -12 c 0
 67.132894687 -12 38 16.4871816716 38 52.3818431795 c 0
 38 87.8768561698 66.4877791189 117 102.510018339 117 c 0
 138.53166343 117 167 87.8778168401 167 52.4498288895 c 0
EndSplineSet
EndChar

StartChar: semicolon
Encoding: 59 59 113
Width: 205
GlyphClass: 1
Flags: W
HStem: 375 129<54.6108 150.146>
VStem: 38 129<5.35938 100.007 391.839 487.149>
DStem2: 45 -133 100 -133 0.359367 0.933196<19.7652 130.74>
LayerCount: 2
Fore
SplineSet
167 439.554290333 m 0
 167 403.793943632 138.195499089 375 102.439079454 375 c 0
 66.4812567792 375 38 404.119229004 38 439.486255376 c 0
 38 474.855022365 66.484060307 504 102.383702351 504 c 0
 137.876258142 504 167 475.512257359 167 439.554290333 c 0
102.451359618 117 m 0
 138.800929381 117 167 87.1551316581 167 53.4868333223 c 0
 167 45.3016550243 165.333333333 36.6666666667 162 28 c 2
 100 -133 l 1
 45 -133 l 1
 92 -11 l 1
 60.8986645604 -5.59107209744 38 21.0000629911 38 52.5645158236 c 0
 38 87.762016907 66.473266084 117 102.451359618 117 c 0
EndSplineSet
EndChar

StartChar: bracketleft
Encoding: 91 91 114
Width: 315
GlyphClass: 1
Flags: W
HStem: -161 74<157 282> 594 74<157 282>
VStem: 76 206<-161 -87 594 668> 76 81<-87 594>
LayerCount: 2
Fore
SplineSet
76 -161 m 1xe0
 76 668 l 1
 282 668 l 1
 282 594 l 1xe0
 157 594 l 1
 157 -87 l 1xd0
 282 -87 l 1
 282 -161 l 1
 76 -161 l 1xe0
EndSplineSet
EndChar

StartChar: backslash
Encoding: 92 92 115
Width: 377
GlyphClass: 1
Flags: W
HStem: 0 21G<267.216 362> 648 20G<15 109.784>
DStem2: 102 668 15 668 0.362716 -0.9319<0 685.259>
LayerCount: 2
Fore
SplineSet
275 0 m 1
 15 668 l 1
 102 668 l 1
 362 0 l 1
 275 0 l 1
EndSplineSet
EndChar

StartChar: bracketright
Encoding: 93 93 116
Width: 315
GlyphClass: 1
Flags: W
HStem: -161 74<33 158> 594 74<33 158>
VStem: 33 206<-161 -87 594 668> 158 81<-87 594>
LayerCount: 2
Fore
SplineSet
33 -161 m 1xe0
 33 -87 l 1xe0
 158 -87 l 1
 158 594 l 1xd0
 33 594 l 1
 33 668 l 1
 239 668 l 1
 239 -161 l 1
 33 -161 l 1xe0
EndSplineSet
EndChar

StartChar: asciicircum
Encoding: 94 94 117
Width: 552
GlyphClass: 1
Flags: W
HStem: 569 99<188.5 363.5>
DStem2: 53 311 142 311 0.460099 0.887867<40.9488 331.672> 314 668 276 569 0.460099 -0.887867<70.4151 361.138>
LayerCount: 2
Fore
SplineSet
53 311 m 1
 238 668 l 1
 314 668 l 1
 499 311 l 1
 410 311 l 1
 276 569 l 1
 142 311 l 1
 53 311 l 1
EndSplineSet
EndChar

StartChar: underscore
Encoding: 95 95 118
Width: 396
GlyphClass: 1
Flags: W
HStem: -79 79<10 386>
LayerCount: 2
Fore
SplineSet
10 -79 m 1
 10 0 l 1
 386 0 l 1
 386 -79 l 1
 10 -79 l 1
EndSplineSet
EndChar

StartChar: grave
Encoding: 96 96 119
Width: 268
GlyphClass: 1
Flags: W
HStem: 571 136
VStem: 53 162
LayerCount: 2
Fore
SplineSet
53 666.705021472 m 0
 53 690.360213588 69.661942786 707 91.9849092184 707 c 0
 102.005694354 707 112.941305582 703.646892822 122 692 c 2
 215 571 l 1
 145 571 l 1
 62.8971403751 640.139250211 53 648.473684211 53 666.705021472 c 0
EndSplineSet
EndChar

StartChar: exclam
Encoding: 33 33 120
Width: 281
GlyphClass: 1
Flags: W
HStem: -12 129<92.8518 188.276> 648 20G<96 185>
VStem: 76 129<4.72814 100.146> 96 89<378.944 668>
LayerCount: 2
Fore
SplineSet
114 195 m 1xd0
 96 496 l 1
 96 668 l 1
 185 668 l 1
 185 496 l 1
 167 195 l 1
 114 195 l 1xd0
205 52.4498288895 m 0xe0
 205 16.8130399839 176.195108473 -12 140.562970556 -12 c 0
 105.132894687 -12 76 16.4871816716 76 52.3818431794 c 0
 76 87.8768561698 104.487779119 117 140.510018339 117 c 0
 176.53166343 117 205 87.8778168401 205 52.4498288895 c 0xe0
EndSplineSet
EndChar

StartChar: quotedbl
Encoding: 34 34 121
Width: 301
GlyphClass: 1
Flags: W
HStem: 447 221<54 106 195 247>
VStem: 54 52<447 557.5> 195 52<447 557.5>
LayerCount: 2
Fore
SplineSet
195 447 m 1
 181 668 l 1
 261 668 l 1
 247 447 l 1
 195 447 l 1
54 447 m 1
 40 668 l 1
 120 668 l 1
 106 447 l 1
 54 447 l 1
EndSplineSet
EndChar

StartChar: numbersign
Encoding: 35 35 122
Width: 655
GlyphClass: 1
Flags: W
HStem: 0 21G<137 221.791 342 426.791> 172 81<49 162 255 366 460 572> 415 81<83 196 289 400 494 606> 648 20G<228.209 313 433.209 518>
VStem: 137 82<0 82> 231 82<586 668> 342 82<0 82> 436 82<586 668>
DStem2: 137 0 219 0 0.139346 0.990244<11.4263 173.806 266.974 419.173 512.341 674.581> 342 0 424 0 0.139346 0.990244<11.4263 173.666 266.974 419.033 512.341 674.581>
LayerCount: 2
Fore
SplineSet
137 0 m 1
 162 172 l 1
 38 172 l 1
 49 253 l 1
 173 253 l 1
 196 415 l 1
 72 415 l 1
 83 496 l 1
 207 496 l 1
 231 668 l 1
 313 668 l 1
 289 496 l 1
 412 496 l 1
 436 668 l 1
 518 668 l 1
 494 496 l 1
 617 496 l 1
 606 415 l 1
 482 415 l 1
 460 253 l 1
 583 253 l 1
 572 172 l 1
 448 172 l 1
 424 0 l 1
 342 0 l 1
 366 172 l 1
 243 172 l 1
 219 0 l 1
 137 0 l 1
255 253 m 1
 378 253 l 1
 400 415 l 1
 277 415 l 1
 255 253 l 1
EndSplineSet
EndChar

StartChar: dollar
Encoding: 36 36 123
Width: 594
GlyphClass: 1
Flags: W
HStem: -11 80<197.625 267 317 400.195> 600 79<193.081 267 317 383.66>
VStem: 47 96<445.112 557.017> 267 50<-87 -12 69 297 398 599 676.935 742> 457 97<117.476 237.811>
DStem2: 252 401 231 315 0.978791 -0.204863<-89.2106 15.2964 84.9272 193.919>
LayerCount: 2
Fore
SplineSet
554 190.816017049 m 0
 554 59.1759007275 438.898533155 -6.19530794502 317 -12 c 1
 317 -87 l 1
 267 -87 l 1
 267 -11 l 1
 151.93252751 -0.296049070647 73.3367516085 56.6575056886 40 146 c 1
 127 172 l 1
 149.666666667 112.666666667 196.333333333 78.3333333333 267 69 c 1
 267 308 l 1
 231 315 l 2
 174.80787144 325.994112109 47 365.455519171 47 494.889355594 c 0
 47 628.978469688 184.166796914 672.628215147 267 679 c 1
 267 742 l 1
 317 742 l 1
 317 679 l 1
 372.839131723 674.832900618 476.295933187 653.412140783 523 555 c 1
 437 530 l 1
 425.887779823 548.715318192 393.02483262 590.311447699 317 599 c 1
 317 386 l 1
 329 383 l 2
 459.208209971 348.734681584 554 310.278954816 554 190.816017049 c 0
267 600 m 1
 250.639061713 598.741466286 143 587.197954396 143 501.819626697 c 0
 143 445.450453667 189.919993391 413.14608825 252 401 c 2
 267 398 l 1
 267 600 l 1
317 68 m 1
 348.733326187 69.8945269366 457 83.5541438485 457 178.704386092 c 0
 457 246.898016521 401.388754592 277.94447477 317 297 c 1
 317 68 l 1
EndSplineSet
EndChar

StartChar: percent
Encoding: 37 37 124
Width: 927
GlyphClass: 1
Flags: W
HStem: -12 74<644.127 771.556> 0 21G<186 288.012> 277 75<643.809 771.312> 317 74<156.937 283.047> 606 74<156.135 282.775> 648 20G<639.988 742>
VStem: 38 74<434.218 562.191> 186 88<0 88> 327 74<434.905 562.492> 526 74<106.219 233.169> 654 88<580 668> 815 74<106.903 233.284>
DStem2: 186 0 274 0 0.573791 0.819001<50.4936 815.627>
LayerCount: 2
Fore
SplineSet
401 498.926314313 m 0x1bf0
 401 397.602373581 319.86829622 317 219.950371488 317 c 0
 121.897962065 317 38 394.620700982 38 498.123398181 c 0
 38 600.656457841 120.333373706 680 219.512528978 680 c 0
 318.358469821 680 401 601.188706783 401 498.926314313 c 0x1bf0
186 0 m 1x47f0
 654 668 l 1
 742 668 l 1
 274 0 l 1
 186 0 l 1x47f0
112 498.727220913 m 0
 112 438.547930058 160.696067321 391 219.905388698 391 c 0
 278.913773177 391 327 438.225753698 327 498.417834165 c 0
 327 558.085511166 279.747993835 606 219.482242025 606 c 0x1bf0
 159.112411105 606 112 557.919871366 112 498.727220913 c 0
889 170.331179109 m 0
 889 71.1640296258 810.093682245 -12 707.900301376 -12 c 0
 607.306269631 -12 526 68.5813278506 526 169.703328344 c 0
 526 270.087025738 606.123351322 352 707.562863009 352 c 0xa3f0
 808.906742318 352 889 270.241400299 889 170.331179109 c 0
600 169.971884004 m 0
 600 110.685692098 647.593751971 62 707.499788246 62 c 0
 767.459240246 62 815 110.772552826 815 169.952512113 c 0
 815 228.937026469 767.772733449 277 707.570361406 277 c 0
 647.553729981 277 600 229.233143537 600 169.971884004 c 0
EndSplineSet
EndChar

StartChar: ampersand
Encoding: 38 38 125
Width: 705
GlyphClass: 1
Flags: W
HStem: -12 74<186.235 359.935> 0 21G<557.149 695> 606 74<244.861 387.413>
VStem: 38 90<117.877 261.048> 135 90<479.46 584.967> 409 82<471.888 584.309> 521 87<252.817 361> 576 119<0 119>
DStem2: 351 363 259 334 0.688215 -0.725507<-203.37 -115.139 0 198.07 298.655 418.207>
LayerCount: 2
Fore
SplineSet
494 87 m 1x7d
 436.567295911 25.5603630681 358.565638661 -12 264.870533631 -12 c 0
 125.967270748 -12 38 70.5507212424 38 183.323678167 c 0
 38 242.169930524 61.9523871062 337.347559283 209 387 c 1
 158.411837441 443.539711094 135 490.494795389 135 538.308705522 c 0
 135 626.770141568 215.137344755 680 315.011694605 680 c 0
 343.434100669 680 491 675.689088965 491 537.931468704 c 0
 491 472.583227783 457.793542403 407.784388749 351 363 c 1
 487 219 l 1
 504.03852685 259.630333256 516.957480243 307.099736573 521 361 c 1
 608 361 l 1xbe
 604.357337506 311.824056342 591.049731542 232.082885903 546 157 c 1
 695 0 l 1
 576 0 l 1
 494 87 l 1x7d
322.411689339 606 m 0
 301.170846999 606 225 602.146743937 225 540.225884846 c 0
 225 505.639791442 248.763907795 469.485716319 283.018894325 434.304919342 c 0
 290.898541009 426.212309234 296.666666667 419.666666667 300 415 c 1
 358.656464739 436.547272761 409 472.739832544 409 530.39982605 c 0
 409 551.911793668 401.992633989 606 322.411689339 606 c 0
128 189.643377472 m 0
 128 116.179351247 181.946442409 62 266.940162669 62 c 0
 300.668220472 62 376.822631227 70.5318417028 440 143 c 1
 259 334 l 1
 184.702301207 307.995805423 128 264.960490338 128 189.643377472 c 0
EndSplineSet
EndChar

StartChar: quotesingle
Encoding: 39 39 126
Width: 160
GlyphClass: 1
Flags: W
HStem: 447 221<54 106>
VStem: 54 52<447 557.5>
LayerCount: 2
Fore
SplineSet
54 447 m 1
 40 668 l 1
 120 668 l 1
 106 447 l 1
 54 447 l 1
EndSplineSet
EndChar

StartChar: parenleft
Encoding: 40 40 127
Width: 300
GlyphClass: 1
Flags: W
HStem: -161 21G<176.368 265> 648 20G<109.89 235>
VStem: 50 74<104.85 456.021> 189 76<-161 -85>
LayerCount: 2
Fore
SplineSet
124 278.786140385 m 0
 124 130.568318007 164.42253905 -24.6910726601 265 -161 c 1
 189 -161 l 1
 163.73598841 -125.11778064 50 37.6431273913 50 280.614837902 c 0
 50 351.864234741 59.7802254996 507.6483608 160 668 c 1
 235 668 l 1
 208.064847591 629.521210844 124 492.531083443 124 278.786140385 c 0
EndSplineSet
EndChar

StartChar: parenright
Encoding: 41 41 128
Width: 300
GlyphClass: 1
Flags: W
HStem: -161 21G<35 157.635> 648 20G<66 155.449>
VStem: 35 77<-161 -84> 177 73<101.604 461.535>
LayerCount: 2
Fore
SplineSet
250 282.049833937 m 0
 250 125.331885818 203.270006399 -29.4638143065 112 -161 c 1
 35 -161 l 1
 100.35339717 -72.4289485718 177 75.3248413251 177 273.222460421 c 0
 177 339.453976043 168.414983011 524.619023784 66 668 c 1
 141 668 l 1
 169.897421984 622.589765453 250 487.234132012 250 282.049833937 c 0
EndSplineSet
EndChar

StartChar: asterisk
Encoding: 42 42 129
Width: 433
GlyphClass: 1
Flags: W
HStem: 388 280
VStem: 187 57<562 668>
DStem2: 86 595 68 540 0.950549 -0.310575<0 105.916> 107 422 153 388 0.584802 0.811176<0 105.34> 261 508 215 474 0.590957 -0.806703<0.243887 106.607> 244 562 261 508 0.954146 0.29934<0.0561263 106.247>
LayerCount: 2
Fore
SplineSet
153 388 m 1
 107 422 l 1
 169 508 l 1
 68 540 l 1
 86 595 l 1
 187 562 l 1
 187 668 l 1
 244 668 l 1
 244 562 l 1
 345 595 l 1
 363 540 l 1
 261 508 l 1
 324 422 l 1
 278 388 l 1
 215 474 l 1
 153 388 l 1
EndSplineSet
EndChar

StartChar: plus
Encoding: 43 43 130
Width: 602
GlyphClass: 1
Flags: W
HStem: 0 21G<261 341> 208 80<53 261 341 549> 476 20G<261 341>
VStem: 261 80<0 208 288 496>
LayerCount: 2
Fore
SplineSet
261 0 m 1
 261 208 l 1
 53 208 l 1
 53 288 l 1
 261 288 l 1
 261 496 l 1
 341 496 l 1
 341 288 l 1
 549 288 l 1
 549 208 l 1
 341 208 l 1
 341 0 l 1
 261 0 l 1
EndSplineSet
EndChar

StartChar: comma
Encoding: 44 44 131
Width: 205
GlyphClass: 1
Flags: W
HStem: -133 250<92.5477 100>
VStem: 38 129<5.35938 100.007>
DStem2: 45 -133 100 -133 0.359367 0.933196<19.7652 130.74>
LayerCount: 2
Fore
SplineSet
102.451359618 117 m 0
 138.800929381 117 167 87.1551316581 167 53.4868333223 c 0
 167 45.3016550243 165.333333333 36.6666666667 162 28 c 2
 100 -133 l 1
 45 -133 l 1
 92 -11 l 1
 60.8986645604 -5.59107209744 38 21.0000629911 38 52.5645158236 c 0
 38 87.762016907 66.473266084 117 102.451359618 117 c 0
EndSplineSet
EndChar

StartChar: hyphen
Encoding: 45 45 132
Width: 368
GlyphClass: 1
Flags: W
HStem: 208 81<38 330>
VStem: 38 292<208 289>
LayerCount: 2
Fore
SplineSet
38 208 m 1
 38 289 l 1
 330 289 l 1
 330 208 l 1
 38 208 l 1
EndSplineSet
EndChar

StartChar: period
Encoding: 46 46 133
Width: 205
GlyphClass: 1
Flags: W
HStem: -12 129<54.8518 150.276>
VStem: 38 129<4.72814 100.146>
LayerCount: 2
Fore
SplineSet
167 52.4498288895 m 0
 167 16.8130399839 138.195108473 -12 102.562970556 -12 c 0
 67.132894687 -12 38 16.4871816716 38 52.3818431795 c 0
 38 87.8768561698 66.4877791189 117 102.510018339 117 c 0
 138.53166343 117 167 87.8778168401 167 52.4498288895 c 0
EndSplineSet
EndChar

StartChar: slash
Encoding: 47 47 134
Width: 377
GlyphClass: 1
Flags: W
HStem: 0 21G<15 109.784> 648 20G<267.216 362>
DStem2: 15 0 102 0 0.362716 0.9319<31.5563 716.815>
LayerCount: 2
Fore
SplineSet
15 0 m 1
 275 668 l 1
 362 668 l 1
 102 0 l 1
 15 0 l 1
EndSplineSet
EndChar

StartChar: braceleft
Encoding: 123 123 135
Width: 319
GlyphClass: 1
Flags: W
HStem: -161 71<196.848 285> 220 67<38 92.6318> 597 71<200.373 285>
VStem: 108 84<-83.7636 203.733 302.921 590.392>
CounterMasks: 1 e0
LayerCount: 2
Fore
SplineSet
192 -26 m 2
 192 -77.5100491974 200.185420999 -90 243 -90 c 2
 285 -90 l 1
 285 -161 l 1
 242 -161 l 2
 132.849862779 -161 108 -130.075509556 108 -25 c 2
 108 125 l 2
 108 183.069747054 98.3594988914 220 38 220 c 1
 38 287 l 1
 98.3635762209 287 108 323.937007684 108 382 c 2
 108 532 l 2
 108 636.14682323 131.516027271 668 242 668 c 2
 285 668 l 1
 285 597 l 1
 243 597 l 2
 200.172306469 597 192 583.292397074 192 533 c 2
 192 380 l 2
 192 297.343391553 161.049340826 267.347039119 113 254 c 1
 113 253 l 1
 163.500492335 239.710396753 192 208.812240992 192 127 c 2
 192 -26 l 2
EndSplineSet
EndChar

StartChar: bar
Encoding: 124 124 136
Width: 233
GlyphClass: 1
Flags: W
HStem: -161 21G<76 157> 648 20G<76 157>
VStem: 76 81<-161 668>
LayerCount: 2
Fore
SplineSet
76 -161 m 1
 76 668 l 1
 157 668 l 1
 157 -161 l 1
 76 -161 l 1
EndSplineSet
EndChar

StartChar: braceright
Encoding: 125 125 137
Width: 319
GlyphClass: 1
Flags: W
HStem: -161 71<34 121.981> 220 67<226.824 281> 597 71<34 118.819>
VStem: 127 84<-84.055 203.667 302.933 590.131>
CounterMasks: 1 e0
LayerCount: 2
Fore
SplineSet
211 -25 m 2
 211 -130.803047669 185.443680068 -161 77 -161 c 2
 34 -161 l 1
 34 -90 l 1
 76 -90 l 2
 118.812699625 -90 127 -77.5124779851 127 -26 c 2
 127 127 l 2
 127 208.674905197 156.732061458 239.684340934 206 253 c 1
 206 254 l 1
 157.929034994 267.353045836 127 297.368069752 127 380 c 2
 127 533 l 2
 127 583.290482924 118.82915107 597 76 597 c 2
 34 597 l 1
 34 668 l 1
 77 668 l 2
 188.099569814 668 211 635.497493218 211 532 c 2
 211 382 l 2
 211 323.895770363 221.761076153 287 281 287 c 1
 281 220 l 1
 221.753357081 220 211 183.091621952 211 125 c 2
 211 -25 l 2
EndSplineSet
EndChar

StartChar: asciitilde
Encoding: 126 126 138
Width: 555
GlyphClass: 1
Flags: W
HStem: 195 73<304.779 426.091> 249 74<128.862 259.33>
LayerCount: 2
Fore
SplineSet
515 297 m 1x80
 500.261566427 235.366550509 449.795513741 195 384.6991428 195 c 0x80
 309.408182167 195 236.736752882 249 179.086811415 249 c 0
 162.450342029 249 124.100609398 244.503046998 115 199 c 1
 40 221 l 1
 46.8174524105 249.509346444 74.6111046183 323 174.037199616 323 c 0x40
 260.050511974 323 326.074652089 268 378.667017749 268 c 0
 408.474572286 268 434.333458274 285.667291365 441 319 c 1
 515 297 l 1x80
EndSplineSet
EndChar

StartChar: exclamdown
Encoding: 161 161 139
Width: 281
GlyphClass: 1
Flags: W
HStem: -161 21G<96 185> 390 129<92.8518 188.276>
VStem: 76 129<406.728 502.146> 96 89<-161 127.667>
LayerCount: 2
Fore
SplineSet
205 454.44982889 m 0xe0
 205 418.813039985 176.195108473 390 140.562970556 390 c 0
 105.132894687 390 76 418.487181672 76 454.381843179 c 0
 76 489.87685617 104.487779119 519 140.510018339 519 c 0
 176.531663431 519 205 489.87781684 205 454.44982889 c 0xe0
96 -161 m 1xd0
 96 11 l 1
 114 311 l 1
 167 311 l 1
 185 11 l 1
 185 -161 l 1
 96 -161 l 1xd0
EndSplineSet
EndChar

StartChar: cent
Encoding: 162 162 140
Width: 500
GlyphClass: 1
Flags: W
HStem: -12 74<202.773 236 286 347.344> 430 74<203.6 236 286 348.084>
VStem: 38 91<143.831 353.845> 236 50<-87 -10 67 425 504 571>
LayerCount: 2
Fore
SplineSet
467 99 m 1
 433.493204896 38.6877688131 367.498828107 -5.31976818798 286 -12 c 1
 286 -87 l 1
 236 -87 l 1
 236 -10 l 1
 107.212319405 6.89018761881 38 115.411369248 38 245.857593768 c 0
 38 385.155330689 116.923892625 483.431393994 236 501 c 1
 236 571 l 1
 286 571 l 1
 286 504 l 1
 317.673180759 503.025440592 413.428579379 491.658369884 465 393 c 1
 388 365 l 1
 366.666666667 403 332.666666667 424.666666667 286 430 c 1
 286 62 l 1
 333.928231776 67.3253590862 369.908063796 93.5134396589 390 127 c 1
 467 99 l 1
236 425 m 1
 204.483825128 416.40467958 129 381.593832022 129 252.314018099 c 0
 129 212.152775561 136.284617367 96.4613630511 236 67 c 1
 236 425 l 1
EndSplineSet
EndChar

StartChar: sterling
Encoding: 163 163 141
Width: 586
GlyphClass: 1
Flags: W
HStem: -12 78<323.978 528.487> 26 76<194.875 341.985> 318 51<70 156 272 453> 609 71<244.291 413.436>
VStem: 112 89<425.241 569.95> 202 88<161.087 314.919>
LayerCount: 2
Fore
SplineSet
234.261376045 26 m 0x7c
 198.712743046 26 154.819345853 15.566006413 101 -12 c 1xbc
 73 55 l 1
 95.5710705748 64.6733159607 202 116.0405438 202 225.054347477 c 0
 202 246.31452368 197.952093929 278.51647098 179 318 c 1
 70 318 l 1
 70 369 l 1
 156 369 l 1
 133.089544364 417.684718226 112 462.663183827 112 513.89429995 c 0
 112 635.807503727 231.426595094 680 330.198722979 680 c 0
 384.808327916 680 508.744809339 666.49116854 546 541 c 1
 463 516 l 1
 454.010390667 551.958437329 425.109076038 609 331.36987938 609 c 0
 291.182981768 609 201 598.516219469 201 509.691253553 c 0
 201 467.823529413 221.036100411 426.572734448 249 369 c 1
 453 369 l 1
 453 318 l 1
 272 318 l 1
 284.03405654 291.525075612 290 264.909889323 290 239.530001034 c 0
 290 200.358616065 275.788576723 137.876240033 194 90 c 1
 219.021373901 100.302918665 239.893188383 102 252.459970616 102 c 0x7c
 310.3393694 102 356.068553206 66 423.496458107 66 c 0
 457.622187021 66 493.807094315 75.2211915275 531 91 c 1
 556 18 l 1
 496.758402933 -7.61798792041 456.556433027 -12 432.831501717 -12 c 0xbc
 362.966451299 -12 302.101935454 26 234.261376045 26 c 0x7c
EndSplineSet
EndChar

StartChar: currency
Encoding: 164 164 142
Width: 580
GlyphClass: 1
Flags: W
HStem: 103 75<215.974 365.039> 463 76<214.982 365.163>
VStem: 72 76<245.952 396.394> 432 76<245.036 395.405>
DStem2: 89 558 53 522 0.7063 -0.707913<0.0580521 96.7054 523.204 619.483> 53 119 89 84 0.7063 0.707913<0.649861 96.5133 524.064 620.075>
LayerCount: 2
Fore
SplineSet
289.772790858 103 m 0
 265.889168246 103 210.273130374 106.623933381 155 149 c 1
 89 84 l 1
 53 119 l 1
 119 185 l 1
 87.6666666667 225.666666667 72 270.579962445 72 319.1254475 c 0
 72 351.924596996 79.1516142029 405.756383125 119 456 c 1
 53 522 l 1
 89 558 l 1
 155 492 l 1
 170.924878773 504.739903018 217.341478162 539 291.737792245 539 c 0
 308.986278235 539 370.433561079 537.158432211 425 492 c 1
 491 558 l 1
 527 522 l 1
 461 456 l 1
 479.309304821 433.876256675 508 388.509527963 508 320.664972631 c 0
 508 297.370884431 504.61777495 239.522218687 461 185 c 1
 527 119 l 1
 491 84 l 1
 425 149 l 1
 403.076659796 131.612523286 356.882935846 103 289.772790858 103 c 0
148 321.178022401 m 0
 148 242.206241366 211.201853763 178 290.392139219 178 c 0
 370.164041384 178 432 243.152836213 432 320.633759443 c 0
 432 398.392190894 369.720300743 463 290.860035664 463 c 0
 214.255154999 463 148 402.034880462 148 321.178022401 c 0
EndSplineSet
EndChar

StartChar: yen
Encoding: 165 165 143
Width: 595
GlyphClass: 1
Flags: W
HStem: 0 21G<251 345> 86 51<101 251 345 494> 223 51<101 242 353 494> 648 20G<10 124.455 470.607 585>
VStem: 251 94<0 86 137 223>
DStem2: 113 668 10 668 0.507402 -0.861709<0 372.202> 298 345 353 274 0.507402 0.861709<0 371.694>
LayerCount: 2
Fore
SplineSet
251 0 m 1
 251 86 l 1
 101 86 l 1
 101 137 l 1
 251 137 l 1
 251 223 l 1
 101 223 l 1
 101 274 l 1
 242 274 l 1
 10 668 l 1
 113 668 l 1
 298 345 l 1
 482 668 l 1
 585 668 l 1
 353 274 l 1
 494 274 l 1
 494 223 l 1
 345 223 l 1
 345 137 l 1
 494 137 l 1
 494 86 l 1
 345 86 l 1
 345 0 l 1
 251 0 l 1
EndSplineSet
EndChar

StartChar: brokenbar
Encoding: 166 166 144
Width: 233
GlyphClass: 1
Flags: W
HStem: -161 21G<76 157> 648 20G<76 157>
VStem: 76 81<-161 149 358 668>
LayerCount: 2
Fore
SplineSet
76 358 m 1
 76 668 l 1
 157 668 l 1
 157 358 l 1
 76 358 l 1
76 -161 m 1
 76 149 l 1
 157 149 l 1
 157 -161 l 1
 76 -161 l 1
EndSplineSet
EndChar

StartChar: section
Encoding: 167 167 145
Width: 530
GlyphClass: 1
Flags: W
HStem: -173 70<188.286 342.323> 610 70<178.783 329.399>
VStem: 31 84<240.244 341.128> 76 86<507.528 592.59> 363 86<-81.1839 16.7298> 416 84<176.6 281.39>
DStem2: 201 195 160 124 0.879543 -0.475819<-102.541 154.344> 257 456 218 387 0.88025 -0.47451<-21.1445 227.445>
LayerCount: 2
Fore
SplineSet
449 -24.1347979245 m 0xc8
 449 -119.533264171 365.545087339 -173 260.824615904 -173 c 0
 162.020175224 -173 91.0207565459 -125.403674961 67 -44 c 1
 150 -20 l 1
 165.76344102 -81.4774199768 208.273829984 -103 262.383663488 -103 c 0
 289.843267216 -103 363 -97.4571839328 363 -36.5856836496 c 0
 363 12.2057664018 315.998281153 46.6897292138 254 77 c 2
 160 124 l 2
 111.691383939 148.610049692 31 200.757441627 31 283.926179133 c 0xe8
 31 310.826274442 39.4414020144 387.572702698 151 424 c 1
 109.63486734 452.527677696 76 493.21963247 76 548.290487378 c 0
 76 643.619762159 176.78564059 680 256.78230763 680 c 0
 298.174429669 680 399.710187374 670.260040936 439 574 c 1
 358 550 l 1
 341.681935882 593.514837648 299.516487094 610 255.381929801 610 c 0
 235.783144881 610 162 606.749172138 162 554.407028387 c 0
 162 515.795494767 202.15025004 484.796118728 257 456 c 2
 371 398 l 2
 466.355536757 348.556388347 500 295.488809901 500 241.924641014 c 0xd4
 500 215.492090523 491.806999081 137.995079597 385 91 c 1
 428.331176246 58.1280731924 449 23.3411144909 449 -24.1347979245 c 0xc8
218 387 m 1
 190.910515998 379.098900499 115 351.500625571 115 289.894313553 c 0
 115 250.035588889 146.775933563 224.823236541 201 195 c 2
 323 129 l 1
 358.822889597 143.750601598 416 175.654903399 416 230.377688148 c 0xe4
 416 241.914415834 413.45872826 282.162550613 346 318 c 2
 218 387 l 1
EndSplineSet
EndChar

StartChar: dieresis
Encoding: 168 168 146
Width: 425
GlyphClass: 1
Flags: W
HStem: 590 107<63.7605 150.581 275.403 361.582>
VStem: 53 108<600.786 686.473> 265 107<600.796 686.468>
LayerCount: 2
Fore
SplineSet
161 643.975504481 m 0
 161 614.332220196 137.762505061 590 107.486702861 590 c 0
 77.1764812544 590 53 614.387576393 53 643.935207646 c 0
 53 673.294757994 76.8696774772 697 107.436884507 697 c 0
 137.817048491 697 161 673.583978725 161 643.975504481 c 0
372 643.972120981 m 0
 372 614.333158485 348.762623381 590 318.500804054 590 c 0
 288.184920244 590 265 614.420181329 265 643.952426348 c 0
 265 673.273215673 287.85409326 697 318.429836759 697 c 0
 348.8043907 697 372 673.584434668 372 643.972120981 c 0
EndSplineSet
EndChar

StartChar: copyright
Encoding: 169 169 147
Width: 798
GlyphClass: 1
Flags: W
HStem: -12 62<295.375 502.749> 150 59<340.877 465.281> 473 58<340.478 459.82> 618 62<291.902 506.536>
VStem: 53 62<230.156 441.549> 227 76<252.884 431.463> 683 62<226.388 441.084>
LayerCount: 2
Fore
SplineSet
745 334.772868517 m 0
 745 144.046369487 591.123127018 -12 399.198537635 -12 c 0
 208.823198018 -12 53 141.537268825 53 333.217216791 c 0
 53 522.819687503 205.463797346 680 398.097187201 680 c 0
 587.818026747 680 745 527.536779517 745 334.772868517 c 0
115 334.539733286 m 0
 115 177.21204995 240.6708311 50 398.863923225 50 c 0
 555.954780863 50 683 175.44548716 683 333.457681726 c 0
 683 489.992357152 558.319587308 618 399.628165615 618 c 0
 243.019877608 618 115 493.330998068 115 334.539733286 c 0
550 230 m 1
 542.038751927 215.753556081 504.177878524 150 403.772570736 150 c 0
 354.285583525 150 227 165.973052933 227 332.79978785 c 0
 227 384.828539212 239.38040137 531 409.780148075 531 c 0
 422.164065541 531 505.129688709 530.227958234 548 449 c 1
 481 424 l 1
 463.666666667 456.666666667 437.117726184 473 401.042278883 473 c 0
 345.75936352 473 303 434.644005182 303 345.06486406 c 0
 303 306.191874822 311.052177132 209 401.853684819 209 c 0
 425.55328087 209 464.042936964 215.621032624 484 254 c 1
 550 230 l 1
EndSplineSet
EndChar

StartChar: questiondown
Encoding: 191 191 148
Width: 520
GlyphClass: 1
Flags: W
HStem: -174 70<180.389 342.428> 390 129<244.838 340.149>
VStem: 49 88<-60.7218 65.3918> 228 129<406.852 502.387> 251 86<219.935 316> 397 82<-48.2207 -16.0366>
LayerCount: 2
Fore
SplineSet
357 454.550068889 m 0xf4
 357 418.795306479 328.195634521 390 292.438723084 390 c 0
 256.48125678 390 228 419.119229004 228 454.616163934 c 0
 228 490.50665021 257.116295982 519 292.488257066 519 c 0
 327.854428681 519 357 490.515976686 357 454.550068889 c 0xf4
479 -18 m 1
 458.964674109 -114.169564279 372.948874105 -174 267.621020758 -174 c 0
 238.502870958 -174 49 -169.427399585 49 -11.960944804 c 0
 49 73.5640944995 104.901860111 133.23620907 187.812013499 187.127808772 c 0
 234.118660481 217.22712931 251 235.479405138 251 282 c 2
 251 316 l 1
 337 316 l 1
 337 279 l 2xec
 337 115.645789866 137 133.917731943 137 1.2475231779 c 0
 137 -64.7566575128 186.502377722 -104 262.218870654 -104 c 0
 319.728243732 -104 356.78355757 -81.3607373843 379.270464262 -43.8825595633 c 0
 388.397406284 -28.6709895273 394.333333333 -12.3333333333 397 5 c 1
 479 -18 l 1
EndSplineSet
EndChar

StartChar: germandbls
Encoding: 223 223 149
Width: 597
GlyphClass: 1
Flags: W
HStem: -12 74<302 409.866> 0 21G<76 160> 330 76<279 382.971> 611 69<215.817 391.992>
VStem: 76 84<0 551.691> 435 85<448.91 569.676> 469 90<118.736 271.356>
LayerCount: 2
Fore
SplineSet
559 195.957621922 m 0x7a
 559 40.9259374721 435.924170451 -12 316 -12 c 2
 302 -12 l 1
 279 65 l 1
 293 63 306.640991066 62 320.024336061 62 c 0
 406.027295117 62 469 103.294997237 469 196.224059777 c 0xba
 469 241.434972391 454.094869483 330 291 330 c 2
 279 330 l 1
 279 406 l 1
 285 406 l 2
 315.63883139 406 435 412.297495194 435 508.329680577 c 0
 435 560.213046222 400.159392467 611 300.710733537 611 c 0
 208.356850005 611 160 567.200956393 160 453 c 2
 160 0 l 1
 76 0 l 1
 76 453 l 2
 76 556.906305895 109.185064124 680 295.213243364 680 c 0
 342.888754189 680 520 671.9152044 520 518.780476025 c 0x7c
 520 468.6868948 501.047656702 410.28939322 420 376 c 1
 521.213034708 350.267872532 559 281.859980317 559 195.957621922 c 0x7a
EndSplineSet
EndChar

StartChar: AE
Encoding: 198 198 150
Width: 998
GlyphClass: 1
Flags: W
HStem: 0 81<600 960> 145 81<279 506> 303 81<600 866> 587 81<600 960>
VStem: 10 109<0 109> 506 94<81 145 226 303 384 546>
DStem2: 10 0 119 0 0.588316 0.808631<64.1264 242.563 341.008 341.008>
AnchorPoint: "Anchor-0" 659 668 basechar 0
LayerCount: 2
Fore
SplineSet
10 0 m 1
 496 668 l 1
 960 668 l 1
 960 587 l 1
 600 587 l 1
 600 384 l 1
 866 384 l 1
 866 303 l 1
 600 303 l 1
 600 81 l 1
 960 81 l 1
 960 0 l 1
 506 0 l 1
 506 145 l 1
 223 145 l 1
 119 0 l 1
 10 0 l 1
279 226 m 1
 506 226 l 1
 506 546 l 1
 279 226 l 1
EndSplineSet
EndChar

StartChar: florin
Encoding: 279 402 151
Width: 321
GlyphClass: 1
Flags: W
HStem: -173 80<25.7525 96.3468> 429 67<25 109 193 296> 635 71<201.215 296>
VStem: 109 84<-81.4219 429 496 628.681>
LayerCount: 2
Fore
SplineSet
193 -27 m 2
 193 -101.926024753 169.037964549 -173 79.2050998186 -173 c 0
 65.4686428299 -173 47.1835551603 -171.338158618 25 -165 c 1
 25 -90 l 1
 35 -92 44.0758933483 -93 51.8961568649 -93 c 0
 82.5870779664 -93 109 -77.5980017266 109 -24 c 2
 109 429 l 1
 25 429 l 1
 25 496 l 1
 109 496 l 1
 109 570 l 2
 109 674.869839992 134.04680021 706 242 706 c 2
 296 706 l 1
 296 635 l 1
 244 635 l 2
 202.344518474 635 193 621.310000778 193 571 c 2
 193 496 l 1
 296 496 l 1
 296 429 l 1
 193 429 l 1
 193 -27 l 2
EndSplineSet
EndChar

StartChar: integral
Encoding: 280 8747 152
Width: 458
GlyphClass: 1
Flags: W
HStem: -173 112<68.1035 143.161> 569 112<313.717 389.458>
VStem: 53 99<-126.539 -70.0022> 189 84<-102.659 615.786> 305 100<578.074 633.871>
LayerCount: 2
Fore
SplineSet
269 527.227398134 m 0
 269 466.698453847 273 110.112668995 273 41.1396502732 c 0
 273 -35.9159960242 268.007587544 -173 140.373087055 -173 c 0
 120.064673837 -173 53 -169.529415701 53 -114.580328279 c 0
 53 -83.5116715427 74.4396554657 -61 102.752390825 -61 c 0
 128.326714467 -61 152 -79.3675993709 152 -114.732057648 c 0
 152 -120.666666667 151.333333333 -124.333333333 150 -127 c 1
 184.136745475 -121.310542422 189 -86.6938940883 189 -20.0057276176 c 0
 189 40.4747584648 185 397.760415263 185 471.334301329 c 0
 185 533.454667922 187.851547566 681 318.298366556 681 c 0
 340.974404909 681 405 676.541458086 405 621.97817966 c 0
 405 590.202018602 383.285213389 569 355.388574504 569 c 0
 325.484154037 569 305 593.363755402 305 619.260218322 c 0
 305 624.982001984 306 630.333333333 308 635 c 1
 273.961840201 629.326973368 269 594.642080143 269 527.227398134 c 0
EndSplineSet
EndChar

StartChar: approxequal
Encoding: 281 8776 153
Width: 581
GlyphClass: 1
Flags: W
HStem: 97 73<316.509 438.748> 151 74<141.175 275.672> 283 73<318.964 440.822> 337 74<140.557 275.163>
VStem: 53 75<120.947 137.366 306.947 323.729> 454 74<183.817 201.081 369.811 387.081>
LayerCount: 2
Fore
SplineSet
192.075081848 337 m 0x1c
 175.449710786 337 137.100558693 332.502793471 128 287 c 1
 53 309 l 1
 67.5535811336 364.788727679 111.699880832 411 190.248115185 411 c 0x1c
 275.940811671 411 340.1438802 356 391.172405618 356 c 0
 402.40454759 356 444.332956566 358.664782826 454 407 c 1
 528 385 l 1
 523.141217739 364.681455996 497.087738984 283 400.832149167 283 c 0x2c
 322.568317906 283 249.684940644 337 192.075081848 337 c 0x1c
192.075081848 151 m 0x4c
 175.449710786 151 137.100558693 146.502793471 128 101 c 1
 53 123 l 1
 59.8174524105 151.509346444 87.6111046183 225 187.037199616 225 c 0x4c
 273.050511974 225 339.074652089 170 391.667017749 170 c 0
 421.474572286 170 447.333458274 187.667291365 454 221 c 1
 528 199 l 1
 523.141217739 178.681455996 497.087738984 97 400.832149167 97 c 0x8c
 322.568317906 97 249.684940644 151 192.075081848 151 c 0x4c
EndSplineSet
EndChar

StartChar: notequal
Encoding: 282 8800 154
Width: 602
GlyphClass: 1
Flags: W
HStem: 0 21G<77 191.05> 121 79<53 162 317 549> 307 80<53 292 448 549> 476 20G<410.872 524>
VStem: 77 100<0 100> 425 99<397 496>
DStem2: 77 0 177 0 0.574348 0.818611<57.4348 147.872 301.566 374.798 529.886 605.904>
LayerCount: 2
Fore
SplineSet
77 0 m 1
 162 121 l 1
 53 121 l 1
 53 200 l 1
 218 200 l 1
 292 307 l 1
 53 307 l 1
 53 387 l 1
 348 387 l 1
 425 496 l 1
 524 496 l 1
 448 387 l 1
 549 387 l 1
 549 307 l 1
 392 307 l 1
 317 200 l 1
 549 200 l 1
 549 121 l 1
 262 121 l 1
 177 0 l 1
 77 0 l 1
EndSplineSet
EndChar

StartChar: lessequal
Encoding: 283 8804 155
Width: 579
GlyphClass: 1
Flags: W
HStem: 0 80<53 526> 100 90<436 526> 414 91<435 526>
VStem: 53 105<214.5 389.5>
LayerCount: 2
Fore
SplineSet
526 100 m 1
 53 267 l 1
 53 337 l 1
 526 505 l 1
 526 414 l 1
 158 302 l 1
 526 190 l 1
 526 100 l 1
53 0 m 1
 53 80 l 1
 526 80 l 1
 526 0 l 1
 53 0 l 1
EndSplineSet
EndChar

StartChar: greaterequal
Encoding: 284 8805 156
Width: 579
GlyphClass: 1
Flags: W
HStem: 0 80<53 526> 100 90<53 143> 414 91<53 144>
VStem: 421 105<214.5 389.5>
LayerCount: 2
Fore
SplineSet
53 100 m 1
 53 190 l 1
 421 302 l 1
 53 414 l 1
 53 505 l 1
 526 337 l 1
 526 267 l 1
 53 100 l 1
53 0 m 1
 53 80 l 1
 526 80 l 1
 526 0 l 1
 53 0 l 1
EndSplineSet
EndChar

StartChar: lozenge
Encoding: 285 9674 157
Width: 561
GlyphClass: 1
Flags: W
VStem: 53 87<271.5 358.5> 421 87<271.5 358.5>
DStem2: 53 315 140 315 0.506632 0.862163<44.077 321.569> 140 315 53 315 0.506632 -0.862163<0 277.492> 281 703 281 554 0.504977 -0.863133<128.607 405.592> 281 76 281 -73 0.504977 0.863133<0 276.986>
LayerCount: 2
Fore
SplineSet
281 -73 m 1
 53 315 l 1
 281 703 l 1
 508 315 l 1
 281 -73 l 1
281 76 m 1
 421 315 l 1
 281 554 l 1
 140 315 l 1
 281 76 l 1
EndSplineSet
EndChar

StartChar: summation
Encoding: 286 8721 158
Width: 587
GlyphClass: 1
Flags: W
HStem: -161 81<154 534> 587 81<154 534>
DStem2: 154 587 53 587 0.594187 -0.804327<0 353.998> 53 -80 154 -80 0.593035 0.805177<59.8965 414.816>
LayerCount: 2
Fore
SplineSet
53 -161 m 1
 53 -80 l 1
 299 254 l 1
 53 587 l 1
 53 668 l 1
 534 668 l 1
 534 587 l 1
 154 587 l 1
 399 254 l 1
 154 -80 l 1
 534 -80 l 1
 534 -161 l 1
 53 -161 l 1
EndSplineSet
EndChar

StartChar: minus
Encoding: 287 8722 159
Width: 602
GlyphClass: 1
Flags: W
HStem: 209 79<53 549>
LayerCount: 2
Fore
SplineSet
53 209 m 1
 53 288 l 1
 549 288 l 1
 549 209 l 1
 53 209 l 1
EndSplineSet
EndChar

StartChar: uni2215
Encoding: 288 8725 160
Width: 598
GlyphClass: 1
Flags: W
HStem: 0 21G<15 128.991> 649 20G<469.009 583>
VStem: 15 100<0 100> 483 100<569 669>
DStem2: 15 0 115 0 0.573216 0.819405<57.3216 816.447>
LayerCount: 2
Fore
SplineSet
15 0 m 1
 483 669 l 1
 583 669 l 1
 115 0 l 1
 15 0 l 1
EndSplineSet
EndChar

StartChar: uni2219
Encoding: 289 8729 161
Width: 235
GlyphClass: 1
Flags: W
HStem: 191 129<69.841 165.273>
VStem: 53 129<208.156 303.241>
LayerCount: 2
Fore
SplineSet
182 255.846683649 m 0
 182 220.919110561 153.590775086 191 116.530460795 191 c 0
 78.8236079715 191 53 221.972128626 53 255.70298524 c 0
 53 291.521671392 82.1193369916 320 117.504090414 320 c 0
 153.204900502 320 182 291.010662432 182 255.846683649 c 0
EndSplineSet
EndChar

StartChar: radical
Encoding: 290 8730 162
Width: 582
GlyphClass: 1
Flags: W
HStem: -161 21G<271.157 381.639> 145 80<53 159> 649 20G<437.516 529>
VStem: 441 88<581 669>
DStem2: 215 225 159 145 0.365088 -0.930973<54.033 281.519> 318 -37 378 -161 0.17899 0.983851<0 716.615>
LayerCount: 2
Fore
SplineSet
279 -161 m 1
 159 145 l 1
 53 145 l 1
 53 225 l 1
 215 225 l 1
 318 -37 l 1
 441 669 l 1
 529 669 l 1
 378 -161 l 1
 279 -161 l 1
EndSplineSet
EndChar

StartChar: infinity
Encoding: 291 8734 163
Width: 773
GlyphClass: 1
Flags: W
HStem: 104 76<159.671 283.805 490.279 612.628> 198 119<327.5 446.5> 330 76<157.219 284.141 489.619 615.219>
VStem: 53 81<205.067 306.806> 639 81<205.989 306.788>
LayerCount: 2
Fore
SplineSet
387 198 m 1
 339.871162637 146.71273581 284.643417165 104 209.041339216 104 c 0
 116.480247822 104 53 168.024597698 53 254.8676152 c 0
 53 345.981128934 122.87702286 406 213.89571493 406 c 0
 288.490350964 406 342.485893176 365.687304339 387 317 c 1
 438.590250672 373.426836672 490.438332067 406 557.85782772 406 c 0
 649.951887608 406 720 345.221192336 720 254.094922716 c 0
 720 165.274375184 653.451825856 104 564.079963389 104 c 0
 489.650309359 104 434.326091774 146.498076599 387 198 c 1
134 256.776067198 m 0
 134 214.029148559 168.466224746 180 219.753909942 180 c 0
 259.092054144 180 293.682429838 200.019472154 339 256 c 1
 300.611594864 301.49736905 266.799701529 330 218.844958024 330 c 0
 170.057075115 330 134 300.498387763 134 256.776067198 c 0
435 256 m 1
 481.703520461 199.955775446 514.075464853 180 553.209863343 180 c 0
 603.695749829 180 639 213.211711405 639 256.946443927 c 0
 639 302.072199855 601.414267149 330 554.97423916 330 c 0
 506.445345287 330 471.705925981 299.503319681 435 256 c 1
EndSplineSet
EndChar

StartChar: uni03A9
Encoding: 292 937 164
Width: 687
GlyphClass: 1
Flags: W
HStem: 0 173<234.521 286 401 451.871> 0 81<50 201 486 637> 606 74<248.729 436.162>
VStem: 50 73<290.305 478.111> 201 85<81 142.494> 401 85<81 142.736> 564 73<292.257 479.814>
LayerCount: 2
Fore
SplineSet
123 384.853982606 m 0xbe
 123 285.948617006 187.877376254 200.140300186 286 173 c 1
 286 0 l 1xbe
 50 0 l 1
 50 81 l 1
 201 81 l 1
 201 130 l 1
 112.878244512 179.979503112 50 273.184570389 50 385.804909482 c 0
 50 547.688736013 179.91929938 680 343.058259169 680 c 0
 506.298796242 680 637 547.523919427 637 385.337274502 c 0
 637 275.665990616 577.236604672 180.985161434 486 130 c 1
 486 81 l 1
 637 81 l 1
 637 0 l 1x7e
 401 0 l 1
 401 173 l 1
 497.483891681 199.68703387 564 283.962590967 564 384.145017008 c 0
 564 505.911844877 465.734350769 606 344.009025604 606 c 0
 223.550645616 606 123 507.984483272 123 384.853982606 c 0xbe
EndSplineSet
EndChar

StartChar: estimated
Encoding: 293 8494 165
Width: 622
GlyphClass: 1
Flags: W
HStem: -12 32<229.177 393.834> 248 31<159 463> 472 32<229.812 391.25>
VStem: 53 106<142.783 248 279 344.938> 463 106<279 350.134>
LayerCount: 2
Fore
SplineSet
514 87 m 1
 494.072664866 61.3791405421 427.029977196 -12 312.165565616 -12 c 0
 171.192265988 -12 53 98.5287774673 53 244.365247655 c 0
 53 386.599365778 165.425373628 504 309.502078388 504 c 0
 448.149497244 504 569 395.280740204 569 248 c 1
 159 248 l 1
 159 78 l 1
 184.794927379 54.7845653587 236.00486309 20 308.76167988 20 c 0
 344.082418216 20 420.06093247 28.1978269837 481 97 c 1
 514 87 l 1
301.722380703 472 m 0
 295.169090388 472 221.991819841 471.792365186 159 413 c 1
 159 279 l 1
 463 279 l 1
 463 413 l 1
 437.168066513 437.109804588 386.671918814 472 301.722380703 472 c 0
EndSplineSet
EndChar

StartChar: partialdiff
Encoding: 294 8706 166
Width: 582
GlyphClass: 1
Flags: W
HStem: -12 73<216.942 363.936> 430 74<218.305 363.975> 598 82<142 308.917>
VStem: 53 89<144.04 345.759> 439 91<143.715 343.773>
LayerCount: 2
Fore
SplineSet
142 680 m 1
 260.886287339 680 530 680 530 289.719076332 c 0
 530 154.222417884 497.563174129 58.0769689291 398.410075341 11.3066393117 c 0
 365.421630111 -4.253948061 330.028552994 -12 293.615684887 -12 c 0
 188.501001089 -12 53 52.5501721821 53 245.295660249 c 0
 53 445.789818868 199.614698199 504 286.431871461 504 c 0
 309.198098166 504 383.002283426 499.997145717 423 450 c 1
 389.617999531 556.822401504 308.854958117 602.980745017 142 598 c 1
 142 680 l 1
142 247.174027819 m 0
 142 113.821741354 223.689133548 61 289.974151047 61 c 0
 348.082247608 61 439 101.593384543 439 244.589750032 c 0
 439 384.413259614 352.072119652 430 291.329008216 430 c 0
 232.934551896 430 142 387.870363653 142 247.174027819 c 0
EndSplineSet
EndChar

StartChar: uni0394
Encoding: 295 916 167
Width: 759
GlyphClass: 1
Flags: W
HStem: 0 78<178 580> 660 20G<369.412 388.618>
DStem2: 53 0 178 78 0.4323 0.90173<124.372 589.991> 379 680 379 498 0.433377 -0.901213<164.021 629.639>
LayerCount: 2
Fore
SplineSet
53 0 m 1
 379 680 l 1
 706 0 l 1
 53 0 l 1
178 78 m 1
 580 78 l 1
 379 498 l 1
 178 78 l 1
EndSplineSet
EndChar

StartChar: product
Encoding: 296 8719 168
Width: 585
GlyphClass: 1
Flags: W
HStem: -161 21G<53 134 450 532> 587 81<134 450>
VStem: 53 81<-161 587> 450 82<-161 587>
LayerCount: 2
Fore
SplineSet
53 -161 m 1
 53 668 l 1
 532 668 l 1
 532 -161 l 1
 450 -161 l 1
 450 587 l 1
 134 587 l 1
 134 -161 l 1
 53 -161 l 1
EndSplineSet
EndChar

StartChar: pi
Encoding: 297 960 169
Width: 591
GlyphClass: 1
Flags: W
HStem: 0 74<471.555 551> 414 82<20 104 185 383 467 551>
VStem: 104 81<0 414> 383 84<78.3556 414>
LayerCount: 2
Fore
SplineSet
500 0 m 2
 405.668568397 0 383 22.4354365591 383 124 c 2
 383 414 l 1
 185 414 l 1
 185 0 l 1
 104 0 l 1
 104 414 l 1
 20 414 l 1
 20 496 l 1
 551 496 l 1
 551 414 l 1
 467 414 l 1
 467 139 l 2
 467 87.5092017556 471.761715959 74 518 74 c 2
 551 74 l 1
 551 0 l 1
 500 0 l 2
EndSplineSet
EndChar

StartChar: hungarumlaut
Encoding: 298 733 170
Width: 414
GlyphClass: 1
Flags: W
HStem: 572 136
VStem: 53 308
LayerCount: 2
Fore
SplineSet
176.33166346 708 m 0
 198.527340332 708 215 691.655096158 215 668.539363108 c 0
 215 660.335369547 212.925091228 650.650078195 204 643 c 2
 123 572 l 1
 53 572 l 1
 149 695 l 2
 155.666666667 703.666666667 164.903189122 708 176.33166346 708 c 0
321.529125876 708 m 0
 343.213423352 708 361 690.725513885 361 668.173609175 c 0
 361 660.286123959 358.824279874 650.563668463 350 643 c 2
 269 572 l 1
 199 572 l 1
 295 695 l 2
 301.666666667 703.666666667 310.668525422 708 321.529125876 708 c 0
EndSplineSet
EndChar

StartChar: tilde
Encoding: 299 732 171
Width: 435
GlyphClass: 1
Flags: W
HStem: 575 63<226.466 320.56> 618 63<123.498 216.925>
VStem: 53 65<577 613.782>
LayerCount: 2
Fore
SplineSet
382 649.054486629 m 0xa0
 382 618.752743851 337.798605819 575 285.665205543 575 c 0xa0
 233.982215346 575 196.689365926 618 156.65091108 618 c 0
 134.078685483 618 121.333333333 604.333333333 118 577 c 1
 53 577 l 1
 56.1979071071 595.832119631 71.2776451908 681 155.547499437 681 c 0x60
 215.425673878 681 241.633211402 638 283.518862762 638 c 0
 324.914606609 638 316.965928955 680 349.954491434 680 c 0
 369.600872583 680 382 665.103383445 382 649.054486629 c 0xa0
EndSplineSet
EndChar

StartChar: endash
Encoding: 300 8211 172
Width: 480
GlyphClass: 1
InSpiro: 1
Flags: W
HStem: 208 79<41 439>
LayerCount: 2
Fore
SplineSet
41 208 m 1
 41 287 l 1
 439 287 l 1
 439 208 l 1
 41 208 l 1
EndSplineSet
EndChar

StartChar: emdash
Encoding: 301 8212 173
Width: 800
GlyphClass: 1
Flags: W
HStem: 208 79<41 759>
LayerCount: 2
Fore
SplineSet
41 208 m 1
 41 287 l 1
 759 287 l 1
 759 208 l 1
 41 208 l 1
EndSplineSet
EndChar

StartChar: trademark
Encoding: 302 8482 174
Width: 848
GlyphClass: 1
Flags: W
HStem: 292 92<512 676> 608 60<53 171 238 356>
VStem: 171 67<292 608> 393 67<292 571> 728 67<292 571>
DStem2: 501 668 460 571 0.311204 -0.950343<79.4239 298.839> 594 384 630 292 0.311204 0.950343<0 219.415>
LayerCount: 2
Fore
SplineSet
393 292 m 1
 393 668 l 1
 501 668 l 1
 594 384 l 1
 687 668 l 1
 795 668 l 1
 795 292 l 1
 728 292 l 1
 728 571 l 1
 630 292 l 1
 558 292 l 1
 460 571 l 1
 460 292 l 1
 393 292 l 1
171 292 m 1
 171 608 l 1
 53 608 l 1
 53 668 l 1
 356 668 l 1
 356 608 l 1
 238 608 l 1
 238 292 l 1
 171 292 l 1
EndSplineSet
EndChar

StartChar: uni2113
Encoding: 303 8467 175
Width: 450
GlyphClass: 1
Flags: W
HStem: -12 73<220.478 336.592> 610 70<217.968 299.615>
VStem: 53 151<138 227> 119 85<76.2794 188 344 598.384> 312 82<440.335 597.713>
DStem2: 53 227 119 188 0.790478 0.61249<0 28.2845 191.024 315.258>
LayerCount: 2
Fore
SplineSet
397 42 m 1xe8
 376.647523535 23.4173040964 328.468477822 -12 252.479813436 -12 c 0
 161.726909599 -12 119 38.5171612842 119 156 c 2
 119 188 l 1xd8
 53 138 l 1
 53 227 l 1xe8
 119 278 l 1
 119 507 l 2
 119 574.326518004 133.874114892 680 255.977373896 680 c 0
 301.847275779 680 394 665.08692751 394 534.184590879 c 0
 394 419.741077506 323.563828101 339.708646657 204 251 c 1xd8
 204 151 l 2
 204 78.1613619211 234.22936227 61 269.404475734 61 c 0
 304.151853389 61 333.57400316 77.7465289769 360 100 c 1
 397 42 l 1xe8
256.892918426 610 m 0
 221.319605231 610 204 588.716665877 204 518 c 2
 204 344 l 1
 259.338982254 382.539648355 312 443.07052073 312 532.163495829 c 0
 312 599.366531725 282.037357649 610 256.892918426 610 c 0
EndSplineSet
EndChar

StartChar: Lslash
Encoding: 304 321 176
Width: 573
GlyphClass: 1
Flags: W
HStem: 0 81<204 563> 216 71<20 91> 434 71<313 384> 649 20G<110 204>
VStem: 110 94<81 270 397 669>
DStem2: 20 287 20 216 0.857909 0.513802<0 68.4771 214.373 387.808>
LayerCount: 2
Fore
SplineSet
110 0 m 1
 110 270 l 1
 20 216 l 1
 20 287 l 1
 110 340 l 1
 110 669 l 1
 204 669 l 1
 204 397 l 1
 384 505 l 1
 384 434 l 1
 204 326 l 1
 204 81 l 1
 563 81 l 1
 563 0 l 1
 110 0 l 1
EndSplineSet
EndChar

StartChar: lslash
Encoding: 305 322 177
Width: 237
GlyphClass: 1
Flags: W
HStem: 0 74<156.962 222> 365 71<151 222> 648 20G<68 152>
VStem: 68 154<26.6202 74 365 394> 68 84<79.2283 273 394 668>
LayerCount: 2
Fore
SplineSet
152 139 m 2xe8
 152 87.5086587847 157.626470242 74 204 74 c 2
 222 74 l 1
 222 0 l 1xf0
 186 0 l 2
 89.5184879953 0 68 24.9033282394 68 124 c 2
 68 273 l 1
 15 242 l 1
 15 312 l 1
 68 344 l 1
 68 668 l 1
 152 668 l 1
 152 394 l 1xe8
 222 436 l 1
 222 365 l 1xf0
 152 323 l 1
 152 139 l 2xe8
EndSplineSet
EndChar

StartChar: oslash
Encoding: 248 248 178
Width: 552
GlyphClass: 1
Flags: W
HStem: -12 74<202.275 346.596> 430 74<203.284 350.306>
VStem: 38 89<146.881 346.589> 424 90<146.106 349.043>
DStem2: 45 24 83 -9 0.648973 0.760811<0 65.1029 159.663 483.31 570.422 634.403>
AnchorPoint: "Anchor-0" 276 496 basechar 0
LayerCount: 2
Fore
SplineSet
514 245.564835237 m 0
 514 64.2494504927 389.475238665 -12 276.118436605 -12 c 0
 242.489211407 -12 178.676071041 -5.2891849416 125 40 c 1
 83 -9 l 1
 45 24 l 1
 89 77 l 1
 57.1261104468 119.960459833 38 175.827048396 38 246.737202996 c 0
 38 428.134768369 163.162060058 504 277.445070555 504 c 0
 302.827483613 504 361.739699072 500.257642623 416 460 c 1
 457 507 l 1
 495 474 l 1
 454 425 l 1
 487.360615396 386.697071211 514 329.427544937 514 245.564835237 c 0
278.498003186 430 m 0
 211.59195468 430 127 381.217717049 127 246.378950418 c 0
 127 218.088158577 130.723828952 180.552342094 148 146 c 1
 364 398 l 1
 351.424439365 409.25181741 322.131935262 430 278.498003186 430 c 0
178 103 m 1
 193.83434326 87.1656567403 226.731899799 62 273.608851224 62 c 0
 334.041338858 62 424 103.824474384 424 245.988029051 c 0
 424 289.789801283 415.460158698 327.759731434 397 359 c 1
 178 103 l 1
EndSplineSet
EndChar

StartChar: Oslash
Encoding: 216 216 179
Width: 727
GlyphClass: 1
Flags: W
HStem: -12 79<268.586 456.647> 599 81<275.265 457.738> 653 20G<599.175 640.375>
VStem: 50 96<206.672 460.894> 581 96<205.071 460.404>
DStem2: 65 27 103 -6 0.649047 0.760749<0 86.7641 186.561 669.115 766.742 849.068>
AnchorPoint: "Anchor-0" 364 668 basechar 0
LayerCount: 2
Fore
SplineSet
677 335.346780611 m 0xb8
 677 136.875901612 559.73510161 -12 363.018831251 -12 c 0
 323.827639177 -12 235.810158607 -6.09090750336 160 60 c 1
 103 -6 l 1
 65 27 l 1
 125 97 l 1
 102.563171387 125.046035767 50 200.522895041 50 332.423225303 c 0
 50 525.557496064 162.695995093 680 363.608815776 680 c 0xd8
 407.611389027 680 491.203425364 672.591885581 563 610 c 1
 616 673 l 1
 655 641 l 1
 599 574 l 1
 625.311255616 542.149532674 677 467.115027703 677 335.346780611 c 0xb8
186 169 m 1
 506 543 l 1
 467.333333333 580.333333333 420.190244611 599 371.09790124 599 c 0
 335.516010667 599 146 589.193878152 146 334.640287884 c 0
 146 267.12134375 159.333333333 212.333333333 186 169 c 1
360.85583441 67 m 0
 481.931775788 67 581 157.367328724 581 332.292820528 c 0
 581 384.069244027 572.320548776 448.087121958 538 503 c 1
 217 127 l 1
 255.666666667 87 303.896208293 67 360.85583441 67 c 0
EndSplineSet
EndChar

StartChar: Thorn
Encoding: 222 222 180
Width: 576
GlyphClass: 1
Flags: W
HStem: 0 21G<76 160> 163 81<160 404.559> 447 81<160 400.04> 648 20G<76 160>
VStem: 76 84<0 163 244 447 528 668> 441 97<277.296 411.769>
LayerCount: 2
Fore
SplineSet
538 346.003973176 m 0
 538 222.522267797 472.695135603 163 287 163 c 2
 160 163 l 1
 160 0 l 1
 76 0 l 1
 76 668 l 1
 160 668 l 1
 160 528 l 1
 287 528 l 2
 476.586902571 528 538 465.749790829 538 346.003973176 c 0
441 342.976817017 m 0
 441 420.02017234 399.164858773 447 296 447 c 2
 160 447 l 1
 160 244 l 1
 296 244 l 2
 399.198814772 244 441 265.964734627 441 342.976817017 c 0
EndSplineSet
EndChar

StartChar: ae
Encoding: 230 230 181
Width: 874
GlyphClass: 1
Flags: W
HStem: -12 74<538.341 701.821> -12 66<158.632 319.797> 225 67<198.268 373 465 757> 436 68<187.887 335.647 538.552 684.45>
VStem: 38 93<80.7242 179.423> 373 92<292 365.938> 380 83<140.723 225>
AnchorPoint: "Anchor-0" 433 496 basechar 0
LayerCount: 2
Fore
SplineSet
417 88 m 1xba
 404.009107947 65.655665669 349.336303126 -12 217.108946474 -12 c 0
 95.6541651648 -12 38 53.5178665944 38 129.419501237 c 0
 38 263.005670442 216.587649627 292 373 292 c 1
 373 319 l 2x7c
 373 369.248128448 355.483364351 436 263.45803316 436 c 0
 229.444159605 436 166.084603026 426.880713622 151 359 c 1
 70 383 l 1
 81.5667824506 415.497150694 126.311778765 504 270.850998476 504 c 0
 350.190861362 504 404.333333333 477.333333333 433 424 c 1
 462.074022618 457.47917756 519.650234245 504 611.341962715 504 c 0
 763.884584061 504 856.339125087 375.243407384 845 225 c 1
 463 225 l 1
 466.366935754 155.416661078 492.99189846 100.531927781 555.228846524 74.7480492974 c 0
 575.973019411 66.1540348155 597.760040121 62 620.102040847 62 c 0
 646.991063415 62 697.832045892 68.0169449792 733 111 c 1
 814 87 l 1
 790.583924815 51.039598824 732.736320086 -12 616.473999875 -12 c 0
 525.619628342 -12 457.110638344 26.497021206 417 88 c 1xba
757 292 m 1
 755.202747332 354.903843334 708.439683857 432 612.320488081 432 c 0
 572.23682158 432 475.127401122 418.592514008 465 292 c 1
 757 292 l 1
131 131.933342193 m 0
 131 113.583691118 137.618986689 54 233.864004145 54 c 0
 291.571967055 54 380 75.4211301732 380 209 c 2
 380 225 l 1x7a
 196.334319426 225 131 189.583797596 131 131.933342193 c 0
EndSplineSet
EndChar

StartChar: eth
Encoding: 240 240 182
Width: 567
GlyphClass: 1
Flags: W
HStem: -12 71<193.716 350.017> 371 74<194.423 352.479> 602 77<175 302.15>
VStem: 38 90<127.232 301.601> 419 98<147.011 381.532>
DStem2: 247 510 283 474 0.707107 0.707107<0 93.3381 183.848 240.416>
LayerCount: 2
Fore
SplineSet
517 299.170991391 m 0
 517 174.272551921 481.406229767 -12 278.696736043 -12 c 0
 124.351506974 -12 38 95.9908863571 38 220.640836543 c 0
 38 340.851830492 118.310823418 445 254.226627191 445 c 0
 296.241275332 445 382.247437159 435.047935379 430 352 c 1
 424.675072522 443.854998982 398.638133837 505.694307844 356 547 c 1
 283 474 l 1
 247 510 l 1
 313 576 l 1
 277.248698074 594.537712109 231.22327993 602 175 602 c 1
 175 679 l 1
 250.309650883 679 316.99418147 666.930377153 371 634 c 1
 417 680 l 1
 453 644 l 1
 413 604 l 1
 495.200457259 530.932926882 517 396.915801649 517 299.170991391 c 0
128 214.858887691 m 0
 128 122.143393376 184.523837181 59 273.480264625 59 c 0
 362.766297966 59 419 122.612184516 419 215.184170388 c 0
 419 308.147655845 362.289652165 371 273.569589757 371 c 0
 184.339729382 371 128 307.423263745 128 214.858887691 c 0
EndSplineSet
EndChar

StartChar: thorn
Encoding: 254 254 183
Width: 566
GlyphClass: 1
Flags: W
HStem: -161 21G<70 154> -12 72<221.796 364.114> 433 72<220.415 369.056> 649 20G<70 154>
VStem: 70 84<-161 75 135.498 361.095 418 669> 434 94<138.358 355.242>
LayerCount: 2
Fore
SplineSet
313.351311237 -12 m 0
 273.953218561 -12 199.179170449 -1.60815858968 154 75 c 1
 154 -161 l 1
 70 -161 l 1
 70 669 l 1
 154 669 l 1
 154 418 l 1
 173.079356291 450.351951973 219.084570819 505 310.173789006 505 c 0
 426.362502832 505 528 416.086318381 528 248.193544414 c 0
 528 88.1783966323 435.676524195 -12 313.351311237 -12 c 0
152 254.120944889 m 0
 152 207.241273492 160.714817541 60 290.406810979 60 c 0
 377.232440855 60 434 125.993189535 434 240.610042041 c 0
 434 284.89117245 425.526932564 433 298.644687425 433 c 0
 261.65738828 433 152 420.414094281 152 254.120944889 c 0
EndSplineSet
EndChar

StartChar: multiply
Encoding: 215 215 184
Width: 528
GlyphClass: 1
Flags: W
HStem: 193 115<206.5 321.5>
DStem2: 110 462 53 404 0.707107 -0.707107<0.707107 217.789 299.813 516.188> 53 97 110 39 0.707107 0.707107<0 217.082 298.399 515.481>
LayerCount: 2
Fore
SplineSet
110 39 m 1
 53 97 l 1
 207 250 l 1
 53 404 l 1
 110 462 l 1
 264 308 l 1
 418 462 l 1
 475 404 l 1
 322 250 l 1
 475 97 l 1
 418 39 l 1
 264 193 l 1
 110 39 l 1
EndSplineSet
EndChar

StartChar: divide
Encoding: 247 247 185
Width: 602
GlyphClass: 1
Flags: W
HStem: 14 129<252.706 348.596> 208 81<53 549> 354 129<252.733 348.716>
VStem: 236 129<30.8615 126.268 370.277 466.261>
CounterMasks: 1 e0
LayerCount: 2
Fore
SplineSet
365 417.994701718 m 0
 365 381.65939756 337.326685667 354 300.990903348 354 c 0
 264.666439676 354 236 381.642168361 236 417.995662405 c 0
 236 454.3359615 264.645633779 483 300.989263605 483 c 0
 337.343785347 483 365 454.318778127 365 417.994701718 c 0
53 208 m 1
 53 289 l 1
 549 289 l 1
 549 208 l 1
 53 208 l 1
365 78.5174463534 m 0
 365 42.7590313571 337.313192304 14 300.929267773 14 c 0
 264.292682507 14 236 43.1598406534 236 78.5652955436 c 0
 236 114.171787973 264.614894983 143 300.90662308 143 c 0
 337.009066381 143 365 114.471719242 365 78.5174463534 c 0
EndSplineSet
EndChar

StartChar: OE
Encoding: 306 338 186
Width: 1052
GlyphClass: 1
Flags: W
HStem: -12 81<270.295 457.33> 0 81<655 1014> 304 81<655 920> 588 81<655 1014> 602 78<270.085 454.032>
VStem: 50 96<212.127 464.074> 581 74<209.531 304 385 459.717>
LayerCount: 2
Fore
SplineSet
581 75 m 1x76
 539.978542612 32.9530061781 470.777136318 -12 363.039841258 -12 c 0
 167.159149194 -12 50 136.596939319 50 335.061754439 c 0
 50 532.351992709 165.776483883 680 366.43845655 680 c 0xae
 399.401570491 680 499.958273977 676.015682871 581 597 c 1
 581 669 l 1
 1014 669 l 1
 1014 588 l 1
 655 588 l 1
 655 385 l 1
 920 385 l 1
 920 304 l 1
 655 304 l 1
 655 81 l 1
 1014 81 l 1
 1014 0 l 1
 581 0 l 1
 581 75 l 1x76
146 336.430944911 m 0
 146 153.525828784 249.508993882 69 362.158816647 69 c 0
 463.106678841 69 581 136.87700395 581 334.232435323 c 0
 581 532.503840087 462.009797532 602 361.697722676 602 c 0
 256.237053848 602 146 525.186876846 146 336.430944911 c 0
EndSplineSet
EndChar

StartChar: oe
Encoding: 307 339 187
Width: 927
GlyphClass: 1
Flags: W
HStem: -12 74<204.145 347.755 591.384 753.306> 225 67<517 809> 431 74<203.264 348.164 581.855 745.087>
VStem: 38 89<146.119 347.337> 424 92<142.141 225 292 346.86>
LayerCount: 2
Fore
SplineSet
470 88 m 1
 453.675694871 63.5135423074 393.751020383 -12 280.368848132 -12 c 0
 178.936584603 -12 38 48.4348615012 38 244.546348474 c 0
 38 432.487746373 167.438235222 505 274.15108895 505 c 0
 311.722567594 505 410.838733222 496.011349189 471 404 c 1
 494.189242358 438.783863537 553.311811247 505 663.458834589 505 c 0
 818.880392855 505 909.182032726 373.161933594 898 225 c 1
 516 225 l 1
 518.001406939 162.956384884 540.338623988 102.873998633 608.045752926 74.8239023592 c 0
 629.000543226 66.1426320921 650.751797284 62 673.226439322 62 c 0
 702.240870332 62 750.558054029 68.9042882576 785 111 c 1
 866 87 l 1
 841.223058618 48.949697164 783.485161564 -12 670.525365536 -12 c 0
 618.723782341 -12 526.858027191 0.817691640508 470 88 c 1
809 292 m 1
 807.132699148 359.222830646 759.752963224 433 666.421467776 433 c 0
 614.513755485 433 526.454342509 410.179281341 517 292 c 1
 809 292 l 1
127 247.91236134 m 0
 127 111.14638996 211.997995586 62 274.653300481 62 c 0
 327.715506444 62 424 97.2489779379 424 245.196254881 c 0
 424 386.594170242 336.051505117 431 276.380926057 431 c 0
 219.40307584 431 127 390.511507854 127 247.91236134 c 0
EndSplineSet
EndChar

StartChar: Aring
Encoding: 197 197 191
Width: 626
GlyphClass: 2
Flags: W
HStem: 0 21G<10 116.986 509.014 616> 146 81<190 436> 574 104<260.996 364.996> 780 58<270.616 355.426>
VStem: 204 57<687.774 770.382> 365 57<687.301 769.774>
DStem2: 10 0 110 0 0.351277 0.936272<35.1277 189.738 275.763 275.763> 377.011 639.535 313 574 0.350049 -0.936731<38.9822 407.084>
AnchorPoint: "Anchor-2" 615 0 basechar 0
AnchorPoint: "Anchor-1" 313 0 basechar 0
AnchorPoint: "Anchor-0" 313 788 basechar 0
LayerCount: 2
Fore
SplineSet
261 728.968501885 m 0
 261 700.700616942 283.402428243 678 312.995826045 678 c 0
 342.64273894 678 365 700.782792302 365 729.025537713 c 0
 365 757.258122524 342.658822526 780 313.030740776 780 c 0
 283.378794635 780 261 757.221472185 261 728.968501885 c 0
190 227 m 1
 436 227 l 1
 313 574 l 1
 190 227 l 1
422 729.937235776 m 0
 422 710.894941932 417.1492527 669.2969258 377.010682896 639.53541257 c 1
 616 0 l 1
 516 0 l 1
 465 146 l 1
 161 146 l 1
 110 0 l 1
 10 0 l 1
 250.376862955 640.685742297 l 1
 237.028313222 650.340639898 204 679.313523068 204 728.177317912 c 0
 204 787.016641818 251.890278013 838 314.659240857 838 c 0
 376.765763663 838 422 788.087081737 422 729.937235776 c 0
EndSplineSet
EndChar

StartChar: Ccedilla
Encoding: 199 199 202
Width: 656
GlyphClass: 2
Flags: W
HStem: -181 41<267.481 377.621> -81 40<316.734 380.548> -11.8128 78.8128<365.319 453.661> 499 21G<516.244 586.667> 601 79<269.378 451.398>
VStem: 50 96<206.589 456.876> 382 62<-134.082 -82.9486>
AnchorPoint: "Anchor-1" 352 -181 basechar 0
AnchorPoint: "Anchor-0" 353 668 basechar 0
LayerCount: 2
Fore
SplineSet
444 -102.114965436 m 0
 444 -140.00807441 411.685602874 -181 347.223115195 -181 c 0
 321.484270875 -181 294.008346973 -174.464748837 259 -161 c 1
 273 -126 l 1
 301.468851022 -137.722468069 319.376862317 -140 331.414283417 -140 c 0
 365.612702707 -140 382 -121.617285901 382 -105.496192783 c 0
 382 -91.8205306915 370.207250258 -81 347.684825075 -81 c 0
 322.985788775 -81 306.299669903 -94.0130252425 293.187889562 -81.7753635904 c 0
 288.992557998 -77.8597207978 287 -73.0733295485 287 -67.2199886452 c 0
 287 -63.0733295485 288 -59.6666666667 290 -57 c 2
 318.926399804 -10.4908865899 l 1
 155.198957772 4.41252065603 50 137.344100835 50 333.497978499 c 0
 50 553.839260593 182.742314471 680 355.651639711 680 c 0
 415.254155266 680 550.653116893 665.009484316 614 529 c 1
 532 499 l 1
 500.488596013 563.455144517 436.858190757 601 358.39463308 601 c 0
 234.68145351 601 146 507.664602166 146 325.197008192 c 0
 146 300.694053713 147.599183198 165.573734799 247.939568168 99.3697694565 c 0
 280.855375992 77.652123057 318.865795961 67 361.488717397 67 c 0
 444.444543307 67 505.174999619 107.349999236 536 169 c 1
 618 139 l 1
 570.175213207 40.6934938138 474.936223535 -8.45659500148 365.318675836 -11.8128294679 c 1
 345 -45 l 1
 356.605911711 -42.0985220721 366.287311915 -41 375.292940511 -41 c 0
 422.53744246 -41 444 -71.233141254 444 -102.114965436 c 0
EndSplineSet
EndChar

StartChar: ccedilla
Encoding: 231 231 203
Width: 500
GlyphClass: 2
Flags: W
HStem: -181 41<189.481 299.621> -81 40<238.734 302.548> 430 74<199.202 346.763>
VStem: 38 91<144.97 353.043> 304 62<-134.082 -82.9486>
AnchorPoint: "Anchor-1" 274 -181 basechar 0
AnchorPoint: "Anchor-0" 275 496 basechar 0
LayerCount: 2
Fore
SplineSet
366 -102.114965436 m 0
 366 -140.00807441 333.685602874 -181 269.223115195 -181 c 0
 243.484270875 -181 216.008346973 -174.464748837 181 -161 c 1
 195 -126 l 1
 223.468851022 -137.722468069 241.376862317 -140 253.414283417 -140 c 0
 287.612702707 -140 304 -121.617285901 304 -105.496192783 c 0
 304 -91.8205306915 292.207250258 -81 269.684825075 -81 c 0
 244.985788775 -81 228.299669903 -94.0130252425 215.187889562 -81.7753635904 c 0
 210.992557998 -77.8597207978 209 -73.0733295485 209 -67.2199886452 c 0
 209 -63.0733295485 210 -59.6666666667 212 -57 c 2
 240.852973842 -10.6089440188 l 1
 119.481366341 1.73364495141 38 102.203701623 38 244.184103083 c 0
 38 400.586144545 136.87496396 504 270.369860451 504 c 0
 309.964165186 504 411.311660245 494.902651198 465 392 c 1
 388 364 l 1
 382.009862659 375.231507513 348.912854406 430 277.613050768 430 c 0
 249.356502787 430 129 421.398140829 129 250.782514445 c 0
 129 125.88958481 193.492268909 62 270.934471051 62 c 0
 289.427981355 62 354.939117023 65.6434547904 390 127 c 1
 467 99 l 1
 429.549932701 34.7998846321 361.121857431 -6.17763195765 287.598848957 -11.3552133705 c 1
 267 -45 l 1
 278.605911711 -42.0985220721 288.287311915 -41 297.292940511 -41 c 0
 344.53744246 -41 366 -71.233141254 366 -102.114965436 c 0
EndSplineSet
EndChar

StartChar: Eth
Encoding: 208 208 248
Width: 712
GlyphClass: 2
Flags: W
HStem: 0 79<209 438.12> 303 80<20 115 209 349> 589 79<209 440.621>
VStem: 115 94<79 303 383 589> 566 96<202.999 462.099>
AnchorPoint: "Anchor-1" 376 0 basechar 0
AnchorPoint: "Anchor-0" 366 668 basechar 0
LayerCount: 2
Fore
SplineSet
662 336.666911427 m 0
 662 113.480527693 548.346548612 0 297 0 c 2
 115 0 l 1
 115 303 l 1
 20 303 l 1
 20 383 l 1
 115 383 l 1
 115 668 l 1
 297 668 l 2
 594.710148351 668 662 508.398887183 662 336.666911427 c 0
566 332.741275017 m 0
 566 532.698024535 468.813599583 589 295 589 c 2
 209 589 l 1
 209 383 l 1
 349 383 l 1
 349 303 l 1
 209 303 l 1
 209 79 l 1
 295 79 l 2
 476.140001378 79 566 140.469062632 566 332.741275017 c 0
EndSplineSet
EndChar

StartChar: one.tf
Encoding: 316 -1 250
Width: 639
GlyphClass: 1
Flags: W
HStem: 0 77<109 287 370 530> 504 67<109 244.544> 648 20G<302.137 370>
VStem: 287 83<77 504> 314 56<628.276 668>
LayerCount: 2
Fore
SplineSet
109 571 m 1xf0
 229.249748462 571 290.27465689 598.518638033 314 668 c 1
 370 668 l 1xe8
 370 77 l 1
 530 77 l 1
 530 0 l 1
 109 0 l 1
 109 77 l 1
 287 77 l 1
 287 504 l 1
 109 504 l 1
 109 571 l 1xf0
EndSplineSet
Substitution2: "'pnum' Proportional Numbers lookup 13 subtable" one
Substitution2: "'aalt' Access All Alternates lookup 0 subtable" one
EndChar

StartChar: Aogonek
Encoding: 327 260 261
Width: 626
GlyphClass: 2
Flags: W
HStem: -173 58<532.691 614.161> 0 21G<10 116.986> 146 81<190 436> 574 95<261 366>
VStem: 458 70<-109.163 -34.8307>
DStem2: 10 0 110 0 0.351277 0.936272<35.1277 189.738 275.763 643.857> 366 669 313 574 0.350049 -0.936731<70.4369 438.539 524.565 556.55 632.86 679.181>
AnchorPoint: "Anchor-2" 615 0 basechar 0
AnchorPoint: "Anchor-1" 313 0 basechar 0
AnchorPoint: "Anchor-0" 313 668 basechar 0
LayerCount: 2
Fore
SplineSet
576.839636364 -115 m 0
 589.29537447 -115 601.843612346 -112.262555062 615 -107 c 1
 615 -161 l 1
 592.333333333 -169 570.904676985 -173 551.802514173 -173 c 0
 492.074259984 -173 458 -133.892995772 458 -94.1366226133 c 0
 458 -84.5813619445 459.968330375 -18.9806763951 538 0 c 1
 516 0 l 1
 465 146 l 1
 161 146 l 1
 110 0 l 1
 10 0 l 1
 261 669 l 1
 366 669 l 1
 616 0 l 1
 615 0 l 1
 543.598886529 -26.6004148224 528 -51.8357183372 528 -74.8128540886 c 0
 528 -101.744974498 549.431023555 -115 576.839636364 -115 c 0
190 227 m 1
 436 227 l 1
 313 574 l 1
 190 227 l 1
EndSplineSet
EndChar

StartChar: aogonek
Encoding: 328 261 262
Width: 526
GlyphClass: 2
Flags: W
HStem: -173 58<392.691 474.161> -12 67<157.713 313.926> 239 67<241.756 373> 437 67<186.473 334.55>
VStem: 38 93<81.7562 179.123> 318 70<-109.163 -34.8307> 373 85<304.726 397.542> 380 78<119.962 239>
AnchorPoint: "Anchor-2" 475 0 basechar 0
AnchorPoint: "Anchor-1" 263 0 basechar 0
AnchorPoint: "Anchor-0" 263 496 basechar 0
LayerCount: 2
Fore
SplineSet
436.839636364 -115 m 0xfc
 449.29537447 -115 461.843612346 -112.262555062 475 -107 c 1
 475 -161 l 1
 452.333333333 -169 430.904676985 -173 411.802514173 -173 c 0
 352.074259984 -173 318 -133.892995772 318 -94.1366226133 c 0xfc
 318 -84.5813619445 319.968330375 -18.9806763951 398 0 c 1
 378 68 l 1
 356.681345788 32.1458997359 310.736967541 -12 215.335678438 -12 c 0
 107.095926591 -12 38 44.8270958767 38 132.159710758 c 0
 38 230.985836651 126.479581368 279.151241536 373 306 c 1xfa
 374.98289892 368.46131599 357.257735308 437 263.632328669 437 c 0
 231.088210574 437 166.270844153 428.718798695 151 360 c 1
 70 384 l 1
 84.2865335179 424.716620526 129.888326258 504 270.002904159 504 c 0
 394.386305597 504 458 441.520094182 458 303 c 2
 458 187 l 2xf9
 458 115.203914438 463.891797102 55.5410144839 475 0 c 1
 403.598886529 -26.6004148224 388 -51.8357183372 388 -74.8128540886 c 0
 388 -101.744974498 409.431023555 -115 436.839636364 -115 c 0xfc
131 131.91092229 m 0
 131 86.9646598935 166.100142031 55 230.887220955 55 c 0
 276.715225442 55 380 70.9939297196 380 208 c 2
 380 239 l 1xf9
 193.923067041 219.412954427 131 192.089800461 131 131.91092229 c 0
EndSplineSet
EndChar

StartChar: Eogonek
Encoding: 333 280 267
Width: 567
GlyphClass: 2
Flags: W
HStem: -173 58<423.691 505.161> 0 81<170 429 460.16 529> 303 81<170 435> 587 81<170 529>
VStem: 76 94<81 303 384 587> 349 70<-109.163 -34.8307>
AnchorPoint: "Anchor-2" 506 0 basechar 0
AnchorPoint: "Anchor-1" 284 0 basechar 0
AnchorPoint: "Anchor-0" 304 668 basechar 0
LayerCount: 2
Fore
SplineSet
467.839636364 -115 m 0
 480.29537447 -115 492.843612346 -112.262555062 506 -107 c 1
 506 -161 l 1
 483.333333333 -169 461.904676985 -173 442.802514173 -173 c 0
 383.074259984 -173 349 -133.892995772 349 -94.1366226133 c 0
 349 -84.5813619445 350.968330375 -18.9806763951 429 0 c 1
 76 0 l 1
 76 668 l 1
 529 668 l 1
 529 587 l 1
 170 587 l 1
 170 384 l 1
 435 384 l 1
 435 303 l 1
 170 303 l 1
 170 81 l 1
 529 81 l 1
 529 0 l 1
 506 0 l 1
 434.598886529 -26.6004148224 419 -51.8357183372 419 -74.8128540886 c 0
 419 -101.744974498 440.431023555 -115 467.839636364 -115 c 0
EndSplineSet
EndChar

StartChar: eogonek
Encoding: 334 281 268
Width: 539
GlyphClass: 2
Flags: W
HStem: -173 58<281.69 363.161> 225 67<129 421> 432 72<194.238 356.052>
VStem: 38 90<138.119 225 292 360.342> 207 70<-108.719 -34.9444>
AnchorPoint: "Anchor-2" 365 0 basechar 0
AnchorPoint: "Anchor-1" 270 0 basechar 0
AnchorPoint: "Anchor-0" 281 496 basechar 0
LayerCount: 2
Fore
SplineSet
325.844397373 -115 m 0
 338.297234227 -115 350.8467221 -112.26131116 364 -107 c 1
 364 -161 l 1
 341.333333333 -169 319.904676985 -173 300.802514173 -173 c 0
 241.074259984 -173 207 -133.892995772 207 -92.7612774164 c 0
 207 -80.7209608595 209.919769291 -36.7807214613 257.342808373 -11.1672602369 c 1
 118.221906946 -1.12721885244 38 107.816082298 38 246.600085427 c 0
 38 406.936466757 145.072592002 504 276.920421555 504 c 0
 428.503244365 504 521.373953885 375.704888959 510 225 c 1
 128 225 l 1
 130.001406939 162.956384884 152.338623988 102.873998633 220.045752926 74.8239023592 c 0
 241.000543226 66.1426320921 262.751797284 62 284.876350905 62 c 0
 309.528010318 62 363.11052859 67.1430369971 397 111 c 1
 478 87 l 1
 421.878085761 -2.37934489875 335.0300616 3.6420101539 293.291774911 -39.2556751125 c 0
 282.234859839 -50.6197271718 277 -62.6866530922 277 -75.598341318 c 0
 277 -101.714448944 298.416864846 -115 325.844397373 -115 c 0
421 292 m 1
 421 354.961879421 373.111693228 432 278.203368726 432 c 0
 241.426556267 432 139.274587795 420.432347425 129 292 c 1
 421 292 l 1
EndSplineSet
EndChar

StartChar: Iogonek
Encoding: 341 302 275
Width: 414
GlyphClass: 2
Flags: W
HStem: -173 58<190.691 272.161> 0 74<66 160 254.357 348> 594 74<66 160 254 348>
VStem: 116 70<-109.163 -34.8307> 160 94<74 594>
AnchorPoint: "Anchor-2" 273 0 basechar 0
AnchorPoint: "Anchor-1" 207 0 basechar 0
AnchorPoint: "Anchor-0" 207 668 basechar 0
LayerCount: 2
Fore
SplineSet
234.839636364 -115 m 0xf0
 247.29537447 -115 259.843612346 -112.262555062 273 -107 c 1
 273 -161 l 1
 250.333333333 -169 228.904676985 -173 209.802514173 -173 c 0
 150.074259984 -173 116 -133.892995772 116 -94.1366226133 c 0xf0
 116 -84.5813619445 117.968330375 -18.9806763951 196 0 c 1
 66 0 l 1
 66 74 l 1
 160 74 l 1
 160 594 l 1
 66 594 l 1
 66 668 l 1
 348 668 l 1
 348 594 l 1
 254 594 l 1
 254 74 l 1xe8
 348 74 l 1
 348 0 l 1
 273 0 l 1
 201.598886529 -26.6004148224 186 -51.8357183372 186 -74.8128540886 c 0
 186 -101.744974498 207.431023555 -115 234.839636364 -115 c 0xf0
EndSplineSet
EndChar

StartChar: iogonek
Encoding: 342 303 276
Width: 278
GlyphClass: 1
Flags: W
HStem: -173 58<115.691 197.161> 429 67<45 114> 590 125<109.301 203.702>
VStem: 41 70<-109.163 -34.8307> 94 125<605.298 700.021> 114 84<0 429>
LayerCount: 2
Fore
SplineSet
159.839636364 -115 m 0xf4
 172.29537447 -115 184.843612346 -112.262555062 198 -107 c 1
 198 -161 l 1
 175.333333333 -169 153.904676985 -173 134.802514173 -173 c 0
 75.0742599838 -173 41 -133.892995772 41 -94.1366226126 c 0
 41 -84.5813619438 42.9683303747 -18.9806763953 121 0 c 1
 114 0 l 1
 114 429 l 1
 45 429 l 1
 45 496 l 1
 198 496 l 1
 198 0 l 1
 126.598886529 -26.6004148224 111 -51.8357183372 111 -74.8128540886 c 0
 111 -101.744974498 132.431023555 -115 159.839636364 -115 c 0xf4
219 653.025728983 m 0xe8
 219 618.006957498 190.859203494 590 156.494763221 590 c 0
 122.163614795 590 94 617.952718192 94 652.907298589 c 0
 94 687.681208098 121.873226806 715 156.480104525 715 c 0
 190.854069739 715 219 688.047694577 219 653.025728983 c 0xe8
EndSplineSet
EndChar

StartChar: Uogonek
Encoding: 355 370 289
Width: 690
GlyphClass: 2
Flags: W
HStem: -173 58<344.69 426.161> -11.4266 80.4266<248.345 319.866> 648 20G<76 170 520 614>
VStem: 76 94<152.599 668> 270 70<-108.696 -34.6961> 520 94<154.83 668>
AnchorPoint: "Anchor-2" 427 0 basechar 0
AnchorPoint: "Anchor-1" 345 0 basechar 0
AnchorPoint: "Anchor-0" 345 668 basechar 0
LayerCount: 2
Fore
SplineSet
388.845255027 -115 m 0
 401.297604263 -115 413.847341021 -112.261063592 427 -107 c 1
 427 -161 l 1
 404.333333333 -169 382.904676985 -173 363.802514173 -173 c 0
 304.074259984 -173 270 -133.892995772 270 -92.7279784425 c 0
 270 -80.6310635596 272.942517655 -37.0781276977 319.86558034 -11.4265776053 c 1
 153.493707729 -3.63169624776 76 84.3493287807 76 279 c 2
 76 668 l 1
 170 668 l 1
 170 272 l 2
 170 135.480053072 221.107531725 69 344.451930597 69 c 0
 471.295871991 69 520 139.305928568 520 272 c 2
 520 668 l 1
 614 668 l 1
 614 279 l 2
 614 85.5197885876 537.490057342 8.38623070976 406.065753103 -8.37530920914 c 1
 354.351837365 -30.7260214447 340 -53.4627191533 340 -75.1801973261 c 0
 340 -101.707488973 361.412853278 -115 388.845255027 -115 c 0
EndSplineSet
EndChar

StartChar: uogonek
Encoding: 356 371 290
Width: 536
GlyphClass: 1
Flags: W
HStem: -173 58<383.691 465.161> -12 74<187.144 318.747> 477 20G<68 152 382 466>
VStem: 68 84<99.3054 497> 309 70<-108.571 -35.5632> 382 84<123.188 497>
LayerCount: 2
Fore
SplineSet
427.839636364 -115 m 0
 440.29537447 -115 452.843612346 -112.262555062 466 -107 c 1
 466 -161 l 1
 443.333333333 -169 421.904676985 -173 402.802514173 -173 c 0
 343.074259984 -173 309 -133.892995772 309 -89.3999626107 c 0
 309 -58.4210346772 325.518673712 -16.3891000352 402.454280799 1.8710372591 c 1
 382 72 l 1
 353.606295905 23.3250786937 307.975570172 -12 217.105561286 -12 c 0
 189.262308954 -12 68 -8.68348532398 68 180 c 2
 68 497 l 1
 152 497 l 1
 152 200 l 2
 152 115.481025425 174.793977489 62 252.764680671 62 c 0
 299.587463792 62 382 81.2864045606 382 224 c 2
 382 497 l 1
 466 497 l 1
 466 0 l 1
 394.598886529 -26.6004148224 379 -51.8357183372 379 -74.8128540886 c 0
 379 -101.744974498 400.431023555 -115 427.839636364 -115 c 0
EndSplineSet
EndChar

StartChar: Hbar
Encoding: 365 294 299
Width: 710
GlyphClass: 2
Flags: W
HStem: 0 21G<86 180 530 624> 303 81<180 530> 504 77<10 86 180 530 624 700> 648 20G<86 180 530 624>
VStem: 86 94<0 303 384 504 581 668> 530 94<0 303 384 504 581 668>
AnchorPoint: "Anchor-1" 355 0 basechar 0
AnchorPoint: "Anchor-0" 355 668 basechar 0
LayerCount: 2
Fore
SplineSet
86 0 m 1
 86 504 l 1
 10 504 l 1
 10 581 l 1
 86 581 l 1
 86 668 l 1
 180 668 l 1
 180 581 l 1
 530 581 l 1
 530 668 l 1
 624 668 l 1
 624 581 l 1
 700 581 l 1
 700 504 l 1
 624 504 l 1
 624 0 l 1
 530 0 l 1
 530 303 l 1
 180 303 l 1
 180 0 l 1
 86 0 l 1
180 384 m 1
 530 384 l 1
 530 504 l 1
 180 504 l 1
 180 384 l 1
EndSplineSet
EndChar

StartChar: hbar
Encoding: 366 295 300
Width: 581
GlyphClass: 1
Flags: W
HStem: 0 21G<105 189 429 513> 432 72<253.583 387.826> 548 67<20 105 189 349> 648 20G<105 189>
VStem: 105 84<0 371.354 421 548 615 668> 429 84<0 386.944>
LayerCount: 2
Fore
SplineSet
307.213338743 432 m 0
 299.955684192 432 189 431.719043479 189 269 c 2
 189 0 l 1
 105 0 l 1
 105 548 l 1
 20 548 l 1
 20 615 l 1
 105 615 l 1
 105 668 l 1
 189 668 l 1
 189 615 l 1
 349 615 l 1
 349 548 l 1
 189 548 l 1
 189 421 l 1
 219.764302222 472.273837036 270.889141086 504 348.893761214 504 c 0
 419.346137299 504 513 478.119766656 513 314 c 2
 513 0 l 1
 429 0 l 1
 429 289 l 2
 429 380.406363364 405.563438459 432 307.213338743 432 c 0
EndSplineSet
EndChar

StartChar: dcroat
Encoding: 385 273 319
Width: 603
GlyphClass: 1
Flags: W
HStem: -12 72<197.705 345.101> 0 21G<428.133 513> 432 72<200.031 344.484> 548 67<249 412 496 578> 648 20G<412 496>
VStem: 38 94<139.605 354.91> 412 84<133.158 357.466 418 548 615 668>
LayerCount: 2
Fore
SplineSet
412 75 m 1x7e
 382.550968515 21.4563063914 327.965002793 -12 256.21547869 -12 c 0xbe
 139.197024762 -12 38 76.9915261468 38 244.846913523 c 0
 38 408.775792676 134.517955501 504 253.948740641 504 c 0
 291.615388371 504 368.830199563 494.528282592 412 418 c 1
 412 548 l 1
 249 548 l 1
 249 615 l 1
 412 615 l 1
 412 668 l 1
 496 668 l 1
 496 615 l 1
 578 615 l 1
 578 548 l 1
 496 548 l 1
 496 187 l 2
 496 117.098474185 501.777739985 56.1113000733 513 0 c 1
 434 0 l 1
 412 75 l 1x7e
132 252.153680006 m 0
 132 207.309631624 140.68587501 60 270.407275818 60 c 0
 357.232440855 60 414 125.993189535 414 240.868455659 c 0
 414 286.480318841 405.050417291 432 275.255284857 432 c 0
 187.559779818 432 132 365.570713199 132 252.153680006 c 0
EndSplineSet
EndChar

StartChar: Scedilla
Encoding: 393 350 327
Width: 596
GlyphClass: 2
Flags: W
HStem: -181 41<217.481 327.621> -81 40<266.734 330.548> 601 79<196.92 381.301>
VStem: 46 97<443.712 553.21> 332 62<-134.082 -82.9486> 457 99<122.119 241.612>
DStem2: 286 392 238 313 0.975916 -0.218146<-124.373 172.147>
AnchorPoint: "Anchor-1" 302 -181 basechar 0
AnchorPoint: "Anchor-0" 298 668 basechar 0
LayerCount: 2
Fore
SplineSet
394 -102.114965436 m 0
 394 -140.00807441 361.685602874 -181 297.223115195 -181 c 0
 271.484270875 -181 244.008346973 -174.464748837 209 -161 c 1
 223 -126 l 1
 251.468851022 -137.722468069 269.376862317 -140 281.414283417 -140 c 0
 315.612702707 -140 332 -121.617285901 332 -105.496192783 c 0
 332 -91.8205306915 320.207250258 -81 297.684825075 -81 c 0
 272.985788775 -81 256.299669903 -94.0130252425 243.187889562 -81.7753635904 c 0
 238.992557998 -77.8597207978 237 -73.0733295485 237 -67.2199886452 c 0
 237 -63.0733295485 238 -59.6666666667 240 -57 c 2
 268.650435253 -10.9345942988 l 1
 220.286099049 -7.1404341145 83.6037726788 15.1886819637 40 146 c 1
 127 172 l 1
 153.879313847 91.3620584595 238.795235135 67 301.030315761 67 c 0
 379.075305971 67 457 105.31188575 457 186.078856286 c 0
 457 240.11448277 422.120688711 268.550093438 323 294 c 2
 238 313 l 1
 106.443560279 347.319071231 46 401.413356938 46 492.150631789 c 0
 46 635.548391728 196.960493939 680 291.683657987 680 c 0
 364.750707566 680 474.870708688 653.55045364 523 555 c 1
 437 530 l 1
 411.236056164 577.459896538 347.138568445 601 287.896405761 601 c 0
 221.71762999 601 143 571.624584622 143 496.701254539 c 0
 143 436.191329481 194.344165078 413.15134652 286 392 c 2
 359 376 l 2
 505.995332996 341.412862824 556 276.837933193 556 191.24672644 c 0
 556 137.6865242 536.41891932 41.5149666921 392.526707477 1.28703649901 c 0
 366.705125868 -5.93190029514 341.381821835 -10.0908444393 315.523211266 -11.4787549327 c 1
 295 -45 l 1
 306.605911711 -42.0985220721 316.287311915 -41 325.292940511 -41 c 0
 372.53744246 -41 394 -71.233141254 394 -102.114965436 c 0
EndSplineSet
Substitution2: "'locl' Localized Forms in Latin lookup 8 subtable" uni0218
Substitution2: "'aalt' Access All Alternates lookup 0 subtable" uni0218
EndChar

StartChar: scedilla
Encoding: 394 351 328
Width: 471
GlyphClass: 2
Flags: W
HStem: -181 41<149.481 259.621> -81 40<198.734 262.548> -11.8882 70.8882<247.273 322.478> 434 71<149.398 306.509>
VStem: 41 85<326.137 410.708> 264 62<-134.082 -82.9486> 356 85<90.2649 181.364>
DStem2: 218 299 177 231 0.980031 -0.198847<-88.2524 144.006>
AnchorPoint: "Anchor-1" 234 -181 basechar 0
AnchorPoint: "Anchor-0" 240 496 basechar 0
LayerCount: 2
Fore
SplineSet
326 -102.114965436 m 0
 326 -140.00807441 293.685602874 -181 229.223115195 -181 c 0
 203.484270875 -181 176.008346973 -174.464748837 141 -161 c 1
 155 -126 l 1
 183.468851022 -137.722468069 201.376862317 -140 213.414283417 -140 c 0
 247.612702707 -140 264 -121.617285901 264 -105.496192783 c 0
 264 -91.8205306915 252.207250258 -81 229.684825075 -81 c 0
 204.985788775 -81 188.299669903 -94.0130252425 175.187889562 -81.7753635904 c 0
 170.992557998 -77.8597207978 169 -73.0733295485 169 -67.2199886452 c 0
 169 -63.0733295485 170 -59.6666666667 172 -57 c 2
 201.600285033 -9.40738484943 l 1
 158.472146288 -3.38153172163 68.1784245434 20.147421716 31 112 c 1
 112 142 l 1
 126.565171288 83.7393148447 183.825835615 59 237.809097231 59 c 0
 285.604268632 59 356 78.3926640113 356 136.320680997 c 0
 356 184.061534084 308.186630307 204.562673939 246 217 c 2
 177 231 l 2
 87.4056559774 250.909854226 41 290.117413468 41 360.043740022 c 0
 41 470.91319472 157.657673507 505 230.588865558 505 c 0
 261.982089009 505 377.941319252 498.684154494 418 404 c 1
 339 375 l 1
 321.405919607 415.601723982 271.626791042 434 230.852353109 434 c 0
 221.602803663 434 126 433.053234725 126 368.439695647 c 0
 126 327.449258687 164.475889246 309.979304769 218 299 c 2
 283 286 l 2
 392.889935968 264.022012808 441 219.411918104 441 144.402070471 c 0
 441 27.8100016268 324.764875376 -9.78482188384 247.272501778 -11.8882470966 c 1
 227 -45 l 1
 238.605911711 -42.0985220721 248.287311915 -41 257.292940511 -41 c 0
 304.53744246 -41 326 -71.233141254 326 -102.114965436 c 0
EndSplineSet
Substitution2: "'locl' Localized Forms in Latin lookup 8 subtable" uni0219
Substitution2: "'aalt' Access All Alternates lookup 0 subtable" uni0219
EndChar

StartChar: uni0162
Encoding: 396 354 330
Width: 558
GlyphClass: 2
Flags: W
HStem: -181 41<198.481 308.621> -81 40<247.734 311.548> 0 21G<303.551 326> 587 81<10 232 326 548>
VStem: 232 94<2.22045e-16 587> 313 62<-134.082 -82.9486>
AnchorPoint: "Anchor-1" 269 -250 basechar 0
AnchorPoint: "Anchor-0" 279 668 basechar 0
LayerCount: 2
Fore
SplineSet
375 -102.114965436 m 0xf4
 375 -140.00807441 342.685602874 -181 278.223115195 -181 c 0
 252.484270875 -181 225.008346973 -174.464748837 190 -161 c 1
 204 -126 l 1
 232.468851022 -137.722468069 250.376862317 -140 262.414283417 -140 c 0
 296.612702707 -140 313 -121.617285901 313 -105.496192783 c 0xf4
 313 -91.8205306915 301.207250258 -81 278.684825075 -81 c 0
 253.985788775 -81 237.299669903 -94.0130252425 224.187889562 -81.7753635904 c 0
 219.992557998 -77.8597207978 218 -73.0733295485 218 -67.2199886452 c 0
 218 -63.0733295485 219 -59.6666666667 221 -57 c 2
 256.451219512 -3.5527136788e-15 l 1
 232 0 l 1
 232 587 l 1
 10 587 l 1
 10 668 l 1
 548 668 l 1
 548 587 l 1
 326 587 l 1
 326 0 l 1xf8
 303.551020408 2.22044604925e-16 l 1
 276 -45 l 1
 287.605911711 -42.0985220721 297.287311915 -41 306.292940511 -41 c 0
 353.53744246 -41 375 -71.233141254 375 -102.114965436 c 0xf4
EndSplineSet
Substitution2: "'locl' Localized Forms in Latin lookup 8 subtable" uni021A
Substitution2: "'aalt' Access All Alternates lookup 0 subtable" uni021A
EndChar

StartChar: acutecomb
Encoding: 398 769 332
Width: 162
GlyphClass: 4
Flags: W
HStem: 571 136<87.7318 94.9287>
VStem: 0 162
AnchorPoint: "Anchor-4" 81 707 basemark 0
AnchorPoint: "Anchor-4" 47 496 mark 0
AnchorPoint: "Anchor-0" 47 496 mark 0
LayerCount: 2
Fore
SplineSet
124.867488475 707 m 0
 145.649176413 707 162 691.144470368 162 655.207880363 c 1
 162 655.207880363 162 646.818181817 88.2262760369 586.457862211 c 0
 77.3658419719 577.572052522 72 573 70 571 c 2
 0 571 l 1
 0.899123884782 572.198831847 76.4937133569 672.286721595 90.0303756226 688.212206614 c 0
 101.121237551 701.260279472 112.36386706 707 124.867488475 707 c 0
EndSplineSet
Substitution2: "'case' Case-Sensitive Forms lookup 15 subtable" acutecomb.case
Substitution2: "Single Substitution lookup 7 subtable" acutecomb.case
Substitution2: "Single Substitution lookup 6 subtable" acutecomb.case
Substitution2: "Single Substitution lookup 4 subtable" acutecomb.case
Substitution2: "Single Substitution lookup 3 subtable" acutecomb.case
Substitution2: "'aalt' Access All Alternates lookup 0 subtable" acutecomb.case
EndChar

StartChar: acutecomb.case
Encoding: 399 -1 333
Width: 0
GlyphClass: 4
Flags: W
HStem: 744 120
VStem: 0 172
AnchorPoint: "Anchor-4" 86 864 basemark 0
AnchorPoint: "Anchor-4" 58 668 mark 0
AnchorPoint: "Anchor-0" 58 668 mark 0
LayerCount: 2
Fore
SplineSet
136.073678685 864 m 0
 155.88628955 864 172 848.446265092 172 823.67269544 c 0
 172 806.979243158 164.683376672 796.874504896 90.8091602158 753.011688878 c 0
 82.4977166275 748.076769248 78 745.333333333 76 744 c 2
 0 744 l 1
 1.07733234371 745.077332344 91.1521850277 838.629357274 107.904444684 852.868777982 c 0
 116.398884583 860.089051896 126.138735452 864 136.073678685 864 c 0
EndSplineSet
EndChar

StartChar: uni0306
Encoding: 400 774 334
Width: 294
GlyphClass: 4
Flags: W
HStem: 569 67<91.3183 201.994>
VStem: 0 294
AnchorPoint: "Anchor-4" 147 689 basemark 0
AnchorPoint: "Anchor-4" 147 496 mark 0
AnchorPoint: "Anchor-0" 147 496 mark 0
LayerCount: 2
Fore
SplineSet
294 689 m 1
 280.548493482 620.397316762 219.670751002 569 146.560521353 569 c 0
 73.4764952684 569 14.8046022317 620.360480562 0 689 c 1
 69 689 l 1
 81.2015427751 657.818279575 111.255757371 636 146.432698203 636 c 0
 181.808139332 636 211.550091947 658.06521148 225 689 c 1
 294 689 l 1
EndSplineSet
Substitution2: "'case' Case-Sensitive Forms lookup 15 subtable" uni0306.case
Substitution2: "Single Substitution lookup 7 subtable" uni0306.case
Substitution2: "Single Substitution lookup 6 subtable" uni0306.case
Substitution2: "Single Substitution lookup 4 subtable" uni0306.case
Substitution2: "Single Substitution lookup 3 subtable" uni0306.case
Substitution2: "'aalt' Access All Alternates lookup 0 subtable" uni0306.case
EndChar

StartChar: uni030C
Encoding: 402 780 336
Width: 323
GlyphClass: 4
Flags: W
HStem: 569 120
VStem: 0 323
DStem2: 94 689 0 689 0.742634 -0.669697<0 90.608> 161 628 211 588 0.742634 0.669697<0 91.3507>
AnchorPoint: "Anchor-4" 162 689 basemark 0
AnchorPoint: "Anchor-4" 162 496 mark 0
AnchorPoint: "Anchor-0" 162 496 mark 0
LayerCount: 2
Fore
SplineSet
161.5 569 m 0
 141.833333333 569 125.333333333 575.333333333 112 588 c 2
 0 689 l 1
 94 689 l 1
 161 628 l 1
 229 689 l 1
 323 689 l 1
 211 588 l 2
 197.666666667 575.333333333 181.166666667 569 161.5 569 c 0
EndSplineSet
Substitution2: "'case' Case-Sensitive Forms lookup 15 subtable" uni030C.case
Substitution2: "Single Substitution lookup 7 subtable" uni030C.case
Substitution2: "Single Substitution lookup 6 subtable" uni030C.case
Substitution2: "Single Substitution lookup 4 subtable" uni030C.case
Substitution2: "Single Substitution lookup 3 subtable" uni030C.case
Substitution2: "'aalt' Access All Alternates lookup 0 subtable" uni030C.case
EndChar

StartChar: uni030C.alt
Encoding: 403 -1 337
Width: 0
GlyphClass: 1
Flags: W
HStem: 495 183<48.6537 69>
VStem: 45.329 74.671<575.4 674.637>
LayerCount: 2
Fore
SplineSet
82.3486383951 678 m 0
 104.870273327 678 120 660.637901896 120 642.573491771 c 0
 120 636.733981045 118.418983385 629.934528705 115.256950153 621.803586107 c 0
 113.752316719 617.934528705 112.333333333 613.666666667 111 609 c 2
 69 495 l 1
 20 495 l 1
 21.2318948089 501.159474044 38.923034074 626.138315851 45.3290138296 647.918647021 c 0
 46.6182014828 652.301885042 54.9487089012 678 82.3486383951 678 c 0
EndSplineSet
EndChar

StartChar: uni0327
Encoding: 405 807 339
Width: 0
GlyphClass: 4
Flags: W
HStem: -181 41<8.48114 118.621> -81 40<57.7336 121.548>
VStem: 123 62<-134.082 -82.9486>
DStem2: 31 -57 86 -45 0.528136 0.84916<39.2374 96.566>
AnchorPoint: "Anchor-3" 93 -181 basemark 0
AnchorPoint: "Anchor-3" 89 0 mark 0
AnchorPoint: "Anchor-1" 89 0 mark 0
LayerCount: 2
Fore
SplineSet
185 -102.114965436 m 0
 185 -140.00807441 152.685602874 -181 88.2231151946 -181 c 0
 62.4842708754 -181 35.0083469749 -174.464748837 0 -161 c 1
 14 -126 l 1
 42.4688510215 -137.722468069 60.3768623151 -140 72.4142834163 -140 c 0
 106.612702707 -140 123 -121.617285901 123 -105.496192783 c 0
 123 -91.8205306911 111.207250258 -81 88.6848250762 -81 c 0
 63.9857887765 -81 47.2996699026 -94.0130252425 34.187889561 -81.7753635903 c 0
 29.9925579976 -77.8597207978 28 -73.0733295485 28 -67.2199886455 c 0
 28 -63.0733295485 29 -59.6666666667 31 -57 c 2
 82 25 l 1
 116 4 l 1
 86 -45 l 1
 97.6059117137 -42.0985220716 107.287311916 -41 116.292940511 -41 c 0
 163.53744246 -41 185 -71.233141254 185 -102.114965436 c 0
EndSplineSet
EndChar

StartChar: uni0302
Encoding: 406 770 340
Width: 323
GlyphClass: 4
Flags: W
HStem: 575 120
VStem: 0 323
DStem2: 0 575 94 575 0.742634 0.669697<69.8076 160.416> 323 575 161 636 0.742634 -0.669697<-161.158 -69.8076>
AnchorPoint: "Anchor-4" 162 695 basemark 0
AnchorPoint: "Anchor-4" 162 496 mark 0
AnchorPoint: "Anchor-0" 162 496 mark 0
LayerCount: 2
Fore
SplineSet
0 575 m 1
 112 676 l 2
 125.333333333 688.666666667 141.833333333 695 161.5 695 c 0
 181.166666667 695 197.666666667 688.666666667 211 676 c 2
 323 575 l 1
 229 575 l 1
 161 636 l 1
 94 575 l 1
 0 575 l 1
EndSplineSet
Substitution2: "'case' Case-Sensitive Forms lookup 15 subtable" uni0302.case
Substitution2: "Single Substitution lookup 7 subtable" uni0302.case
Substitution2: "Single Substitution lookup 6 subtable" uni0302.case
Substitution2: "Single Substitution lookup 4 subtable" uni0302.case
Substitution2: "Single Substitution lookup 3 subtable" uni0302.case
Substitution2: "'aalt' Access All Alternates lookup 0 subtable" uni0302.case
EndChar

StartChar: uni0302.case
Encoding: 407 -1 341
Width: 0
GlyphClass: 4
Flags: W
HStem: 747 120
VStem: 0 323
DStem2: 0 747 94 747 0.742634 0.669697<69.8076 160.416> 323 747 161 808 0.742634 -0.669697<-161.158 -69.8076>
AnchorPoint: "Anchor-4" 162 867 basemark 0
AnchorPoint: "Anchor-4" 162 668 mark 0
AnchorPoint: "Anchor-0" 162 668 mark 0
LayerCount: 2
Fore
SplineSet
0 747 m 1
 112 848 l 2
 125.333333333 860.666666667 141.833333333 867 161.5 867 c 0
 181.166666667 867 197.666666667 860.666666667 211 848 c 2
 323 747 l 1
 229 747 l 1
 161 808 l 1
 94 747 l 1
 0 747 l 1
EndSplineSet
EndChar

StartChar: uni0326
Encoding: 408 806 342
Width: 0
GlyphClass: 4
Flags: W
HStem: -250 34<40 65.6295>
VStem: 94 66<-194.505 -98.3256>
AnchorPoint: "Anchor-3" 80 -250 basemark 0
AnchorPoint: "Anchor-3" 90 0 mark 0
AnchorPoint: "Anchor-1" 90 0 mark 0
LayerCount: 2
Fore
SplineSet
104 -56 m 1
 128.563404191 -69.1004822351 160 -95.5719163877 160 -144.454282395 c 0
 160 -205.290485118 111.308262608 -250 40 -250 c 1
 0 -216 l 1
 25.2347398921 -216 94 -210.367550003 94 -147.072794692 c 0
 94 -119.257204785 80.7196295668 -95.1141534168 44 -82 c 1
 104 -56 l 1
EndSplineSet
EndChar

StartChar: uni0308
Encoding: 409 776 343
Width: 319
GlyphClass: 4
Flags: W
HStem: 590 107<10.7605 97.5808 222.403 308.582>
VStem: 0 108<600.786 686.473> 212 107<600.796 686.468>
AnchorPoint: "Anchor-4" 160 697 basemark 0
AnchorPoint: "Anchor-4" 160 496 mark 0
AnchorPoint: "Anchor-0" 160 496 mark 0
LayerCount: 2
Fore
SplineSet
108 643.975504481 m 0
 108 614.332220196 84.762505061 590 54.4867028609 590 c 0
 24.1764812544 590 0 614.387576393 0 643.935207646 c 0
 0 673.294757993 23.8696774771 697 54.4368845073 697 c 0
 84.8170484912 697 108 673.583978725 108 643.975504481 c 0
319 643.972120981 m 0
 319 614.333158485 295.762623381 590 265.500804054 590 c 0
 235.184920244 590 212 614.420181329 212 643.952426348 c 0
 212 673.273215673 234.85409326 697 265.429836759 697 c 0
 295.8043907 697 319 673.584434668 319 643.972120981 c 0
EndSplineSet
Substitution2: "'case' Case-Sensitive Forms lookup 15 subtable" uni0308.case
Substitution2: "Single Substitution lookup 7 subtable" uni0308.case
Substitution2: "Single Substitution lookup 6 subtable" uni0308.case
Substitution2: "Single Substitution lookup 4 subtable" uni0308.case
Substitution2: "Single Substitution lookup 3 subtable" uni0308.case
Substitution2: "'aalt' Access All Alternates lookup 0 subtable" uni0308.case
EndChar

StartChar: uni0307
Encoding: 411 775 345
Width: 108
GlyphClass: 4
Flags: W
HStem: 590 108<10.8703 97.5846>
VStem: 0 108<600.762 687.478>
AnchorPoint: "Anchor-4" 54 698 basemark 0
AnchorPoint: "Anchor-4" 54 496 mark 0
AnchorPoint: "Anchor-0" 54 496 mark 0
LayerCount: 2
Fore
SplineSet
108 644.438180574 m 0
 108 614.192111467 84.761367938 590 54.5487171825 590 c 0
 24.5358790073 590 0 613.8731786 0 644.368374261 c 0
 0 674.462489784 23.8947197116 698 54.5149906112 698 c 0
 85.160830537 698 108 674.423164038 108 644.438180574 c 0
EndSplineSet
Substitution2: "'case' Case-Sensitive Forms lookup 15 subtable" uni0307.case
Substitution2: "Single Substitution lookup 7 subtable" uni0307.case
Substitution2: "Single Substitution lookup 6 subtable" uni0307.case
Substitution2: "Single Substitution lookup 4 subtable" uni0307.case
Substitution2: "Single Substitution lookup 3 subtable" uni0307.case
Substitution2: "'aalt' Access All Alternates lookup 0 subtable" uni0307.case
EndChar

StartChar: Euro
Encoding: 413 8364 347
Width: 664
GlyphClass: 1
Flags: W
HStem: -12 79<299.423 473.714> 240 51<43 100 197 343> 377 51<43 100 197 418> 500 21G<537.026 600.714> 601 79<299.086 472.725>
VStem: 106 91<180.661 240 428 490.821>
LayerCount: 2
Fore
SplineSet
626 139 m 1
 601.258389152 85.1506116849 535.078724264 -12 387.112744111 -12 c 0
 316.582402605 -12 148.354857599 10.0736301786 106 240 c 1
 15 240 l 1
 43 291 l 1
 100 291 l 1
 100 377 l 1
 15 377 l 1
 43 428 l 1
 106 428 l 1
 120.666666667 505.333333333 152.278942216 566.310379334 201.218563259 611.281922994 c 0
 250.945608883 656.977046 311.872170305 680 381.279656202 680 c 0
 441.231461038 680 562.052717048 662.822777441 623 528 c 1
 545 500 l 1
 529.052106579 534.174057331 485.122083656 601 387.9108713 601 c 0
 336.399296993 601 231.47631522 582.236147035 197 428 c 1
 446 428 l 1
 418 377 l 1
 189 377 l 1
 189 291 l 1
 371 291 l 1
 343 240 l 1
 197 240 l 1
 211.787613833 179.370783283 256.948729358 67 385.337596781 67 c 0
 425.612219479 67 505.517058324 78.0576193011 549 167 c 1
 626 139 l 1
EndSplineSet
EndChar

StartChar: uni2074
Encoding: 414 8308 348
Width: 412
GlyphClass: 1
Flags: W
HStem: 489 57<113 225 293 358>
VStem: 225 68<403 489 546 692>
DStem2: 40 543 113 546 0.618997 0.785394<47.5429 231.538>
LayerCount: 2
Fore
SplineSet
225 403 m 1
 225 489 l 1
 40 489 l 1
 40 543 l 1
 226 779 l 1
 293 779 l 1
 293 546 l 1
 358 546 l 1
 358 489 l 1
 293 489 l 1
 293 403 l 1
 225 403 l 1
113 546 m 1
 225 546 l 1
 225 692 l 1
 113 546 l 1
EndSplineSet
EndChar

StartChar: gravecomb
Encoding: 415 768 349
Width: 162
GlyphClass: 4
Flags: W
HStem: 571 136
VStem: 0 162
AnchorPoint: "Anchor-4" 81 707 basemark 0
AnchorPoint: "Anchor-4" 108 496 mark 0
AnchorPoint: "Anchor-0" 108 496 mark 0
LayerCount: 2
Fore
SplineSet
0 666.705021463 m 0
 0 690.360213588 16.661942786 707 38.984909218 707 c 0
 49.0056943551 707 59.9413055834 703.646892821 69 692 c 2
 162 571 l 1
 92 571 l 1
 9.89714035665 640.139250228 0 648.473684213 0 666.705021463 c 0
EndSplineSet
Substitution2: "'case' Case-Sensitive Forms lookup 15 subtable" gravecomb.case
Substitution2: "Single Substitution lookup 7 subtable" gravecomb.case
Substitution2: "Single Substitution lookup 6 subtable" gravecomb.case
Substitution2: "Single Substitution lookup 4 subtable" gravecomb.case
Substitution2: "Single Substitution lookup 3 subtable" gravecomb.case
Substitution2: "'aalt' Access All Alternates lookup 0 subtable" gravecomb.case
EndChar

StartChar: gravecomb.case
Encoding: 416 -1 350
Width: 0
GlyphClass: 4
Flags: W
HStem: 744 120<61.6768 75.2812>
VStem: 0 173
AnchorPoint: "Anchor-4" 87 864 basemark 0
AnchorPoint: "Anchor-4" 122 668 mark 0
AnchorPoint: "Anchor-0" 122 668 mark 0
LayerCount: 2
Fore
SplineSet
0 828.094662747 m 0
 0 847.694856523 15.3101785252 864 37.7111889873 864 c 0
 47.2008355107 864 58.1853393537 861.073897881 67 851 c 2
 173 744 l 1
 97 744 l 1
 90.1750308779 748.549979414 36.0576555181 779.711569366 17.7159799536 795.11857684 c 0
 5.67518058623 805.232848308 0 816.161375895 0 828.094662747 c 0
EndSplineSet
EndChar

StartChar: uni030B
Encoding: 417 779 351
Width: 308
GlyphClass: 4
Flags: W
HStem: 572 136
VStem: 0 308
AnchorPoint: "Anchor-4" 154 708 basemark 0
AnchorPoint: "Anchor-4" 114 496 mark 0
AnchorPoint: "Anchor-0" 114 496 mark 0
LayerCount: 2
Fore
SplineSet
123.33166346 708 m 0
 145.527340332 708 162 691.655096158 162 668.539363108 c 0
 162 660.335369547 159.925091228 650.650078195 151 643 c 2
 70 572 l 1
 0 572 l 1
 96 695 l 2
 102.666666667 703.666666667 111.903189122 708 123.33166346 708 c 0
268.529125876 708 m 0
 290.213423352 708 308 690.725513885 308 668.173609175 c 0
 308 660.286123959 305.824279874 650.563668463 297 643 c 2
 216 572 l 1
 146 572 l 1
 242 695 l 2
 248.666666667 703.666666667 257.668525422 708 268.529125876 708 c 0
EndSplineSet
Substitution2: "'case' Case-Sensitive Forms lookup 15 subtable" uni030B.case
Substitution2: "Single Substitution lookup 7 subtable" uni030B.case
Substitution2: "Single Substitution lookup 6 subtable" uni030B.case
Substitution2: "Single Substitution lookup 4 subtable" uni030B.case
Substitution2: "Single Substitution lookup 3 subtable" uni030B.case
Substitution2: "'aalt' Access All Alternates lookup 0 subtable" uni030B.case
EndChar

StartChar: dotlessi
Encoding: 419 305 353
Width: 274
GlyphClass: 2
Flags: W
HStem: 0 21G<112 196> 429 67<43 112>
VStem: 112 84<0 429>
AnchorPoint: "Anchor-2" 248 10 basechar 0
AnchorPoint: "Anchor-1" 137 0 basechar 0
AnchorPoint: "Anchor-0" 132 496 basechar 0
LayerCount: 2
Fore
SplineSet
112 0 m 1
 112 429 l 1
 43 429 l 1
 43 496 l 1
 196 496 l 1
 196 0 l 1
 112 0 l 1
EndSplineSet
EndChar

StartChar: uni0304
Encoding: 420 772 354
Width: 276
GlyphClass: 4
Flags: W
HStem: 601 67<0 276>
VStem: 0 276<601 668>
AnchorPoint: "Anchor-4" 138 668 basemark 0
AnchorPoint: "Anchor-4" 138 496 mark 0
AnchorPoint: "Anchor-0" 138 496 mark 0
LayerCount: 2
Fore
SplineSet
0 601 m 1
 0 668 l 1
 276 668 l 1
 276 601 l 1
 0 601 l 1
EndSplineSet
Substitution2: "'case' Case-Sensitive Forms lookup 15 subtable" uni0304.case
Substitution2: "Single Substitution lookup 7 subtable" uni0304.case
Substitution2: "Single Substitution lookup 6 subtable" uni0304.case
Substitution2: "Single Substitution lookup 4 subtable" uni0304.case
Substitution2: "Single Substitution lookup 3 subtable" uni0304.case
Substitution2: "'aalt' Access All Alternates lookup 0 subtable" uni0304.case
EndChar

StartChar: mu
Encoding: 181 181 356
Width: 555
GlyphClass: 1
Flags: W
HStem: -162 21G<70 154> -11 72<190.82 327.073> 0 75<472.642 539.464> 476 20G<70 154 385 469>
VStem: 70 84<-162 22.3565 99.9201 496> 385 84<124.53 496>
LayerCount: 2
Fore
SplineSet
139 24 m 1xdc
 146.298300277 -11.0318413343 154 -48.0000000072 154 -79 c 2
 154 -162 l 1
 70 -162 l 1
 70 496 l 1
 154 496 l 1
 154 198 l 2
 154 131.846077974 169.736608636 61 255.553769833 61 c 0xdc
 305.004914402 61 385 84.5244901962 385 236 c 2
 385 496 l 1
 469 496 l 1
 469 122 l 2
 469 84.5034413018 482.544137251 75 509.584394631 75 c 0
 524.723236565 75 527.872932446 77.9788220743 540 80 c 1
 540 7 l 1
 529.286227902 4.61916175593 507.765810058 0 485.533514263 0 c 0xbc
 459.055751424 0 408.122250801 6.55174706211 390 73 c 1
 371.860376869 40.1759200492 331.193960812 -11 239.973516432 -11 c 0
 216.341530823 -11 172.669713153 -7.56535607996 139 24 c 1xdc
EndSplineSet
EndChar

StartChar: uni0328
Encoding: 422 808 357
Width: 157
GlyphClass: 4
Flags: W
HStem: -173 58<74.6913 156.161> -20 20G<40.9842 157>
VStem: 0 70<-109.163 -34.8307>
AnchorPoint: "Anchor-2" 157 0 mark 0
LayerCount: 2
Fore
SplineSet
118.839636364 -115 m 0
 131.29537447 -115 143.843612346 -112.262555062 157 -107 c 1
 157 -161 l 1
 134.333333333 -169 112.904676985 -173 93.8025141727 -173 c 0
 34.074259984 -173 0 -133.892995772 0 -94.1366226126 c 0
 0 -84.5813619439 1.96833037472 -18.9806763953 80 0 c 1
 157 0 l 1
 85.5988865299 -26.6004148223 70 -51.8357183361 70 -74.812854088 c 0
 70 -101.744974498 91.431023555 -115 118.839636364 -115 c 0
EndSplineSet
Substitution2: "'case' Case-Sensitive Forms lookup 15 subtable" uni0328.case
Substitution2: "Single Substitution lookup 7 subtable" uni0328.case
Substitution2: "Single Substitution lookup 6 subtable" uni0328.case
Substitution2: "Single Substitution lookup 4 subtable" uni0328.case
Substitution2: "Single Substitution lookup 3 subtable" uni0328.case
Substitution2: "'aalt' Access All Alternates lookup 0 subtable" uni0328.case
EndChar

StartChar: uni0328.case
Encoding: 423 -1 358
Width: 0
GlyphClass: 4
Flags: W
HStem: -173 58<75.2954 156.16> -20 20G<29.2607 157>
VStem: 0 70<-109.02 -32.2671>
AnchorPoint: "Anchor-2" 157 0 mark 0
LayerCount: 2
Fore
SplineSet
118.770334393 -115 m 0
 131.268837079 -115 143.799400358 -112.280239857 157 -107 c 1
 157 -161 l 1
 134.333333333 -169 112.904676985 -173 93.8586427697 -173 c 0
 38.4259800108 -173 0 -139.116961238 0 -91.3820611897 c 0
 0 -81.8839568236 1.52134177939 -29.1992938003 57 0 c 1
 157 0 l 1
 98.5214396636 -20.8852001201 70 -40.7549424483 70 -73.5913892033 c 0
 70 -102.21395224 91.6708613139 -115 118.770334393 -115 c 0
EndSplineSet
EndChar

StartChar: uni030A
Encoding: 424 778 359
Width: 218
GlyphClass: 4
Flags: W
HStem: 559 58<66.5109 151.428> 719 58<66.591 151.424>
VStem: 0 57<626.64 709.565> 161 57<627.332 709.753>
AnchorPoint: "Anchor-4" 109 777 basemark 0
AnchorPoint: "Anchor-4" 109 496 mark 0
AnchorPoint: "Anchor-0" 109 496 mark 0
LayerCount: 2
Fore
SplineSet
218 667.832908815 m 0
 218 608.55468387 172.729517474 559 110.716219523 559 c 0
 47.3245690507 559 0 610.782041902 0 668.188247348 c 0
 0 725.870822928 47.781334331 777 110.649916236 777 c 0
 172.766235114 777 218 727.087089417 218 667.832908815 c 0
57 667.968501884 m 0
 57 639.700616942 79.4024282434 617 108.995826045 617 c 0
 138.64273894 617 161 639.782792302 161 668.025537713 c 0
 161 696.258122524 138.658822526 719 109.030740776 719 c 0
 79.3787946354 719 57 696.221472185 57 667.968501884 c 0
EndSplineSet
Substitution2: "'case' Case-Sensitive Forms lookup 15 subtable" uni030A.case
Substitution2: "Single Substitution lookup 7 subtable" uni030A.case
Substitution2: "Single Substitution lookup 6 subtable" uni030A.case
Substitution2: "Single Substitution lookup 4 subtable" uni030A.case
Substitution2: "Single Substitution lookup 3 subtable" uni030A.case
Substitution2: "'aalt' Access All Alternates lookup 0 subtable" uni030A.case
EndChar

StartChar: uni00AD
Encoding: 173 173 362
Width: 348
GlyphClass: 1
Flags: W
HStem: 208 81<38 310>
VStem: 38 272<208 289>
LayerCount: 2
Fore
SplineSet
38 208 m 1
 38 289 l 1
 310 289 l 1
 310 208 l 1
 38 208 l 1
EndSplineSet
EndChar

StartChar: uni0163
Encoding: 427 355 363
Width: 324
GlyphClass: 2
Flags: W
HStem: -181 41<102.481 212.621> -81 40<151.734 215.548> 0 74<207.676 284> 429 67<20 104 188 284>
VStem: 104 84<78.8397 429 496 621> 217 62<-134.082 -82.9486>
DStem2: 163.629 5.10893 180 -45 0.528136 0.84916<-33.9042 0>
AnchorPoint: "Anchor-1" 173 -250 basechar 0
AnchorPoint: "Anchor-0" 162 496 basechar 0
LayerCount: 2
Fore
SplineSet
279 -102.114965436 m 0
 279 -140.00807441 246.685602874 -181 182.223115195 -181 c 0
 156.484270875 -181 129.008346973 -174.464748837 94 -161 c 1
 108 -126 l 1
 136.468851022 -137.722468069 154.376862317 -140 166.414283417 -140 c 0
 200.612702707 -140 217 -121.617285901 217 -105.496192783 c 0
 217 -91.8205306915 205.207250258 -81 182.684825075 -81 c 0
 157.985788775 -81 141.299669903 -94.0130252425 128.187889562 -81.7753635904 c 0
 123.992557998 -77.8597207978 122 -73.0733295485 122 -67.2199886452 c 0
 122 -63.0733295485 123 -59.6666666667 125 -57 c 2
 163.628722298 5.10892604751 l 1
 122.136040007 14.3640146874 104 37.8159133463 104 124 c 2
 104 429 l 1
 20 429 l 1
 20 496 l 1
 104 496 l 1
 104 621 l 1
 188 621 l 1
 188 496 l 1
 284 496 l 1
 284 429 l 1
 188 429 l 1
 188 138 l 2
 188 87.8168960269 192.743042182 74 239 74 c 2
 284 74 l 1
 284 0 l 1
 221 0 l 2
 216.404554439 0 211.96326446 0.0681152577427 207.676130065 0.204345773228 c 2
 180 -45 l 1
 191.605911711 -42.0985220721 201.287311915 -41 210.292940511 -41 c 0
 257.53744246 -41 279 -71.233141254 279 -102.114965436 c 0
EndSplineSet
Substitution2: "'locl' Localized Forms in Latin lookup 8 subtable" uni021B
Substitution2: "'aalt' Access All Alternates lookup 0 subtable" uni021B
EndChar

StartChar: tildecomb
Encoding: 429 771 365
Width: 329
GlyphClass: 4
Flags: W
HStem: 575 63<173.466 267.56> 618 63<70.4984 163.925>
VStem: 0 65<577 613.782>
AnchorPoint: "Anchor-4" 165 681 basemark 0
AnchorPoint: "Anchor-4" 165 496 mark 0
AnchorPoint: "Anchor-0" 165 496 mark 0
LayerCount: 2
Fore
SplineSet
329 649.054486629 m 0xa0
 329 618.752743851 284.798605819 575 232.665205543 575 c 0xa0
 180.982215346 575 143.689365926 618 103.65091108 618 c 0
 81.0786854833 618 68.3333333333 604.333333333 65 577 c 1
 0 577 l 1
 3.19790710751 595.832119633 18.2776451917 681 102.547499437 681 c 0x60
 162.425673878 681 188.633211402 638 230.518862762 638 c 0
 271.914606609 638 263.965928955 680 296.954491434 680 c 0
 316.600872583 680 329 665.103383445 329 649.054486629 c 0xa0
EndSplineSet
Substitution2: "'case' Case-Sensitive Forms lookup 15 subtable" tildecomb.case
Substitution2: "Single Substitution lookup 7 subtable" tildecomb.case
Substitution2: "Single Substitution lookup 6 subtable" tildecomb.case
Substitution2: "Single Substitution lookup 4 subtable" tildecomb.case
Substitution2: "Single Substitution lookup 3 subtable" tildecomb.case
Substitution2: "'aalt' Access All Alternates lookup 0 subtable" tildecomb.case
EndChar

StartChar: zero.alt1
Encoding: 431 -1 367
Width: 648
Flags: W
HStem: -12 74<243.146 402.604> 606 74<245.545 405.975>
VStem: 60 91<192.251 489.135> 497 91<178.703 480.635>
DStem2: 168 190 213 107 0.571572 0.820552<0 419.499>
LayerCount: 2
Fore
SplineSet
588 338.138194867 m 0
 588 191.45539962 548.490885324 -12 309.58149739 -12 c 0
 270.366051833 -12 60 -6.51827687043 60 344.886131921 c 0
 60 415.738956195 68.5521552679 680 321.50414818 680 c 0
 434.033640279 680 588 627.701449443 588 338.138194867 c 0
323.518034069 606 m 0
 189.085953409 606 151 478.814191911 151 333.964589875 c 0
 151 278.092010162 156.666666667 230 168 190 c 1
 431 566 l 1
 403 592.666666667 367.044455424 606 323.518034069 606 c 0
323.979880634 62 m 0
 445.218122109 62 497 167.184825679 497 334.13975599 c 0
 497 394.098215069 490.32148009 444.703411723 477 486 c 1
 213 107 l 1
 241 77 278.196409922 62 323.979880634 62 c 0
EndSplineSet
Substitution2: "'aalt' Access All Alternates lookup 0 subtable" zero
Substitution2: "'tnum' Tabular Numbers lookup 14 subtable" zero
Substitution2: "'zero' Slashed Zero lookup 0-1" zero
EndChar

StartChar: copyleft
Encoding: 432 127279 368
Width: 798
Flags: W
HStem: -12 62<295.375 502.749> 150 59<333.253 455.13> 473 58<338.372 456.89> 618 62<291.902 506.536>
VStem: 53 62<230.156 441.549> 495 76<250.234 431.971> 683 62<226.388 441.084>
LayerCount: 2
Fore
SplineSet
745 334.772868517 m 0
 745 144.046369487 591.123127018 -12 399.198537635 -12 c 0
 208.823198018 -12 53 141.537268825 53 333.217216791 c 0
 53 522.819687503 205.463797346 680 398.097187201 680 c 0
 587.818026747 680 745 527.536779517 745 334.772868517 c 0
115 334.539733286 m 0
 115 177.21204995 240.6708311 50 398.863923225 50 c 0
 555.954780863 50 683 175.44548716 683 333.457681726 c 0
 683 489.992357152 558.319587308 618 399.628165615 618 c 0
 243.019877608 618 115 493.330998068 115 334.539733286 c 0
571 345.884229983 m 0
 571 289.269674913 556.373283232 150 400.840066089 150 c 0
 359.26734522 150 287.145536138 159.950093228 248 230 c 1
 314 254 l 1
 321.7825153 239.033624423 343.782942425 209 393.479856006 209 c 0
 428.715193079 209 495 224.097525467 495 338.118482365 c 0
 495 379.198242124 486.395999579 473 398.039574145 473 c 0
 361.169835281 473 334.333333333 456.666666667 317 424 c 1
 250 449 l 1
 269.553017292 486.047822236 310.996693135 531 392.215054879 531 c 0
 434.845204152 531 571 518.615570846 571 345.884229983 c 0
EndSplineSet
EndChar

StartChar: fi
Encoding: 433 64257 369
Width: 527
Flags: W
HStem: 0 21G<99 183 363 447> 429 67<15 99 183 363> 590 125<358.301 452.702> 635 71<191.215 286>
VStem: 99 84<0 429 496 628.681> 343 125<605.298 700.021> 363 84<0 429>
LayerCount: 2
Fore
SplineSet
234 635 m 2xda
 192.344518474 635 183 621.310000778 183 571 c 2
 183 496 l 1
 447 496 l 1
 447 0 l 1
 363 0 l 1
 363 429 l 1
 183 429 l 1
 183 0 l 1
 99 0 l 1
 99 429 l 1
 15 429 l 1
 15 496 l 1
 99 496 l 1
 99 570 l 2
 99 674.869839992 124.04680021 706 232 706 c 2
 286 706 l 1
 286 635 l 1
 234 635 l 2xda
468 653.025728983 m 0xec
 468 618.006957498 439.859203494 590 405.494763221 590 c 0
 371.163614795 590 343 617.952718192 343 652.907298589 c 0
 343 687.681208098 370.873226806 715 405.480104525 715 c 0
 439.854069739 715 468 688.047694577 468 653.025728983 c 0xec
EndSplineSet
LCarets2: 1 286
Ligature2: "'liga' Standard Ligatures lookup 0-1" f i
EndChar

StartChar: f_f_i
Encoding: 434 64259 370
Width: 791
Flags: W
HStem: 0 21G<99 183 363 447 627 711> 429 67<15 99 183 363 447 627> 590 125<622.301 716.702> 635 71<191.215 286 455.215 550>
VStem: 99 84<0 429 496 628.681> 363 84<0 429 496 628.681> 607 125<605.298 700.021> 627 84<0 429>
LayerCount: 2
Fore
SplineSet
498 635 m 2xdd
 456.344518474 635 447 621.310000778 447 571 c 2
 447 496 l 1
 711 496 l 1
 711 0 l 1
 627 0 l 1
 627 429 l 1
 447 429 l 1
 447 0 l 1
 363 0 l 1
 363 429 l 1
 183 429 l 1
 183 0 l 1
 99 0 l 1
 99 429 l 1
 15 429 l 1
 15 496 l 1
 99 496 l 1
 99 570 l 2
 99 674.869839992 124.04680021 706 232 706 c 2
 286 706 l 1
 286 635 l 1
 234 635 l 2
 192.344518474 635 183 621.310000778 183 571 c 2
 183 496 l 1
 363 496 l 1
 363 570 l 2
 363 674.869839992 388.04680021 706 496 706 c 2
 550 706 l 1
 550 635 l 1
 498 635 l 2xdd
732 653.025728983 m 0xee
 732 618.006957498 703.859203494 590 669.494763221 590 c 0
 635.163614795 590 607 617.952718192 607 652.907298589 c 0
 607 687.681208098 634.873226806 715 669.480104525 715 c 0
 703.854069739 715 732 688.047694577 732 653.025728983 c 0xee
EndSplineSet
LCarets2: 2 288 550
Ligature2: "'liga' Standard Ligatures lookup 0-1" f f i
EndChar

StartChar: f_f_l
Encoding: 436 64260 372
Width: 814
Flags: W
HStem: 0 74<733.555 799> 429 67<15 99 183 363 447 550> 635 71<191.215 286 455.215 550> 647 20G<645 729>
VStem: 99 84<0 429 496 628.681> 363 84<0 429 496 628.681> 645 84<78.3556 667>
LayerCount: 2
Fore
SplineSet
729 138 m 2xde
 729 87.7733509974 734.868551901 74 780 74 c 2
 799 74 l 1
 799 0 l 1
 762 0 l 2
 667.668568397 0 645 22.4354365591 645 124 c 2
 645 667 l 1
 729 667 l 1
 729 138 l 2xde
498 635 m 2xee
 456.344518474 635 447 621.310000778 447 571 c 2
 447 496 l 1
 550 496 l 1
 550 429 l 1
 447 429 l 1
 447 0 l 1
 363 0 l 1
 363 429 l 1
 183 429 l 1
 183 0 l 1
 99 0 l 1
 99 429 l 1
 15 429 l 1
 15 496 l 1
 99 496 l 1
 99 570 l 2
 99 674.869839992 124.04680021 706 232 706 c 2
 286 706 l 1
 286 635 l 1
 234 635 l 2
 192.344518474 635 183 621.310000778 183 571 c 2
 183 496 l 1
 363 496 l 1
 363 570 l 2
 363 674.869839992 388.04680021 706 496 706 c 2
 550 706 l 1
 550 635 l 1
 498 635 l 2xee
EndSplineSet
LCarets2: 2 288 602
Ligature2: "'liga' Standard Ligatures lookup 0-1" f f l
EndChar

StartChar: f_f
Encoding: 437 64256 373
Width: 575
Flags: W
HStem: 0 21G<99 183 363 447> 429 67<15 99 183 363 447 550> 635 71<191.215 286 455.215 550>
VStem: 99 84<0 429 496 628.681> 363 84<0 429 496 628.681>
LayerCount: 2
Fore
SplineSet
498 635 m 2
 456.344518474 635 447 621.310000778 447 571 c 2
 447 496 l 1
 550 496 l 1
 550 429 l 1
 447 429 l 1
 447 0 l 1
 363 0 l 1
 363 429 l 1
 183 429 l 1
 183 0 l 1
 99 0 l 1
 99 429 l 1
 15 429 l 1
 15 496 l 1
 99 496 l 1
 99 570 l 2
 99 674.869839992 124.04680021 706 232 706 c 2
 286 706 l 1
 286 635 l 1
 234 635 l 2
 192.344518474 635 183 621.310000778 183 571 c 2
 183 496 l 1
 363 496 l 1
 363 570 l 2
 363 674.869839992 388.04680021 706 496 706 c 2
 550 706 l 1
 550 635 l 1
 498 635 l 2
EndSplineSet
Ligature2: "'liga' Standard Ligatures lookup 0-1" f f
LCarets2: 1 288
EndChar

StartChar: dong
Encoding: 438 8363 374
Width: 603
Flags: W
HStem: -129 67<50 553> -12 72<197.705 345.101> 0 21G<428.133 513> 432 72<200.031 344.484> 548 67<249 412 496 578> 648 20G<412 496>
VStem: 38 94<139.605 354.91> 412 84<133.158 357.466 418 548 615 668>
LayerCount: 2
Fore
SplineSet
412 75 m 1xbf
 382.550968515 21.4563063914 327.965002793 -12 256.21547869 -12 c 0xdf
 139.197024762 -12 38 76.9915261468 38 244.846913523 c 0
 38 408.775792676 134.517955501 504 253.948740641 504 c 0
 291.615388371 504 368.830199563 494.528282592 412 418 c 1
 412 548 l 1
 249 548 l 1
 249 615 l 1
 412 615 l 1
 412 668 l 1
 496 668 l 1
 496 615 l 1
 578 615 l 1
 578 548 l 1
 496 548 l 1
 496 187 l 2
 496 117.098474185 501.777739985 56.1113000733 513 0 c 1
 434 0 l 1
 412 75 l 1xbf
132 252.153680006 m 0
 132 207.309631624 140.68587501 60 270.407275818 60 c 0
 357.232440855 60 414 125.993189535 414 240.868455659 c 0
 414 286.480318841 405.050417291 432 275.255284857 432 c 0
 187.559779818 432 132 365.570713199 132 252.153680006 c 0
50 -129 m 1
 50 -62 l 1
 553 -62 l 1
 553 -129 l 1
 50 -129 l 1
EndSplineSet
EndChar

StartChar: uni0237
Encoding: 474 567 410
Width: 254
HStem: -161 74<-58 73.0836> 476 20G<90 174>
VStem: 90 84<-68.7262 496>
AnchorPoint: "Anchor-0" 134 496 basechar 0
LayerCount: 2
Fore
SplineSet
174 7 m 2
 174 -120.054288461 134.061720171 -161 -3 -161 c 1
 -58 -159 l 1
 -58 -86 l 1
 -11 -87 l 2
 75.0150571826 -87 90 -68.4558388959 90 12 c 2
 90 496 l 1
 174 496 l 1
 174 7 l 2
EndSplineSet
EndChar

StartChar: uni2010
Encoding: 489 8208 425
Width: 328
Flags: W
HStem: 208 81<38 290>
VStem: 38 252<208 289>
LayerCount: 2
Fore
SplineSet
38 208 m 1
 38 289 l 1
 290 289 l 1
 290 208 l 1
 38 208 l 1
EndSplineSet
EndChar

StartChar: Ldot
Encoding: 496 319 432
Width: 539
HStem: 0 81<170 529> 250 130<317.793 411.205> 648 20G<76 170>
VStem: 76 94<81 668> 300 129<267.651 363.238>
LayerCount: 2
Fore
SplineSet
76 0 m 1
 76 668 l 1
 170 668 l 1
 170 81 l 1
 529 81 l 1
 529 0 l 1
 76 0 l 1
429 315.985470349 m 0
 429 280.870825312 400.164183068 250 364.500678544 250 c 0
 328.761463534 250 300 281.002036537 300 315.97123614 c 0
 300 350.967268089 328.805618598 380 364.574481631 380 c 0
 400.320037588 380 429 351.005091356 429 315.985470349 c 0
EndSplineSet
EndChar

StartChar: ldot
Encoding: 497 320 433
Width: 370
Flags: W
HStem: 0 74<158.555 224> 250 129<247.611 343.146> 647 20G<70 154>
VStem: 70 84<78.3556 667> 231 129<266.839 362.149>
LayerCount: 2
Fore
SplineSet
154 138 m 2
 154 87.7733509974 159.868551901 74 205 74 c 2
 224 74 l 1
 224 0 l 1
 187 0 l 2
 92.6685683986 0 70 22.4354365566 70 124 c 2
 70 667 l 1
 154 667 l 1
 154 138 l 2
360 314.554290333 m 0
 360 278.793943632 331.195499089 250 295.439079454 250 c 0
 259.48125678 250 231 279.119229004 231 314.486255376 c 0
 231 349.855022365 259.484060307 379 295.383702351 379 c 0
 330.876258142 379 360 350.512257359 360 314.554290333 c 0
EndSplineSet
EndChar

